<svg width="74" height="74" viewBox="0 0 74 74" fill="none" xmlns="http://www.w3.org/2000/svg">
<path d="M38.9531 0C39.1701 0.108504 39.3871 0.217009 39.6041 0.108504C41.4487 0 42.2082 1.73607 41.3402 3.25513C39.8211 5.85924 40.4721 8.89736 42.6422 10.8504C43.0762 11.176 43.5103 11.5015 44.0528 11.7185C45.5718 12.478 45.7889 13.2375 45.1378 14.7566C42.3167 20.6158 45.2463 27.4516 51.3226 29.4047C53.9267 30.2727 56.5308 30.0557 59.1349 28.8622C60.871 28.1026 61.4135 28.3196 62.2815 29.9472C63.9091 33.0938 67.5982 34.2874 70.7449 32.5513C72.4809 31.5748 73.6745 32.2258 73.783 34.1789C75.085 53.2757 61.956 70.0938 43.0762 73.349C23.0029 76.8211 3.90616 63.1496 0.542522 43.1847C0.325513 41.8827 0.108504 40.4721 0 39.1701C0 37.7595 0 36.349 0 34.9384C0.217009 33.5279 0.325513 32.0088 0.651026 30.5982C3.03812 15.8416 15.0821 3.47214 29.7302 0.759531C31.4663 0.434018 33.2023 0.217009 34.8299 0C36.2405 0 37.5425 0 38.9531 0ZM59.8944 32.3343C53.9267 34.8299 48.2845 32.8768 45.0293 29.6217C40.4721 25.173 39.3871 19.9648 41.6657 13.9971C38.1936 11.2845 35.915 8.24634 37.7595 3.58065C27.9941 3.03812 13.8886 8.13783 6.94428 22.3519C0.325513 35.8065 3.68915 52.4076 15.1906 62.2815C26.6921 72.1554 43.6188 73.132 55.9883 64.5601C62.2815 60.2199 66.6217 54.3607 69.0088 46.9824C70.0938 43.5103 70.6364 39.9296 70.5279 36.2405C65.6452 38.085 62.607 35.8065 59.8944 32.3343Z" fill="black"/>
<path d="M60.5453 0C61.8473 0.434018 62.8239 1.19355 63.2579 2.60411C63.8004 4.44868 62.7154 6.40176 60.9793 6.94428C59.2432 7.4868 57.2902 6.61877 56.6391 4.77419C55.9881 3.03812 56.8561 1.08504 58.5922 0.325513C58.8092 0.217009 59.0262 0.108504 59.2432 0C59.6772 0 60.1113 0 60.5453 0Z" fill="black"/>
<path d="M57.182 14.1056C58.5925 14.1056 59.7861 15.1906 59.7861 16.7097C59.7861 18.2288 58.5925 19.4223 57.182 19.4223C55.7714 19.4223 54.4694 18.2288 54.5779 16.7097C54.5779 15.2991 55.7714 14.1056 57.182 14.1056Z" fill="black"/>
<path d="M72.1553 22.8944C71.1787 22.8944 70.4192 22.1349 70.4192 21.1584C70.4192 20.1818 71.1787 19.4223 72.2638 19.4223C73.2403 19.4223 73.9998 20.2903 73.9998 21.1584C73.8913 22.1349 73.1318 22.8944 72.1553 22.8944Z" fill="black"/>
<path d="M19.4225 28.2112C22.3521 28.2112 24.7392 30.5982 24.7392 33.4194C24.7392 36.349 22.3521 38.7361 19.4225 38.7361C16.4928 38.7361 14.2143 36.349 14.2143 33.4194C14.1057 30.4897 16.4928 28.2112 19.4225 28.2112Z" fill="black"/>
<path d="M50.997 53.7097C50.997 56.2053 49.0439 58.1584 46.6568 58.1584C44.2697 58.1584 42.2081 56.2053 42.2081 53.8182C42.2081 51.4311 44.1612 49.3695 46.5483 49.3695C49.0439 49.261 50.997 51.2141 50.997 53.7097Z" fill="black"/>
<path d="M22.8943 54.5777C20.9412 54.5777 19.4221 53.0587 19.4221 51.1056C19.4221 49.1525 21.0497 47.6335 22.8943 47.6335C24.8473 47.6335 26.3664 49.261 26.3664 51.2141C26.4749 53.0587 24.8473 54.5777 22.8943 54.5777Z" fill="black"/>
<path d="M36.1322 40.4722C34.7216 40.4722 33.5281 39.3871 33.5281 37.8681C33.5281 36.349 34.7216 35.1555 36.1322 35.1555C37.5427 35.1555 38.8448 36.349 38.7363 37.8681C38.7363 39.2786 37.5427 40.4722 36.1322 40.4722Z" fill="black"/>
<path d="M28.2111 22.0264C28.2111 20.6158 29.2961 19.4223 30.7067 19.4223C32.2257 19.4223 33.4193 20.5073 33.4193 22.0264C33.4193 23.437 32.2257 24.739 30.8152 24.739C29.4046 24.6305 28.2111 23.437 28.2111 22.0264Z" fill="black"/>
</svg>
