<svg xmlns="http://www.w3.org/2000/svg" viewBox="0 0 143 29" width="143" height="29">
	<style>
		tspan { white-space:pre }
		.shp0 { fill: #ffffff } 
		.shp1 { fill: #cf222d } 
	</style>
	<g id="surface1">
		<path id="Layer" fill-rule="evenodd" class="shp0" d="M0 3.96C0.41 3.96 1.02 3.9 1.84 3.83C2.66 3.77 3.69 3.77 4.91 3.77C5.83 3.77 6.75 3.83 7.68 3.9C8.49 4.02 9.31 4.21 10.14 4.54C10.85 4.87 11.47 5.26 11.97 5.77C12.38 6.29 12.69 7.01 12.69 7.85C12.69 8.63 12.48 9.28 12.18 9.74C11.77 10.25 11.36 10.64 10.75 10.97C10.14 11.29 9.42 11.49 8.7 11.62C7.88 11.75 7.17 11.81 6.35 11.81L5.32 11.81C5.02 11.81 4.71 11.75 4.61 11.75L4.61 15.51C3.99 15.57 3.58 15.57 3.28 15.64L2.25 15.64C1.64 15.64 0.92 15.57 0 15.51L0 3.96ZM4.41 9.41C4.5 9.41 4.61 9.48 4.81 9.48L5.42 9.48C6.14 9.48 6.75 9.35 7.17 9.09C7.58 8.82 7.88 8.44 7.88 7.85C7.88 7.53 7.78 7.27 7.68 7.01C7.68 6.81 7.47 6.62 7.17 6.49C6.96 6.36 6.65 6.23 6.24 6.23C5.94 6.16 5.53 6.16 5.22 6.16L4.5 6.16L4.41 9.41ZM14.94 3.96C15.35 3.96 15.87 3.9 16.17 3.9L18.22 3.9C18.63 3.9 19.04 3.96 19.45 3.96L19.45 12.98L25.28 12.98C25.38 13.24 25.38 13.5 25.49 13.69L25.49 14.79C25.49 14.99 25.38 15.25 25.28 15.51L14.94 15.51L14.94 3.96ZM30.5 15.51C30.09 15.57 29.79 15.57 29.48 15.57L28.56 15.57C28.25 15.57 27.94 15.57 27.53 15.51C27.12 15.51 26.71 15.44 26.2 15.38L31.73 3.96C32.14 3.96 32.55 3.9 32.96 3.9L35.11 3.9C35.52 3.9 35.93 3.96 36.44 3.96L42.07 15.51C41.15 15.57 40.22 15.64 39.51 15.64L38.49 15.64C38.18 15.64 37.77 15.57 37.36 15.57L36.44 13.3C35.93 13.37 35.52 13.44 35.11 13.5C34.7 13.56 34.29 13.56 33.77 13.56C33.37 13.56 32.96 13.56 32.55 13.5C32.14 13.44 31.73 13.44 31.32 13.3L30.5 15.51ZM33.98 7.01L32.24 11.16C32.55 11.23 32.76 11.23 33.06 11.29C33.27 11.29 33.57 11.36 33.88 11.36C34.18 11.36 34.49 11.36 34.7 11.29C35.01 11.29 35.31 11.23 35.62 11.16L33.98 7.01ZM50.97 3.96C51.38 3.96 51.79 3.9 52.2 3.9L53.53 3.9C53.84 3.9 54.14 3.9 54.66 3.96C55.07 3.96 55.48 4.02 55.78 4.02L50.15 11.42L50.15 15.51C49.24 15.57 48.51 15.64 47.9 15.64C47.29 15.64 46.47 15.57 45.65 15.51L45.65 11.42C45.24 10.84 44.73 10.25 44.22 9.61C43.71 8.95 43.3 8.37 42.78 7.72C42.27 7.07 41.86 6.49 41.35 5.84C40.84 5.19 40.43 4.6 40.02 4.02C40.32 4.02 40.74 3.96 41.15 3.96C41.66 3.9 42.07 3.9 42.58 3.9C42.89 3.9 43.3 3.9 43.81 3.96C44.22 3.96 44.62 4.02 44.94 4.02L48.1 8.5L50.97 3.96ZM93.96 15.51C93.55 15.57 93.24 15.57 92.93 15.57L92.02 15.57C91.71 15.57 91.4 15.57 90.99 15.51C90.58 15.51 90.17 15.44 89.66 15.38L95.19 3.96C95.59 3.96 96 3.9 96.42 3.9L98.57 3.9C98.97 3.9 99.39 3.96 99.9 3.96L105.53 15.51C104.6 15.57 103.69 15.64 102.97 15.64L101.94 15.64C101.64 15.64 101.23 15.57 100.82 15.57L99.9 13.3C99.39 13.37 98.97 13.44 98.57 13.5C98.16 13.56 97.75 13.56 97.24 13.56C96.83 13.56 96.42 13.56 96 13.5C95.59 13.44 95.19 13.44 94.78 13.3L93.96 15.51ZM97.54 7.01L95.8 11.16C96.11 11.23 96.31 11.23 96.63 11.29C96.83 11.29 97.14 11.36 97.44 11.36C97.75 11.36 98.05 11.36 98.26 11.29C98.57 11.29 98.87 11.23 99.18 11.16L97.54 7.01ZM107.78 3.96C108.09 3.96 108.49 3.9 108.9 3.9C109.31 3.9 109.72 3.83 110.03 3.83C110.34 3.83 110.75 3.83 111.16 3.9C111.56 3.9 111.97 3.96 112.28 3.96L115.86 10L119.65 3.96C119.96 3.96 120.37 3.9 120.67 3.9C120.98 3.9 121.39 3.83 121.7 3.83C122.01 3.83 122.42 3.83 122.83 3.9C123.24 3.9 123.54 3.96 123.95 3.96L124.77 15.51C124.46 15.51 124.15 15.57 123.85 15.57C123.54 15.64 123.03 15.64 122.52 15.64C121.91 15.64 121.19 15.57 120.37 15.51L120.06 8.82L117.3 13.24C116.99 13.24 116.68 13.3 116.38 13.3L114.74 13.3C114.43 13.3 114.23 13.24 113.92 13.24L111.47 8.89L111.16 15.51C110.44 15.57 109.72 15.64 109.11 15.64C108.49 15.64 107.78 15.57 107.06 15.51L107.78 3.96ZM127.23 9.8C127.23 8.95 127.43 8.11 127.74 7.4C128.04 6.68 128.56 6.03 129.17 5.52C129.78 5 130.71 4.54 131.63 4.21C132.65 3.9 133.88 3.77 135.21 3.77C136.64 3.77 137.77 3.9 138.8 4.21C139.82 4.54 140.63 4.93 141.25 5.52C141.87 6.03 142.37 6.68 142.68 7.4C142.99 8.11 143.19 8.95 143.19 9.8C143.19 10.64 142.99 11.49 142.68 12.2C142.37 12.91 141.87 13.56 141.25 14.08C140.63 14.6 139.82 15.06 138.8 15.31C137.77 15.64 136.64 15.77 135.21 15.77C133.77 15.77 132.65 15.64 131.63 15.31C130.61 14.99 129.78 14.6 129.17 14.08C128.56 13.56 128.04 12.91 127.74 12.2C127.33 11.42 127.23 10.64 127.23 9.8ZM138.49 9.8C138.49 7.46 137.36 6.29 135.21 6.29C132.96 6.29 131.93 7.46 131.93 9.8C131.93 10.97 132.24 11.88 132.76 12.39C133.27 12.98 134.09 13.24 135.21 13.24C137.36 13.3 138.49 12.13 138.49 9.8Z" />
		<path id="Layer" fill-rule="evenodd" class="shp1" d="M88.54 6.94L85.57 6.81C84.95 6.81 84.34 6.75 83.62 6.68C81.27 6.49 78.71 6.55 76.25 5.65L73.59 4.28C71.34 2.98 69.29 1.49 66.84 0.13C67.15 0.13 67.35 0.19 67.65 0.19L70.42 0.52C71.24 0.58 72.06 0.71 72.88 0.84C74.82 1.1 76.97 1.3 78.91 2.01L86.9 6.16C87.41 6.49 87.92 6.81 88.54 6.94ZM74.82 7.92C74.41 8.69 73.59 9.48 72.98 10.19C71.65 11.75 70.62 12.98 69.19 14.66C68.58 15.31 67.86 16.61 66.84 16.61C65.92 16.61 64.99 15.51 64.69 15.25C63.36 14.08 62.33 13.24 61 12.07C59.67 10.97 58.65 10.13 59.06 8.95C59.37 8.24 59.98 7.53 60.59 6.75C61.51 5.45 62.85 3.51 63.67 2.33C64.17 1.62 64.79 0.32 66.12 0.65C66.23 0.65 66.33 0.71 66.43 0.71L67.86 1.43C68.68 1.95 69.6 2.66 70.52 3.18C73.49 5 75.84 5.97 74.82 7.92ZM78.91 5.45C78.61 4.74 76.56 3.96 75.54 4.34C75.84 5.06 78 5.9 78.91 5.45ZM79.73 2.92C79.42 2.27 77.38 1.62 76.76 2.01C77.28 2.66 79.12 3.25 79.73 2.92ZM85.57 6.03C84.95 5.39 83.21 4.6 82.29 5.13C83.21 5.77 84.65 6.49 85.57 6.03ZM88.54 8.44L82.71 14.79C82.5 15.06 82.19 15.31 81.88 15.57C81.27 16.09 80.45 16.48 79.84 16.68C78.71 17 75.74 17.07 74.31 17.13C73.49 17.13 72.57 17.2 71.55 17.26C71.13 17.33 69.29 17.59 68.78 17.2C68.17 16.74 69.4 15.51 69.9 14.92C71.24 13.24 72.47 11.94 73.69 10.38C74.82 9.09 75.74 7.46 78.09 7.07C79.22 6.81 81.47 7.14 83.01 7.27C83.62 7.33 84.24 7.33 84.85 7.4L88.44 7.72C88.64 7.92 88.64 8.11 88.54 8.44ZM74.82 14.47C73.69 13.3 70.72 15.19 71.85 15.83C72.88 16.42 74.82 15.25 74.82 14.47ZM76.56 11.49C75.54 11.23 73.08 12.65 74.21 13.3C75.43 13.95 78.2 11.94 76.56 11.49ZM78.91 8.69C77.79 8.37 75.34 9.93 76.46 10.57C77.68 11.29 80.66 9.22 78.91 8.69ZM81.27 14.02C80.35 13.69 78.09 14.92 78.91 15.51C79.84 16.22 82.4 14.41 81.27 14.02ZM83.52 11.55C82.4 11.16 80.14 12.72 81.17 13.24C82.08 13.69 84.75 12.07 83.52 11.55ZM85.87 9.02C84.85 8.69 82.6 10.13 83.52 10.71C84.54 11.42 87.1 9.48 85.87 9.02ZM73.08 2.08C72.67 1.36 70.72 0.65 69.81 1.17C70.72 1.82 72.06 2.4 73.08 2.08ZM62.74 8.37C61.11 7.07 59.57 10.19 61.82 10.32C62.95 10.06 63.26 8.82 62.74 8.37ZM65.4 5.13C66.94 5 67.45 3.38 66.33 2.85C64.58 2.08 63.56 5.06 65.4 5.13ZM66.33 9.54C68.17 9.09 67.35 6.75 65.82 7.2C64.38 7.59 64.69 9.74 66.33 9.54ZM66.23 11.81C64.89 12.33 65.1 13.89 66.63 14.21C68.89 14.02 67.76 11.23 66.23 11.81ZM71.65 6.36C71.24 6.23 70.93 6.16 70.62 6.29C68.89 6.94 69.7 9.09 71.34 8.69C72.88 8.31 72.67 6.68 71.65 6.36Z" />
		<path id="Layer" fill-rule="evenodd" class="shp0" d="M15.56 20.5C15.66 20.5 15.77 20.5 15.87 20.57C15.97 20.63 15.97 20.7 15.97 20.76L15.97 21.09C15.97 21.16 15.97 21.22 15.87 21.29C15.77 21.35 15.66 21.35 15.56 21.35L12.8 21.35L12.8 26.86C12.8 26.93 12.8 26.99 12.69 27.06C12.59 27.13 12.48 27.13 12.38 27.13L11.77 27.13C11.67 27.13 11.56 27.13 11.47 27.06C11.36 26.99 11.36 26.93 11.36 26.86L11.36 21.35L8.6 21.35C8.49 21.35 8.39 21.35 8.29 21.29C8.29 21.22 8.19 21.16 8.19 21.09L8.19 20.76C8.19 20.7 8.19 20.63 8.29 20.57C8.39 20.5 8.49 20.5 8.6 20.5L15.56 20.5ZM23.44 26.86C23.44 26.93 23.44 26.99 23.33 27.06C23.23 27.13 23.13 27.13 23.03 27.13L22.52 27.13C22.41 27.13 22.31 27.13 22.21 27.06C22.11 26.99 22.11 26.93 22.11 26.86L22.11 24.4C22.11 23.95 21.91 23.56 21.6 23.3C21.19 23.04 20.67 22.91 20.06 22.91C19.45 22.91 18.93 23.04 18.53 23.3C18.11 23.56 17.91 23.88 17.91 24.4L17.91 26.86C17.91 26.93 17.91 26.99 17.81 27.06C17.71 27.13 17.6 27.13 17.5 27.13L16.99 27.13C16.89 27.13 16.79 27.13 16.68 27.06C16.58 26.99 16.58 26.93 16.58 26.86L16.58 20.7C16.58 20.63 16.58 20.57 16.68 20.5C16.79 20.44 16.89 20.44 16.99 20.44L17.5 20.44C17.6 20.44 17.71 20.44 17.81 20.5C17.91 20.57 17.91 20.63 17.91 20.7L17.91 22.78C18.11 22.65 18.43 22.45 18.73 22.32C19.04 22.19 19.55 22.13 20.16 22.13C20.67 22.13 21.09 22.19 21.5 22.26C21.91 22.32 22.21 22.52 22.52 22.65C22.82 22.84 23.03 23.04 23.13 23.3C23.33 23.56 23.33 23.88 23.33 24.21L23.33 26.86L23.44 26.86ZM24.05 24.21C24.05 23.95 24.16 23.62 24.36 23.36C24.57 23.1 24.77 22.91 25.08 22.71C25.38 22.52 25.69 22.39 26.1 22.26C26.51 22.13 26.92 22.13 27.43 22.13C27.94 22.13 28.45 22.19 28.86 22.32C29.27 22.45 29.69 22.58 29.99 22.78C30.3 22.97 30.5 23.23 30.71 23.56C30.91 23.88 30.91 24.21 30.91 24.53L30.91 24.79C30.91 24.85 30.91 24.92 30.81 24.98C30.71 25.05 30.6 25.05 30.5 25.05L25.38 25.05L25.38 25.11C25.38 25.57 25.59 25.9 25.99 26.09C26.4 26.34 26.92 26.41 27.43 26.41C27.94 26.41 28.35 26.34 28.66 26.28C28.97 26.21 29.17 26.09 29.27 25.96L29.48 25.83C29.58 25.77 29.58 25.83 29.79 25.83L30.19 25.83C30.3 25.83 30.4 25.83 30.5 25.9C30.71 25.9 30.71 25.96 30.71 26.02C30.71 26.15 30.6 26.28 30.5 26.41C30.4 26.54 30.19 26.67 29.89 26.8C29.58 26.93 29.27 26.99 28.86 27.13C28.45 27.26 28.04 27.26 27.53 27.26C27.03 27.26 26.62 27.19 26.2 27.06C25.79 26.93 25.49 26.8 25.18 26.6C24.87 26.41 24.67 26.21 24.46 25.96C24.26 25.7 24.16 25.44 24.16 25.11C24.05 24.79 24.05 24.46 24.05 24.21ZM25.38 24.21L29.58 24.21C29.58 23.82 29.38 23.49 28.97 23.3C28.56 23.04 28.04 22.97 27.43 22.97C27.12 22.97 26.92 22.97 26.62 23.04C26.4 23.1 26.1 23.17 25.99 23.3C25.79 23.43 25.69 23.56 25.59 23.69C25.49 23.82 25.38 24.01 25.38 24.21ZM40.02 22.13C40.54 22.13 40.94 22.19 41.35 22.26C41.76 22.39 42.07 22.52 42.37 22.71C42.68 22.91 42.89 23.17 43.09 23.43C43.3 23.69 43.4 24.01 43.4 24.34L43.4 24.98C43.4 25.31 43.3 25.64 43.09 25.9C42.89 26.15 42.68 26.41 42.37 26.6C42.07 26.8 41.76 26.93 41.35 27.06C40.94 27.19 40.54 27.19 40.02 27.19C39.41 27.19 38.89 27.13 38.59 26.99C38.18 26.86 37.97 26.73 37.77 26.54L37.77 26.86C37.77 26.93 37.77 26.99 37.66 27.06C37.56 27.13 37.46 27.13 37.36 27.13L36.84 27.13C36.75 27.13 36.64 27.13 36.54 27.06C36.44 26.99 36.44 26.93 36.44 26.86L36.44 20.7C36.44 20.63 36.44 20.57 36.54 20.5C36.64 20.44 36.75 20.44 36.84 20.44L37.36 20.44C37.46 20.44 37.56 20.44 37.66 20.5C37.77 20.57 37.77 20.63 37.77 20.7L37.77 22.78C37.97 22.65 38.28 22.45 38.59 22.32C38.89 22.19 39.41 22.13 40.02 22.13ZM37.66 25.05C37.66 25.44 37.97 25.77 38.28 26.02C38.59 26.28 39.2 26.41 39.82 26.41C40.43 26.41 40.94 26.28 41.35 26.02C41.76 25.77 41.96 25.38 41.96 24.92L41.96 24.4C41.96 23.95 41.66 23.56 41.35 23.3C41.05 23.04 40.43 22.91 39.82 22.91C39.2 22.91 38.69 23.04 38.28 23.3C37.87 23.56 37.66 23.88 37.66 24.34L37.66 25.05ZM44.12 24.21C44.12 23.95 44.22 23.62 44.42 23.36C44.62 23.1 44.83 22.91 45.14 22.71C45.44 22.52 45.75 22.39 46.16 22.26C46.57 22.13 46.98 22.13 47.49 22.13C48 22.13 48.51 22.19 48.93 22.32C49.33 22.45 49.74 22.58 50.05 22.78C50.36 22.97 50.56 23.23 50.77 23.56C50.97 23.88 50.97 24.21 50.97 24.53L50.97 24.79C50.97 24.85 50.97 24.92 50.87 24.98C50.77 25.05 50.67 25.05 50.56 25.05L45.44 25.05L45.44 25.11C45.44 25.57 45.65 25.9 46.06 26.09C46.47 26.34 46.98 26.41 47.49 26.41C48 26.41 48.41 26.34 48.72 26.28C49.03 26.21 49.24 26.09 49.33 25.96L49.54 25.83C49.65 25.77 49.65 25.83 49.85 25.83L50.26 25.83C50.36 25.83 50.46 25.83 50.56 25.9C50.67 25.96 50.67 26.02 50.67 26.09C50.67 26.21 50.56 26.34 50.46 26.47C50.36 26.6 50.15 26.73 49.85 26.86C49.54 26.99 49.24 27.06 48.82 27.19C48.41 27.32 48 27.32 47.49 27.32C46.98 27.32 46.57 27.26 46.16 27.13C45.75 26.99 45.44 26.86 45.14 26.67C44.83 26.47 44.62 26.28 44.42 26.02C44.22 25.77 44.12 25.51 44.12 25.18C44.01 24.79 44.01 24.46 44.12 24.21ZM45.34 24.21L49.54 24.21C49.54 23.82 49.33 23.49 48.93 23.3C48.51 23.04 48 22.97 47.39 22.97C47.08 22.97 46.88 22.97 46.57 23.04C46.37 23.1 46.06 23.17 45.95 23.3C45.75 23.43 45.65 23.56 45.55 23.69C45.44 23.82 45.44 24.01 45.34 24.21ZM56.29 25.77C56.29 25.64 56.19 25.57 56.09 25.44C55.99 25.31 55.78 25.31 55.58 25.24C55.38 25.18 55.07 25.11 54.76 25.11C54.45 25.05 54.04 24.98 53.63 24.98C52.81 24.85 52.31 24.72 52 24.46C51.69 24.21 51.48 23.95 51.48 23.62C51.48 23.43 51.59 23.23 51.69 23.1C51.79 22.91 52 22.78 52.2 22.65C52.4 22.52 52.72 22.39 53.12 22.32C53.53 22.26 53.94 22.19 54.34 22.19C54.76 22.19 55.27 22.26 55.58 22.32C55.99 22.39 56.29 22.45 56.5 22.58C56.7 22.71 56.91 22.78 57.11 22.91C57.21 23.04 57.32 23.17 57.32 23.23C57.32 23.3 57.32 23.36 57.21 23.43C57.11 23.49 57.01 23.49 56.91 23.49L56.19 23.49C56.09 23.49 55.99 23.43 55.99 23.36C55.88 23.23 55.68 23.17 55.38 23.1C55.07 23.04 54.76 22.97 54.34 22.97C53.94 22.97 53.53 23.04 53.22 23.1C52.92 23.23 52.81 23.36 52.81 23.56C52.81 23.69 52.81 23.75 52.92 23.82C53.02 23.88 53.12 23.95 53.33 24.01C53.53 24.08 53.73 24.14 54.04 24.14C54.34 24.21 54.66 24.27 55.17 24.27C55.58 24.34 55.99 24.4 56.29 24.53C56.6 24.66 56.8 24.72 57.01 24.85C57.21 24.98 57.32 25.11 57.43 25.24C57.52 25.38 57.52 25.57 57.52 25.7C57.52 25.9 57.43 26.09 57.32 26.21C57.21 26.41 57.01 26.54 56.7 26.67C56.39 26.8 56.09 26.93 55.68 26.99C55.27 27.06 54.86 27.13 54.34 27.13C53.84 27.13 53.43 27.06 53.02 26.99C52.61 26.93 52.31 26.8 52.1 26.73C51.79 26.6 51.59 26.47 51.48 26.34C51.38 26.21 51.28 26.09 51.28 25.96C51.28 25.9 51.28 25.83 51.38 25.77C51.48 25.7 51.59 25.7 51.69 25.7L52.4 25.7C52.51 25.7 52.51 25.77 52.61 25.83C52.81 25.96 53.02 26.09 53.22 26.15C53.53 26.21 53.84 26.28 54.34 26.28C54.56 26.28 54.76 26.28 54.97 26.21C55.17 26.21 55.38 26.15 55.58 26.09C55.78 26.02 55.88 25.96 55.99 25.9C56.29 25.96 56.29 25.83 56.29 25.77ZM60.7 25.44C60.7 25.57 60.7 25.7 60.8 25.77C60.8 25.9 60.9 25.96 61 26.02C61.11 26.09 61.21 26.15 61.41 26.21C61.62 26.28 61.82 26.28 62.03 26.28L62.85 26.28C62.95 26.28 63.05 26.28 63.16 26.34C63.26 26.41 63.26 26.47 63.26 26.54L63.26 26.86C63.26 26.93 63.26 26.99 63.16 27.06C63.05 27.13 62.95 27.13 62.85 27.13L61.92 27.13C61.11 27.13 60.39 26.99 60.09 26.67C59.67 26.41 59.46 25.96 59.46 25.44L59.46 22.97L58.34 22.97C58.24 22.97 58.14 22.97 58.04 22.91C57.93 22.84 57.93 22.78 57.93 22.71L57.93 22.39C57.93 22.32 57.93 22.26 58.04 22.19C58.14 22.13 58.24 22.13 58.34 22.13L59.37 22.13L59.37 20.57C59.37 20.5 59.37 20.44 59.46 20.37C59.57 20.31 59.67 20.31 59.77 20.31L60.39 20.31C60.5 20.31 60.59 20.31 60.7 20.37C60.8 20.44 60.8 20.5 60.8 20.57L60.8 22.13L62.64 22.13C62.74 22.13 62.85 22.13 62.95 22.19C63.05 22.26 63.05 22.32 63.05 22.39L63.05 22.71C63.05 22.78 63.05 22.84 62.95 22.91C62.85 22.97 62.74 22.97 62.64 22.97L60.8 22.97L60.8 25.44L60.7 25.44ZM75.23 25.57L76.87 22.39C76.87 22.32 76.97 22.26 77.07 22.26C77.18 22.19 77.28 22.19 77.38 22.19L77.89 22.19C78 22.19 78.09 22.19 78.09 22.26C78.2 22.32 78.2 22.39 78.2 22.39L78.2 22.45L75.95 26.8C75.95 26.86 75.84 26.93 75.74 26.99C75.64 27.06 75.54 27.06 75.43 27.06L74.93 27.06C74.82 27.06 74.72 27.06 74.62 26.99C74.52 26.93 74.52 26.86 74.41 26.8L72.67 23.69L70.93 26.8C70.93 26.86 70.83 26.93 70.72 26.99C70.62 27.06 70.52 27.06 70.42 27.06L69.9 27.06C69.81 27.06 69.7 27.06 69.6 26.99C69.5 26.93 69.5 26.86 69.4 26.8L67.15 22.45L67.15 22.39C67.15 22.32 67.15 22.26 67.24 22.26C67.35 22.19 67.35 22.19 67.45 22.19L67.96 22.19C68.06 22.19 68.27 22.19 68.27 22.26C68.37 22.32 68.37 22.39 68.48 22.39L70.11 25.57L71.85 22.39C71.85 22.32 71.95 22.26 71.95 22.26C72.06 22.19 72.16 22.19 72.26 22.19L72.57 22.19C72.67 22.19 72.77 22.19 72.88 22.26C72.98 22.32 72.98 22.39 72.98 22.39L75.23 25.57ZM78.09 25.9C78.09 25.64 78.2 25.44 78.3 25.24C78.5 25.05 78.71 24.92 78.91 24.79C79.22 24.66 79.53 24.53 79.94 24.46C80.35 24.4 80.66 24.34 81.17 24.27L83.21 24.08L83.21 23.95C83.21 23.62 83.01 23.36 82.71 23.23C82.4 23.1 81.98 22.97 81.47 22.97C81.07 22.97 80.76 23.04 80.45 23.1C80.14 23.17 80.04 23.3 79.84 23.49L79.63 23.62L78.91 23.62C78.81 23.62 78.71 23.62 78.61 23.56C78.5 23.49 78.5 23.43 78.5 23.36C78.5 23.23 78.61 23.1 78.81 22.91L79.42 22.52C79.63 22.39 80.04 22.32 80.35 22.26C80.66 22.19 81.07 22.13 81.47 22.13C81.88 22.13 82.29 22.19 82.71 22.26C83.12 22.32 83.42 22.45 83.73 22.65C84.03 22.84 84.24 22.97 84.34 23.23C84.44 23.49 84.54 23.75 84.54 24.01L84.54 26.86C84.54 26.93 84.54 26.99 84.44 27.06C84.34 27.13 84.24 27.13 84.13 27.13L83.62 27.13C83.52 27.13 83.42 27.13 83.32 27.06C83.21 26.99 83.21 26.93 83.21 26.86L83.21 26.47C83.12 26.6 83.01 26.67 82.8 26.8C82.6 26.86 82.4 26.99 82.19 27.06C81.98 27.13 81.68 27.19 81.47 27.19C81.17 27.19 80.96 27.26 80.76 27.26C80.35 27.26 80.04 27.19 79.73 27.13C79.42 27.06 79.12 26.99 78.91 26.86C78.71 26.73 78.5 26.6 78.4 26.47C78.2 26.21 78.09 26.09 78.09 25.9ZM80.86 26.41C81.17 26.41 81.58 26.34 81.88 26.28C82.19 26.21 82.4 26.09 82.6 26.02C82.8 25.9 83.01 25.77 83.12 25.57C83.21 25.38 83.32 25.18 83.32 24.98L83.32 24.72L81.58 24.92C80.96 24.98 80.45 25.11 80.04 25.24C79.63 25.38 79.53 25.57 79.53 25.77C79.53 25.83 79.53 25.9 79.63 25.96C79.63 26.02 79.73 26.09 79.84 26.15C79.94 26.21 80.04 26.28 80.25 26.28C80.35 26.34 80.55 26.41 80.86 26.41ZM87.92 28.68C87.92 28.75 87.81 28.81 87.81 28.81C87.72 28.88 87.61 28.88 87.51 28.88L86.9 28.88C86.8 28.88 86.69 28.88 86.69 28.81C86.59 28.75 86.59 28.68 86.59 28.68L86.59 28.62L88.03 26.67L85.06 22.52L85.06 22.45C85.06 22.39 85.06 22.32 85.15 22.32C85.26 22.26 85.37 22.26 85.37 22.26L85.98 22.26C86.08 22.26 86.18 22.26 86.28 22.32C86.39 22.39 86.39 22.45 86.39 22.45L88.64 25.64L90.99 22.45C90.99 22.39 91.1 22.32 91.1 22.32C91.2 22.26 91.3 22.26 91.4 22.26L92.12 22.26C92.22 22.26 92.32 22.26 92.32 22.32C92.43 22.39 92.43 22.45 92.43 22.45L92.43 22.52L87.92 28.68ZM98.87 25.44C98.87 25.57 98.87 25.7 98.97 25.77C98.97 25.9 99.08 25.96 99.18 26.02C99.29 26.09 99.39 26.15 99.59 26.21C99.8 26.28 100 26.28 100.21 26.28L101.02 26.28C101.12 26.28 101.23 26.28 101.33 26.34C101.43 26.41 101.43 26.47 101.43 26.54L101.43 26.86C101.43 26.93 101.43 26.99 101.33 27.06C101.23 27.13 101.12 27.13 101.02 27.13L100.1 27.13C99.29 27.13 98.57 26.99 98.26 26.67C97.85 26.41 97.64 25.96 97.64 25.44L97.64 22.97L96.52 22.97C96.42 22.97 96.31 22.97 96.21 22.91C96.11 22.84 96.11 22.78 96.11 22.71L96.11 22.39C96.11 22.32 96.11 22.26 96.21 22.19C96.31 22.13 96.42 22.13 96.52 22.13L97.64 22.13L97.64 20.57C97.64 20.5 97.64 20.44 97.75 20.37C97.85 20.31 97.95 20.31 98.05 20.31L98.57 20.31C98.67 20.31 98.77 20.31 98.87 20.37C98.97 20.44 98.97 20.5 98.97 20.57L98.97 22.13L100.82 22.13C100.92 22.13 101.02 22.13 101.12 22.19C101.23 22.26 101.23 22.32 101.23 22.39L101.23 22.71C101.23 22.78 101.23 22.84 101.12 22.91C101.02 22.97 100.92 22.97 100.82 22.97L98.97 22.97L98.97 25.44L98.87 25.44ZM105.42 22.13C105.94 22.13 106.45 22.19 106.86 22.26C107.27 22.39 107.68 22.52 107.88 22.71C108.19 22.91 108.4 23.1 108.6 23.36C108.8 23.62 108.9 23.88 108.9 24.21L108.9 25.11C108.9 25.44 108.7 25.7 108.6 25.96C108.49 26.21 108.19 26.41 107.88 26.6C107.58 26.8 107.27 26.93 106.86 27.06C106.45 27.19 105.94 27.19 105.42 27.19C104.92 27.19 104.4 27.13 103.99 27.06C103.58 26.93 103.17 26.8 102.97 26.6C102.76 26.41 102.46 26.21 102.25 25.96C102.05 25.7 101.94 25.44 101.94 25.11L101.94 24.21C101.94 23.88 102.05 23.62 102.25 23.36C102.46 23.1 102.66 22.91 102.97 22.71C103.28 22.52 103.58 22.39 103.99 22.26C104.4 22.19 104.92 22.13 105.42 22.13ZM107.58 25.05L107.58 24.27C107.58 24.08 107.47 23.88 107.37 23.75C107.27 23.62 107.16 23.43 106.96 23.3C106.75 23.17 106.55 23.1 106.35 23.04C106.04 22.97 105.83 22.91 105.42 22.91C105.12 22.91 104.81 22.97 104.5 23.04C104.19 23.1 103.99 23.23 103.89 23.3C103.69 23.43 103.58 23.56 103.48 23.75C103.38 23.95 103.28 24.08 103.28 24.27L103.28 25.05C103.28 25.24 103.38 25.44 103.48 25.57C103.58 25.7 103.69 25.9 103.89 26.02C104.09 26.15 104.3 26.21 104.5 26.28C104.81 26.34 105.02 26.41 105.42 26.41C105.73 26.41 106.04 26.34 106.35 26.28C106.65 26.21 106.86 26.09 106.96 26.02C107.16 25.9 107.27 25.77 107.37 25.57C107.47 25.38 107.58 25.24 107.58 25.05ZM121.39 25.57L123.03 22.39C123.03 22.32 123.13 22.26 123.24 22.26C123.33 22.19 123.44 22.19 123.54 22.19L124.05 22.19C124.15 22.19 124.26 22.19 124.26 22.26C124.36 22.32 124.36 22.39 124.36 22.39L124.36 22.45L122.11 26.8C122.11 26.86 122.01 26.93 121.91 26.99C121.8 27.06 121.7 27.06 121.6 27.06L121.08 27.06C120.98 27.06 120.88 27.06 120.78 26.99C120.67 26.93 120.67 26.86 120.57 26.8L118.84 23.69L117.09 26.8C117.09 26.86 116.99 26.93 116.89 26.99C116.79 27.06 116.68 27.06 116.58 27.06L116.07 27.06C115.97 27.06 115.86 27.06 115.76 26.99C115.66 26.93 115.66 26.86 115.55 26.8L113.31 22.45L113.31 22.39C113.31 22.32 113.31 22.26 113.41 22.26C113.51 22.19 113.61 22.19 113.61 22.19L114.13 22.19C114.23 22.19 114.43 22.19 114.43 22.26C114.53 22.32 114.53 22.39 114.64 22.39L116.27 25.57L118.01 22.39C118.01 22.32 118.12 22.26 118.12 22.26C118.21 22.19 118.32 22.19 118.42 22.19L118.73 22.19C118.84 22.19 118.94 22.19 119.04 22.26C119.14 22.32 119.14 22.39 119.14 22.39L121.39 25.57ZM126.61 21.22C126.61 21.29 126.61 21.35 126.51 21.42C126.4 21.48 126.31 21.48 126.2 21.48L125.38 21.48C125.28 21.48 125.18 21.48 125.08 21.42C124.98 21.35 124.98 21.29 124.98 21.22L124.98 20.7C124.98 20.63 124.98 20.57 125.08 20.5C125.18 20.44 125.28 20.44 125.38 20.44L126.2 20.44C126.31 20.44 126.4 20.44 126.51 20.5C126.61 20.57 126.61 20.63 126.61 20.7L126.61 21.22ZM126.51 26.86C126.51 26.93 126.51 26.99 126.4 27.06C126.31 27.13 126.2 27.13 126.1 27.13L125.59 27.13C125.49 27.13 125.38 27.13 125.28 27.06C125.18 26.99 125.18 26.93 125.18 26.86L125.18 22.45C125.18 22.39 125.18 22.32 125.28 22.26C125.38 22.19 125.49 22.19 125.59 22.19L126.1 22.19C126.2 22.19 126.31 22.19 126.4 22.26C126.51 22.32 126.51 22.39 126.51 22.45L126.51 26.86ZM134.39 26.86C134.39 26.93 134.39 26.99 134.29 27.06C134.18 27.13 134.09 27.13 133.98 27.13L133.47 27.13C133.37 27.13 133.27 27.13 133.16 27.06C133.06 26.99 133.06 26.93 133.06 26.86L133.06 24.4C133.06 23.95 132.86 23.56 132.55 23.3C132.14 23.04 131.63 22.91 131.02 22.91C130.4 22.91 129.89 23.04 129.47 23.3C129.07 23.56 128.86 23.88 128.86 24.4L128.86 26.86C128.86 26.93 128.86 26.99 128.76 27.06C128.66 27.13 128.56 27.13 128.45 27.13L127.94 27.13C127.84 27.13 127.74 27.13 127.64 27.06C127.53 26.99 127.53 26.93 127.53 26.86L127.53 22.45C127.53 22.39 127.53 22.32 127.64 22.26C127.74 22.19 127.84 22.19 127.94 22.19L128.45 22.19C128.56 22.19 128.66 22.19 128.76 22.26C128.86 22.32 128.86 22.39 128.86 22.45L128.86 22.78C129.07 22.65 129.37 22.45 129.68 22.32C130.09 22.19 130.5 22.13 131.11 22.13C131.63 22.13 132.04 22.19 132.44 22.26C132.86 22.32 133.16 22.52 133.47 22.65C133.77 22.84 133.98 23.04 134.09 23.3C134.29 23.56 134.29 23.88 134.29 24.21L134.29 26.86L134.39 26.86Z" />
	</g>
</svg>