<?xml version="1.0" encoding="UTF-8"?>
<svg xmlns="http://www.w3.org/2000/svg" xmlns:xlink="http://www.w3.org/1999/xlink" width="97pt" height="20pt" viewBox="0 0 97 20" version="1.1">
<g id="surface1">
<path style=" stroke:none;fill-rule:nonzero;fill:rgb(99.215686%,98.431373%,98.823529%);fill-opacity:1;" d="M 45.460938 2.84375 C 45.496094 3 45.535156 3.152344 45.570312 3.292969 C 45.535156 3.378906 45.535156 3.46875 45.570312 3.554688 C 45.535156 3.609375 45.496094 3.664062 45.460938 3.730469 C 45.277344 3.863281 45.078125 4.003906 44.765625 4.035156 C 43.5625 4.132812 42.339844 4.234375 41.132812 4.320312 C 39.070312 4.453125 37.007812 4.570312 34.945312 4.660156 C 32.714844 4.757812 30.472656 4.832031 28.242188 4.867188 C 25.378906 4.921875 22.511719 4.933594 19.644531 4.886719 C 17.746094 4.867188 15.847656 4.824219 13.949219 4.746094 C 13.765625 4.734375 13.710938 4.777344 13.710938 4.878906 C 13.710938 5.03125 13.691406 5.183594 13.691406 5.335938 C 13.691406 5.476562 13.582031 5.566406 13.328125 5.585938 C 12.890625 5.609375 12.542969 5.53125 12.488281 5.402344 C 12.46875 5.378906 12.488281 5.359375 12.488281 5.324219 C 12.507812 5.183594 12.507812 5.03125 12.542969 4.886719 C 12.578125 4.746094 12.507812 4.703125 12.269531 4.691406 C 9.109375 4.570312 5.96875 4.386719 2.847656 4.15625 C 2.300781 4.113281 1.714844 4.113281 1.332031 3.796875 C 1.1875 3.523438 1.316406 3.238281 1.371094 2.964844 C 1.535156 2.222656 1.808594 2.101562 3.050781 2.191406 C 6.171875 2.417969 9.292969 2.605469 12.414062 2.738281 C 12.671875 2.746094 12.796875 2.714844 12.78125 2.550781 C 12.78125 2.398438 12.796875 2.246094 12.816406 2.101562 C 12.835938 1.949219 12.960938 1.875 13.238281 1.882812 C 14.019531 1.894531 14.058594 1.917969 14.003906 2.386719 C 13.964844 2.789062 13.964844 2.800781 14.625 2.8125 C 18.878906 2.921875 23.113281 2.976562 27.367188 2.898438 C 29.960938 2.855469 32.570312 2.769531 35.164062 2.660156 C 38.15625 2.527344 41.132812 2.332031 44.089844 2.09375 C 44.875 2.027344 45.3125 2.253906 45.441406 2.800781 C 45.421875 2.8125 45.40625 2.835938 45.460938 2.84375 Z M 8.03125 2.855469 C 7.921875 2.84375 7.886719 2.867188 7.867188 2.890625 C 7.667969 3.054688 7.46875 3.21875 7.25 3.378906 C 7.175781 3.433594 7.210938 3.480469 7.25 3.535156 C 7.394531 3.699219 7.523438 3.871094 7.648438 4.046875 C 7.722656 4.132812 7.796875 4.167969 7.90625 4.070312 C 8.089844 3.914062 8.253906 3.773438 8.453125 3.632812 C 8.5625 3.554688 8.5625 3.488281 8.488281 3.402344 C 8.34375 3.25 8.234375 3.085938 8.105469 2.933594 C 8.070312 2.890625 8.050781 2.855469 8.03125 2.855469 Z M 11.28125 3.007812 C 11.226562 3.007812 11.191406 3.042969 11.15625 3.0625 C 10.972656 3.226562 10.789062 3.378906 10.589844 3.542969 C 10.496094 3.621094 10.535156 3.675781 10.589844 3.742188 C 10.734375 3.894531 10.863281 4.046875 10.992188 4.210938 C 11.0625 4.308594 11.15625 4.332031 11.265625 4.234375 C 11.390625 4.125 11.503906 4.003906 11.648438 3.90625 C 11.867188 3.761719 11.902344 3.621094 11.703125 3.457031 C 11.574219 3.347656 11.503906 3.21875 11.390625 3.097656 C 11.375 3.054688 11.355469 3.007812 11.28125 3.007812 Z M 3.597656 3.171875 C 3.523438 3.074219 3.46875 2.964844 3.359375 2.867188 C 3.25 2.746094 3.269531 2.539062 3.050781 2.527344 C 2.867188 2.519531 2.773438 2.726562 2.59375 2.8125 C 2.265625 2.988281 2.171875 3.171875 2.445312 3.402344 C 2.539062 3.480469 2.59375 3.578125 2.628906 3.664062 C 2.703125 3.796875 2.792969 3.808594 2.921875 3.699219 C 3.105469 3.554688 3.285156 3.425781 3.46875 3.28125 C 3.542969 3.261719 3.597656 3.226562 3.597656 3.171875 Z M 6.882812 3.414062 C 6.882812 3.402344 6.882812 3.390625 6.882812 3.378906 C 6.738281 3.183594 6.589844 2.988281 6.425781 2.789062 C 6.351562 2.714844 6.28125 2.757812 6.226562 2.800781 C 6.042969 2.945312 5.859375 3.097656 5.679688 3.226562 C 5.570312 3.304688 5.570312 3.371094 5.640625 3.457031 C 5.769531 3.609375 5.898438 3.773438 6.007812 3.9375 C 6.078125 4.058594 6.171875 4.046875 6.28125 3.960938 C 6.445312 3.839844 6.589844 3.707031 6.753906 3.578125 C 6.792969 3.523438 6.863281 3.480469 6.882812 3.414062 Z M 4.4375 3.894531 C 4.507812 3.894531 4.546875 3.863281 4.582031 3.828125 C 4.765625 3.699219 4.929688 3.554688 5.113281 3.433594 C 5.238281 3.347656 5.257812 3.273438 5.148438 3.164062 C 5.019531 3.019531 4.910156 2.867188 4.820312 2.714844 C 4.746094 2.59375 4.671875 2.605469 4.546875 2.691406 C 4.363281 2.84375 4.179688 3 3.980469 3.140625 C 3.890625 3.207031 3.890625 3.25 3.945312 3.316406 C 4.070312 3.46875 4.179688 3.632812 4.308594 3.796875 C 4.34375 3.839844 4.34375 3.894531 4.4375 3.894531 Z M 10.207031 3.566406 C 10.042969 3.371094 9.878906 3.164062 9.695312 2.964844 C 9.640625 2.898438 9.566406 2.945312 9.511719 2.988281 C 9.367188 3.117188 9.21875 3.25 9.054688 3.371094 C 8.871094 3.488281 8.855469 3.597656 9.019531 3.742188 C 9.148438 3.863281 9.238281 4.003906 9.328125 4.132812 C 9.402344 4.253906 9.492188 4.242188 9.601562 4.15625 C 9.785156 4.003906 9.96875 3.851562 10.152344 3.699219 C 10.167969 3.652344 10.222656 3.621094 10.207031 3.566406 Z M 10.207031 3.566406 "/>
<path style=" stroke:none;fill-rule:nonzero;fill:rgb(98.823529%,26.666667%,41.568627%);fill-opacity:1;" d="M 1.332031 3.785156 C 1.699219 4.101562 2.28125 4.101562 2.847656 4.144531 C 5.988281 4.375 9.128906 4.558594 12.269531 4.679688 C 12.507812 4.691406 12.597656 4.734375 12.542969 4.878906 C 12.507812 5.019531 12.507812 5.160156 12.488281 5.3125 C 12.488281 5.335938 12.488281 5.367188 12.488281 5.390625 C 12.542969 5.523438 12.890625 5.609375 13.328125 5.578125 C 13.566406 5.566406 13.675781 5.46875 13.691406 5.324219 C 13.691406 5.171875 13.710938 5.019531 13.710938 4.867188 C 13.710938 4.769531 13.765625 4.734375 13.949219 4.734375 C 15.847656 4.8125 17.746094 4.855469 19.644531 4.878906 C 22.511719 4.921875 25.378906 4.910156 28.242188 4.855469 C 30.472656 4.8125 32.714844 4.746094 34.945312 4.648438 C 37.007812 4.550781 39.070312 4.441406 41.132812 4.308594 C 42.355469 4.234375 43.5625 4.125 44.765625 4.023438 C 45.078125 4.003906 45.257812 3.863281 45.460938 3.71875 C 45.535156 3.863281 45.550781 4.015625 45.570312 4.167969 C 45.589844 4.503906 45.222656 4.777344 44.65625 4.824219 C 43.671875 4.898438 42.683594 4.976562 41.699219 5.042969 C 38.871094 5.238281 36.039062 5.390625 33.210938 5.5 C 30.34375 5.609375 27.496094 5.675781 24.628906 5.683594 C 22.695312 5.695312 20.757812 5.683594 18.824219 5.664062 C 17.234375 5.640625 15.644531 5.609375 14.058594 5.53125 C 13.800781 5.523438 13.710938 5.566406 13.730469 5.730469 C 13.746094 5.871094 13.710938 6.003906 13.691406 6.144531 C 13.675781 6.285156 13.546875 6.363281 13.292969 6.363281 C 12.507812 6.375 12.453125 6.339844 12.46875 5.871094 C 12.488281 5.476562 12.488281 5.488281 11.8125 5.457031 C 9.65625 5.367188 7.503906 5.257812 5.347656 5.105469 C 4.289062 5.03125 3.214844 4.953125 2.15625 4.878906 C 1.480469 4.824219 1.113281 4.527344 1.203125 4.125 C 1.296875 4.023438 1.316406 3.90625 1.332031 3.785156 Z M 1.332031 3.785156 "/>
<path style=" stroke:none;fill-rule:nonzero;fill:rgb(98.823529%,26.666667%,41.568627%);fill-opacity:1;" d="M 45.589844 3.566406 C 45.550781 3.480469 45.550781 3.390625 45.589844 3.304688 C 45.679688 3.378906 45.625 3.480469 45.625 3.554688 C 45.625 3.554688 45.625 3.566406 45.605469 3.566406 C 45.605469 3.578125 45.589844 3.566406 45.589844 3.566406 Z M 45.589844 3.566406 "/>
<path style=" stroke:none;fill-rule:nonzero;fill:rgb(98.823529%,26.666667%,41.568627%);fill-opacity:1;" d="M 45.460938 2.84375 C 45.40625 2.824219 45.40625 2.800781 45.441406 2.78125 C 45.535156 2.800781 45.535156 2.824219 45.460938 2.84375 Z M 45.460938 2.84375 "/>
<path style=" stroke:none;fill-rule:nonzero;fill:rgb(98.823529%,26.666667%,41.568627%);fill-opacity:1;" d="M 8.03125 2.855469 C 8.050781 2.855469 8.070312 2.890625 8.105469 2.921875 C 8.234375 3.085938 8.34375 3.238281 8.488281 3.390625 C 8.5625 3.480469 8.5625 3.542969 8.453125 3.621094 C 8.269531 3.761719 8.089844 3.914062 7.90625 4.058594 C 7.796875 4.15625 7.722656 4.125 7.648438 4.035156 C 7.523438 3.863281 7.375 3.699219 7.25 3.523438 C 7.210938 3.46875 7.175781 3.425781 7.25 3.371094 C 7.449219 3.207031 7.648438 3.042969 7.867188 2.878906 C 7.886719 2.867188 7.921875 2.84375 8.03125 2.855469 Z M 8.03125 2.855469 "/>
<path style=" stroke:none;fill-rule:nonzero;fill:rgb(98.823529%,26.666667%,41.568627%);fill-opacity:1;" d="M 11.28125 3.007812 C 11.375 3.007812 11.390625 3.054688 11.410156 3.097656 C 11.503906 3.21875 11.59375 3.347656 11.722656 3.457031 C 11.921875 3.621094 11.867188 3.761719 11.667969 3.90625 C 11.519531 4.003906 11.410156 4.125 11.28125 4.234375 C 11.171875 4.34375 11.101562 4.320312 11.007812 4.210938 C 10.882812 4.058594 10.753906 3.894531 10.605469 3.742188 C 10.550781 3.675781 10.515625 3.609375 10.605469 3.542969 C 10.789062 3.390625 10.972656 3.226562 11.171875 3.0625 C 11.191406 3.03125 11.210938 3.007812 11.28125 3.007812 Z M 11.28125 3.007812 "/>
<path style=" stroke:none;fill-rule:nonzero;fill:rgb(98.823529%,26.666667%,41.568627%);fill-opacity:1;" d="M 3.597656 3.171875 C 3.597656 3.238281 3.542969 3.261719 3.503906 3.292969 C 3.324219 3.433594 3.140625 3.566406 2.957031 3.707031 C 2.8125 3.816406 2.738281 3.808594 2.664062 3.675781 C 2.609375 3.589844 2.574219 3.488281 2.484375 3.414062 C 2.191406 3.183594 2.300781 3 2.628906 2.824219 C 2.792969 2.738281 2.882812 2.527344 3.085938 2.539062 C 3.304688 2.550781 3.285156 2.769531 3.394531 2.878906 C 3.449219 2.964844 3.523438 3.074219 3.597656 3.171875 Z M 3.597656 3.171875 "/>
<path style=" stroke:none;fill-rule:nonzero;fill:rgb(98.823529%,26.666667%,41.568627%);fill-opacity:1;" d="M 6.882812 3.414062 C 6.863281 3.480469 6.773438 3.523438 6.71875 3.578125 C 6.574219 3.707031 6.410156 3.828125 6.242188 3.960938 C 6.132812 4.046875 6.0625 4.058594 5.96875 3.9375 C 5.859375 3.773438 5.734375 3.621094 5.605469 3.457031 C 5.53125 3.371094 5.550781 3.304688 5.640625 3.226562 C 5.824219 3.085938 6.007812 2.945312 6.1875 2.800781 C 6.242188 2.757812 6.335938 2.703125 6.390625 2.789062 C 6.554688 2.988281 6.699219 3.183594 6.847656 3.378906 C 6.882812 3.378906 6.882812 3.402344 6.882812 3.414062 Z M 6.882812 3.414062 "/>
<path style=" stroke:none;fill-rule:nonzero;fill:rgb(98.823529%,26.666667%,41.568627%);fill-opacity:1;" d="M 4.4375 3.894531 C 4.34375 3.882812 4.34375 3.839844 4.308594 3.808594 C 4.179688 3.644531 4.070312 3.488281 3.945312 3.328125 C 3.890625 3.261719 3.890625 3.207031 3.980469 3.152344 C 4.179688 3.007812 4.363281 2.855469 4.546875 2.703125 C 4.65625 2.617188 4.730469 2.605469 4.820312 2.726562 C 4.929688 2.878906 5.019531 3.03125 5.148438 3.171875 C 5.238281 3.28125 5.238281 3.359375 5.113281 3.445312 C 4.929688 3.578125 4.765625 3.707031 4.582031 3.839844 C 4.546875 3.863281 4.507812 3.894531 4.4375 3.894531 Z M 4.4375 3.894531 "/>
<path style=" stroke:none;fill-rule:nonzero;fill:rgb(98.823529%,26.666667%,41.568627%);fill-opacity:1;" d="M 10.207031 3.566406 C 10.222656 3.621094 10.1875 3.652344 10.152344 3.675781 C 9.96875 3.828125 9.785156 3.980469 9.601562 4.132812 C 9.492188 4.222656 9.421875 4.234375 9.328125 4.113281 C 9.238281 3.980469 9.148438 3.839844 9.019531 3.71875 C 8.871094 3.578125 8.871094 3.480469 9.054688 3.347656 C 9.238281 3.226562 9.367188 3.097656 9.511719 2.964844 C 9.566406 2.921875 9.640625 2.878906 9.695312 2.945312 C 9.878906 3.164062 10.042969 3.371094 10.207031 3.566406 Z M 10.207031 3.566406 "/>
<path style=" stroke:none;fill-rule:nonzero;fill:rgb(98.823529%,26.666667%,41.568627%);fill-opacity:1;" d="M 96.015625 13.375 C 96.324219 13.351562 96.597656 13.242188 96.652344 13.058594 C 96.855469 12.480469 97.019531 11.902344 97.183594 11.320312 C 97.238281 11.101562 96.945312 10.753906 96.507812 10.730469 C 96.433594 10.730469 96.359375 10.710938 96.34375 10.65625 C 96.324219 10.511719 96.160156 10.523438 95.996094 10.523438 C 94.117188 10.523438 92.253906 10.523438 90.371094 10.523438 C 90.136719 10.523438 89.878906 10.480469 89.789062 10.6875 C 89.789062 10.710938 89.714844 10.722656 89.660156 10.730469 C 89.277344 10.820312 89.039062 10.972656 89.003906 11.222656 C 89.003906 11.265625 88.96875 11.332031 88.894531 11.300781 C 88.710938 11.222656 88.457031 11.234375 88.328125 11.136719 C 88.199219 11.039062 88.074219 11.039062 87.90625 11.039062 C 86.957031 11.039062 86.007812 11.039062 85.058594 11.039062 C 84.894531 11.039062 84.769531 11.015625 84.695312 10.917969 C 84.53125 10.6875 84.019531 10.667969 83.820312 10.449219 C 83.800781 10.4375 83.761719 10.4375 83.726562 10.425781 C 82.921875 10.273438 82.121094 10.121094 81.316406 9.976562 C 81.226562 9.957031 81.117188 9.902344 81.023438 9.988281 C 81.007812 10 80.988281 10.023438 80.96875 10.03125 C 80.878906 10.066406 80.84375 10.132812 80.734375 10.152344 C 80.460938 10.207031 80.292969 10.339844 80.167969 10.492188 C 80.058594 10.613281 79.949219 10.722656 79.875 10.851562 C 79.785156 10.992188 79.636719 11.039062 79.382812 11.039062 C 78.269531 11.027344 77.15625 11.039062 76.039062 11.039062 C 75.929688 11.039062 75.765625 11.015625 75.730469 11.070312 C 75.65625 11.210938 75.4375 11.234375 75.253906 11.300781 C 75.054688 11.375 74.890625 11.472656 74.855469 11.628906 C 74.855469 11.660156 74.835938 11.703125 74.761719 11.714844 C 74.671875 11.726562 74.652344 11.671875 74.636719 11.636719 C 74.398438 11.257812 73.90625 11.015625 73.375 10.796875 C 73.339844 10.777344 73.300781 10.765625 73.265625 10.742188 C 72.972656 10.578125 72.625 10.535156 72.242188 10.535156 C 69.101562 10.535156 65.945312 10.535156 62.804688 10.535156 C 62.53125 10.535156 62.21875 10.480469 62.09375 10.710938 C 62.074219 10.730469 61.984375 10.742188 61.929688 10.753906 C 61.746094 10.808594 61.597656 10.882812 61.472656 10.984375 C 61.34375 11.101562 61.308594 11.234375 61.269531 11.375 C 61.253906 11.429688 61.179688 11.539062 61.105469 11.453125 C 60.925781 11.257812 60.613281 11.15625 60.304688 11.058594 C 60.265625 10.949219 60.121094 10.972656 59.992188 10.972656 C 59.464844 10.972656 58.914062 10.972656 58.386719 10.972656 C 57.746094 10.972656 57.109375 10.949219 56.488281 10.984375 C 56.488281 10.984375 56.46875 10.972656 56.46875 10.972656 C 56.46875 10.972656 56.449219 10.972656 56.449219 10.984375 C 56.378906 11.039062 56.359375 11.125 56.214844 11.136719 C 55.664062 11.203125 55.539062 11.453125 55.539062 11.738281 C 55.539062 13.222656 55.539062 14.695312 55.539062 16.183594 C 55.539062 16.3125 55.464844 16.367188 55.28125 16.390625 C 54.699219 16.390625 54.132812 16.390625 53.546875 16.390625 C 53.347656 16.335938 53.382812 16.238281 53.382812 16.136719 C 53.382812 14.652344 53.382812 13.167969 53.382812 11.691406 C 53.382812 11.496094 53.3125 11.3125 53.019531 11.203125 C 52.816406 11.125 52.5625 11.09375 52.398438 10.972656 C 52.324219 10.972656 52.269531 10.972656 52.195312 10.972656 C 52.179688 10.960938 52.140625 10.949219 52.125 10.949219 C 50.753906 10.949219 49.367188 10.949219 47.996094 10.949219 C 47.980469 10.949219 47.941406 10.960938 47.925781 10.972656 C 47.871094 10.972656 47.796875 10.972656 47.742188 10.972656 C 47.722656 10.949219 47.707031 10.960938 47.6875 10.972656 C 47.6875 10.972656 47.6875 10.984375 47.6875 10.992188 C 47.6875 10.992188 47.707031 10.992188 47.707031 11.003906 C 47.707031 11.003906 47.6875 11.003906 47.6875 10.992188 C 47.652344 11.027344 47.613281 11.070312 47.578125 11.101562 C 47.230469 11.15625 46.902344 11.246094 46.828125 11.484375 C 46.828125 11.507812 46.792969 11.527344 46.757812 11.527344 C 46.703125 11.527344 46.683594 11.496094 46.664062 11.464844 C 46.574219 11.265625 46.355469 11.15625 46.042969 11.113281 C 45.972656 11.101562 45.917969 11.082031 45.898438 11.039062 C 45.863281 10.929688 45.753906 10.929688 45.605469 10.929688 C 44.128906 10.929688 42.667969 10.929688 41.1875 10.9375 C 41.097656 10.9375 41.003906 10.917969 40.933594 10.972656 C 40.859375 10.984375 40.804688 11.015625 40.769531 11.046875 C 40.714844 11.039062 40.714844 11.058594 40.730469 11.082031 C 40.714844 11.101562 40.675781 11.113281 40.660156 11.136719 C 40.3125 11.15625 40.148438 11.300781 39.984375 11.464844 C 39.070312 12.457031 38.15625 13.453125 37.246094 14.445312 C 37.191406 14.5 37.171875 14.578125 37.0625 14.578125 C 36.933594 14.578125 36.933594 14.5 36.878906 14.445312 C 35.984375 13.460938 35.089844 12.46875 34.195312 11.484375 C 34.050781 11.320312 33.832031 11.210938 33.519531 11.179688 C 33.429688 11.113281 33.410156 11.015625 33.226562 11.003906 C 33.210938 10.992188 33.210938 10.984375 33.191406 10.984375 C 31.675781 10.984375 30.179688 10.984375 28.664062 10.984375 C 28.644531 10.984375 28.644531 10.992188 28.628906 11.003906 C 28.445312 11.015625 28.40625 11.125 28.316406 11.191406 C 28.007812 11.222656 27.824219 11.34375 27.679688 11.496094 C 27.457031 11.746094 27.238281 12 27.019531 12.25 C 26.984375 12.292969 26.964844 12.371094 26.839844 12.347656 C 26.746094 12.328125 26.800781 12.261719 26.820312 12.21875 C 26.855469 12.097656 26.894531 11.964844 26.929688 11.847656 C 27.019531 11.527344 26.800781 11.3125 26.308594 11.222656 C 26.21875 11.210938 26.125 11.203125 26.089844 11.148438 C 26.015625 11.058594 25.90625 11.070312 25.777344 11.070312 C 24.828125 11.070312 23.898438 11.070312 22.949219 11.070312 C 22.710938 11.070312 22.546875 11.046875 22.4375 10.90625 C 22.347656 10.796875 22.164062 10.730469 21.964844 10.6875 C 21.871094 10.667969 21.78125 10.644531 21.746094 10.578125 C 21.707031 10.492188 21.578125 10.480469 21.46875 10.457031 C 20.738281 10.328125 20.027344 10.1875 19.296875 10.054688 C 19.042969 10.011719 18.785156 9.921875 18.640625 10.140625 C 18.621094 10.164062 18.550781 10.1875 18.496094 10.195312 C 18.3125 10.242188 18.164062 10.316406 18.074219 10.425781 C 17.929688 10.578125 17.78125 10.730469 17.671875 10.894531 C 17.582031 11.039062 17.433594 11.082031 17.179688 11.082031 C 16.066406 11.070312 14.953125 11.082031 13.839844 11.082031 C 13.730469 11.082031 13.566406 11.058594 13.527344 11.113281 C 13.4375 11.265625 13.179688 11.289062 13 11.367188 C 12.816406 11.453125 12.6875 11.550781 12.652344 11.691406 C 12.488281 12.25 12.453125 12.808594 12.378906 13.375 C 12.324219 13.757812 12.726562 13.988281 13.363281 13.988281 C 13.855469 13.988281 14.332031 13.988281 14.824219 13.988281 C 15.136719 13.988281 15.152344 14.007812 15.007812 14.171875 C 14.203125 15.121094 13.402344 16.074219 12.597656 17.023438 C 12.5625 17.066406 12.523438 17.109375 12.488281 17.15625 C 12.46875 17.175781 12.433594 17.210938 12.378906 17.199219 C 12.34375 17.1875 12.324219 17.164062 12.324219 17.144531 C 12.285156 17.035156 12.25 16.925781 12.195312 16.828125 C 12.03125 16.476562 11.757812 16.171875 11.171875 15.996094 C 11.15625 15.976562 11.136719 15.964844 11.117188 15.941406 C 11.046875 15.886719 10.972656 15.832031 10.863281 15.8125 C 10.84375 15.800781 10.828125 15.789062 10.808594 15.777344 C 10.644531 15.613281 10.425781 15.503906 10.152344 15.40625 C 10.152344 15.375 10.132812 15.363281 10.097656 15.375 C 10.097656 15.351562 10.078125 15.339844 10.042969 15.339844 C 10.042969 15.320312 10.023438 15.308594 9.988281 15.308594 C 9.988281 15.285156 9.96875 15.277344 9.933594 15.277344 C 9.933594 15.253906 9.914062 15.242188 9.878906 15.242188 C 9.765625 15.132812 9.621094 15.046875 9.4375 14.992188 C 9.4375 14.96875 9.421875 14.957031 9.382812 14.957031 L 9.402344 14.949219 C 9.402344 14.949219 9.382812 14.957031 9.382812 14.957031 C 9.3125 14.882812 9.21875 14.828125 9.09375 14.796875 C 9.09375 14.785156 9.074219 14.773438 9.054688 14.773438 C 8.964844 14.664062 8.816406 14.585938 8.636719 14.542969 C 8.636719 14.511719 8.617188 14.5 8.582031 14.511719 C 8.582031 14.476562 8.5625 14.46875 8.507812 14.476562 C 8.253906 14.28125 7.941406 14.117188 7.59375 13.976562 C 7.59375 13.933594 7.539062 13.910156 7.46875 13.898438 C 7.339844 13.777344 7.191406 13.691406 6.972656 13.625 C 6.972656 13.625 6.957031 13.625 6.957031 13.625 C 6.957031 13.59375 6.9375 13.5625 6.957031 13.539062 C 7.082031 13.453125 7.648438 13.507812 7.722656 13.617188 C 7.921875 13.878906 8.289062 13.988281 8.707031 13.941406 C 9.601562 13.867188 10.480469 13.777344 11.355469 13.648438 C 11.867188 13.570312 12.121094 13.320312 12.105469 13.003906 C 12.066406 12.699219 11.941406 12.390625 11.8125 12.097656 C 11.613281 11.660156 11.226562 11.289062 10.550781 11.058594 C 10.152344 10.820312 9.695312 10.632812 9.128906 10.632812 C 6.71875 10.621094 4.289062 10.632812 1.878906 10.632812 C 1.699219 10.632812 1.589844 10.667969 1.550781 10.777344 C 1.078125 10.839844 0.820312 11.003906 0.730469 11.3125 C 0.601562 11.78125 0.4375 12.238281 0.238281 12.699219 C 0.128906 12.972656 0.199219 13.191406 0.53125 13.375 C 0.65625 13.441406 0.675781 13.496094 0.65625 13.59375 C 0.601562 13.789062 0.65625 13.964844 0.929688 14.105469 C 1.824219 14.554688 2.628906 15.035156 3.488281 15.503906 C 4.21875 15.898438 4.929688 16.300781 5.660156 16.695312 C 5.714844 16.726562 5.804688 16.75 5.769531 16.816406 C 5.734375 16.859375 5.640625 16.847656 5.585938 16.847656 C 5.421875 16.847656 5.238281 16.847656 5.074219 16.847656 C 4.929688 16.847656 4.855469 16.828125 4.820312 16.726562 C 4.746094 16.566406 4.546875 16.464844 4.289062 16.410156 C 4.21875 16.402344 4.109375 16.402344 4.089844 16.347656 C 4.035156 16.191406 3.890625 16.226562 3.722656 16.257812 C 2.976562 16.402344 2.226562 16.542969 1.480469 16.695312 C 1.371094 16.71875 1.242188 16.726562 1.203125 16.792969 C 1.167969 16.882812 1.058594 16.890625 0.949219 16.925781 C 0.546875 17.023438 0.273438 17.328125 0.363281 17.558594 C 0.566406 18.050781 0.839844 18.53125 1.351562 18.957031 C 1.917969 19.414062 2.628906 19.765625 3.632812 19.785156 C 5.277344 19.808594 6.9375 19.808594 8.582031 19.785156 C 9.476562 19.777344 10.332031 19.667969 11.0625 19.339844 C 11.300781 19.230469 11.464844 19.207031 11.703125 19.339844 C 11.8125 19.394531 11.996094 19.414062 12.160156 19.4375 C 13.070312 19.578125 13.984375 19.722656 14.878906 19.863281 C 15.371094 19.941406 15.757812 19.875 16.03125 19.601562 C 16.230469 19.40625 16.414062 19.1875 16.578125 18.980469 C 16.667969 18.859375 16.761719 18.835938 16.941406 18.933594 C 17.324219 19.152344 17.726562 19.351562 18.109375 19.570312 C 18.585938 19.832031 19.171875 19.839844 19.664062 19.589844 C 20.429688 19.195312 21.214844 18.816406 22 18.421875 C 22.183594 18.324219 22.253906 18.324219 22.382812 18.464844 C 22.710938 18.871094 22.949219 19.296875 23.351562 19.675781 C 23.570312 19.875 23.933594 19.960938 24.320312 19.90625 C 25.324219 19.742188 26.308594 19.601562 27.292969 19.414062 C 27.605469 19.359375 27.824219 19.285156 27.914062 19.535156 C 27.933594 19.578125 28.007812 19.613281 28.078125 19.644531 C 28.335938 19.765625 28.664062 19.785156 28.972656 19.785156 C 29.976562 19.796875 31 19.785156 32.003906 19.785156 C 32.84375 19.785156 33.191406 19.578125 33.191406 19.078125 C 33.191406 18.433594 33.191406 17.789062 33.191406 17.15625 C 33.191406 17.101562 33.136719 17.035156 33.265625 17.011719 C 33.375 17 33.390625 17.078125 33.445312 17.121094 C 33.941406 17.644531 34.433594 18.160156 34.945312 18.683594 C 35.21875 18.96875 35.457031 19.261719 35.785156 19.523438 C 36.039062 19.730469 36.367188 19.839844 36.789062 19.832031 C 37.246094 19.820312 37.699219 19.796875 38.15625 19.796875 C 38.777344 19.808594 39.199219 19.632812 39.472656 19.316406 C 40 18.726562 40.53125 18.125 41.058594 17.535156 C 41.113281 17.480469 41.113281 17.382812 41.261719 17.40625 C 41.371094 17.425781 41.316406 17.515625 41.316406 17.570312 C 41.316406 18.160156 41.28125 18.75 41.351562 19.328125 C 41.390625 19.621094 41.664062 19.808594 42.136719 19.808594 C 43.453125 19.820312 44.765625 19.820312 46.082031 19.808594 C 46.519531 19.808594 46.773438 19.644531 46.867188 19.382812 C 46.902344 19.285156 46.902344 19.1875 46.902344 19.097656 C 46.902344 17.65625 46.902344 16.214844 46.902344 14.773438 C 46.902344 14.335938 46.773438 14.390625 47.558594 14.378906 C 47.832031 14.378906 47.925781 14.421875 47.925781 14.597656 C 47.90625 16.105469 47.925781 17.601562 47.925781 19.109375 C 47.925781 19.578125 48.289062 19.796875 49.074219 19.796875 C 52.800781 19.796875 56.503906 19.796875 60.230469 19.796875 C 60.996094 19.796875 61.378906 19.558594 61.378906 19.097656 C 61.378906 18.628906 61.378906 18.148438 61.378906 17.679688 C 61.378906 17.636719 61.34375 17.570312 61.433594 17.558594 C 61.527344 17.546875 61.542969 17.613281 61.582031 17.65625 C 61.691406 17.765625 61.746094 17.875 61.726562 17.996094 C 61.710938 18.367188 61.710938 18.738281 61.726562 19.097656 C 61.726562 19.492188 62.128906 19.753906 62.730469 19.753906 C 63.679688 19.753906 64.613281 19.753906 65.5625 19.742188 C 65.816406 19.742188 66.074219 19.710938 66.292969 19.644531 C 66.710938 19.515625 66.785156 19.285156 66.785156 19.03125 C 66.785156 18.574219 66.804688 18.117188 66.785156 17.65625 C 66.785156 17.449219 67.058594 17.449219 67.257812 17.394531 C 67.476562 17.339844 67.496094 17.449219 67.570312 17.515625 C 68.042969 17.941406 68.554688 18.34375 69.15625 18.707031 C 69.941406 19.1875 70.800781 19.613281 71.914062 19.785156 C 72.644531 19.90625 73.410156 19.949219 74.160156 20.015625 C 74.542969 20.050781 74.925781 19.941406 75.109375 19.710938 C 75.199219 19.589844 75.3125 19.578125 75.476562 19.613281 C 76.039062 19.699219 76.589844 19.777344 77.15625 19.863281 C 77.757812 19.949219 78.140625 19.863281 78.433594 19.523438 C 78.597656 19.351562 78.742188 19.175781 78.890625 18.988281 C 79 18.859375 79.089844 18.871094 79.253906 18.957031 C 79.675781 19.1875 80.074219 19.40625 80.496094 19.621094 C 80.933594 19.851562 81.425781 19.863281 81.863281 19.644531 C 82.667969 19.25 83.472656 18.859375 84.273438 18.441406 C 84.492188 18.335938 84.585938 18.34375 84.695312 18.496094 C 84.96875 18.871094 85.261719 19.230469 85.535156 19.601562 C 85.699219 19.820312 86.246094 19.996094 86.667969 19.917969 C 87.34375 19.796875 88.035156 19.699219 88.710938 19.578125 C 88.839844 19.558594 88.949219 19.535156 89.039062 19.613281 C 89.222656 19.742188 89.476562 19.765625 89.734375 19.765625 C 91.816406 19.765625 93.914062 19.765625 95.996094 19.765625 C 96.5625 19.765625 96.964844 19.546875 97.019531 19.21875 C 97.089844 18.726562 97.128906 18.226562 97.183594 17.734375 C 97.199219 17.535156 97.109375 17.351562 96.816406 17.21875 C 96.636719 17.144531 96.34375 17.144531 96.289062 16.96875 C 96.289062 16.957031 96.214844 16.945312 96.179688 16.945312 C 95.90625 16.96875 95.886719 16.871094 95.886719 16.75 C 95.886719 15.734375 95.886719 14.730469 95.886719 13.714844 C 95.703125 13.472656 95.777344 13.398438 96.015625 13.375 Z M 18.273438 16.792969 C 18.714844 16.28125 19.152344 15.765625 19.589844 15.253906 C 19.625 15.210938 19.644531 15.132812 19.753906 15.144531 C 19.84375 15.15625 19.863281 15.210938 19.882812 15.253906 C 20.046875 15.484375 20.210938 15.710938 20.375 15.929688 C 20.027344 16.039062 19.734375 16.203125 19.445312 16.347656 C 19.042969 16.542969 18.660156 16.761719 18.21875 16.9375 C 18.203125 16.882812 18.238281 16.835938 18.273438 16.792969 Z M 17.472656 17.328125 C 17.363281 17.371094 17.269531 17.425781 17.160156 17.472656 C 17.269531 17.425781 17.378906 17.371094 17.472656 17.328125 Z M 27.660156 18.136719 C 27.660156 18.160156 27.640625 18.179688 27.621094 18.226562 C 27.441406 18.125 27.402344 18.007812 27.332031 17.898438 C 26.65625 17.011719 26 16.136719 25.339844 15.253906 C 25.046875 14.871094 24.773438 14.488281 24.484375 14.117188 C 24.410156 14.007812 24.445312 13.976562 24.628906 13.976562 C 25.121094 13.976562 25.613281 14.019531 26.089844 13.886719 C 26.144531 13.867188 26.199219 13.898438 26.253906 13.921875 C 26.601562 14.074219 26.964844 14.0625 27.332031 13.953125 C 27.585938 13.878906 27.695312 13.921875 27.695312 14.085938 C 27.714844 15.429688 27.621094 16.78125 27.660156 18.136719 Z M 89.84375 16.945312 Z M 81.917969 16.246094 C 81.410156 16.488281 80.953125 16.761719 80.402344 16.980469 C 80.421875 16.847656 80.585938 16.75 80.679688 16.640625 C 81.078125 16.160156 81.480469 15.691406 81.882812 15.222656 C 81.917969 15.1875 81.917969 15.132812 82.011719 15.121094 C 82.101562 15.121094 82.101562 15.175781 82.140625 15.210938 C 82.285156 15.460938 82.539062 15.679688 82.648438 15.941406 C 82.359375 16.007812 82.15625 16.136719 81.917969 16.246094 Z M 74.761719 14.019531 C 74.78125 13.8125 74.761719 13.8125 75.074219 13.898438 C 75.238281 13.941406 75.402344 13.953125 75.585938 13.953125 C 76.09375 13.953125 76.589844 13.953125 77.101562 13.953125 C 77.320312 13.953125 77.390625 13.976562 77.28125 14.117188 C 76.460938 15.066406 75.65625 16.03125 74.855469 16.980469 C 74.78125 17.066406 74.707031 17.175781 74.472656 17.121094 C 74.398438 17.296875 74.378906 17.480469 74.359375 17.65625 C 74.378906 17.480469 74.398438 17.296875 74.472656 17.121094 C 74.472656 17.011719 74.359375 16.96875 74.195312 16.957031 C 73.574219 16.890625 72.992188 16.792969 72.460938 16.566406 C 72.351562 16.519531 72.261719 16.464844 72.171875 16.410156 C 72.132812 16.410156 72.117188 16.402344 72.117188 16.378906 C 72.132812 16.390625 72.152344 16.402344 72.171875 16.410156 C 72.152344 16.402344 72.132812 16.378906 72.097656 16.367188 C 71.96875 16.238281 72.0625 16.171875 72.28125 16.117188 C 72.609375 16.03125 72.9375 15.929688 73.246094 15.8125 C 74.289062 15.375 74.691406 14.742188 74.761719 14.019531 Z M 66.621094 13.5625 C 66.621094 13.472656 66.691406 13.460938 66.820312 13.460938 C 67.734375 13.460938 68.628906 13.460938 69.542969 13.460938 C 69.6875 13.460938 69.742188 13.507812 69.722656 13.582031 C 69.722656 13.636719 69.722656 13.691406 69.722656 13.746094 C 69.871094 13.714844 69.996094 13.679688 70.089844 13.636719 C 69.980469 13.679688 69.851562 13.726562 69.722656 13.746094 C 69.101562 13.933594 68.425781 14.019531 67.769531 14.152344 C 67.40625 14.226562 67.039062 14.324219 66.65625 14.359375 C 66.636719 14.085938 66.621094 13.824219 66.621094 13.5625 Z M 61.269531 15.539062 C 61.214844 15.496094 61.199219 15.441406 61.199219 15.386719 C 61.199219 14.796875 61.199219 14.195312 61.214844 13.605469 C 61.214844 13.539062 61.144531 13.429688 61.363281 13.429688 C 61.5625 13.441406 61.597656 13.515625 61.582031 13.625 C 61.5625 14.117188 61.5625 14.609375 61.5625 15.101562 C 61.5625 15.210938 61.582031 15.320312 61.582031 15.429688 C 61.507812 15.484375 61.398438 15.527344 61.269531 15.539062 C 61.234375 15.582031 61.214844 15.613281 61.214844 15.65625 C 61.214844 15.613281 61.253906 15.582031 61.269531 15.539062 Z M 88.929688 17.054688 C 88.199219 16.09375 87.46875 15.121094 86.738281 14.160156 C 86.613281 13.996094 86.628906 13.988281 86.941406 13.976562 C 87.269531 13.976562 87.597656 13.988281 87.945312 13.953125 C 88.382812 13.898438 88.582031 13.769531 88.675781 13.515625 C 88.675781 13.496094 88.675781 13.484375 88.691406 13.460938 C 88.730469 13.375 88.710938 13.242188 88.800781 13.210938 C 88.96875 13.144531 89.023438 13.296875 89.148438 13.332031 C 89.441406 13.398438 89.734375 13.429688 90.042969 13.40625 C 90.28125 13.398438 90.371094 13.441406 90.355469 13.59375 C 90.335938 14.632812 90.335938 15.667969 90.355469 16.695312 C 90.355469 16.804688 90.300781 16.847656 90.117188 16.847656 C 90.0625 16.847656 89.972656 16.816406 89.933594 16.871094 C 89.898438 16.882812 89.878906 16.890625 89.84375 16.902344 C 89.789062 16.902344 89.769531 16.925781 89.789062 16.945312 C 89.789062 16.96875 89.789062 16.992188 89.769531 17.011719 C 89.640625 17.054688 89.476562 17.054688 89.351562 17.121094 C 89.148438 17.261719 89.039062 17.199219 88.929688 17.054688 Z M 88.929688 17.054688 "/>
<path style=" stroke:none;fill-rule:nonzero;fill:rgb(98.823529%,26.666667%,41.568627%);fill-opacity:1;" d="M 60.613281 2.890625 C 60.777344 2.921875 60.832031 2.964844 60.832031 3.074219 C 60.832031 4.144531 60.832031 5.203125 60.832031 6.273438 C 60.832031 6.429688 60.8125 6.59375 60.796875 6.746094 C 60.796875 6.820312 60.742188 6.886719 60.613281 6.917969 C 60.285156 7.019531 60.15625 7.203125 60.15625 7.398438 C 60.140625 7.847656 60.140625 8.296875 60.15625 8.742188 C 60.175781 9.050781 60.429688 9.234375 60.941406 9.269531 C 61.507812 9.3125 62.09375 9.277344 62.660156 9.222656 C 63.078125 9.179688 63.515625 9.136719 63.898438 9.007812 C 64.738281 8.734375 65.050781 8.261719 65.25 7.75 C 65.398438 7.378906 65.304688 6.996094 65.324219 6.625 C 65.324219 6.527344 65.269531 6.394531 65.34375 6.320312 C 65.453125 6.210938 65.652344 6.320312 65.816406 6.308594 C 67.1875 6.296875 68.554688 6.308594 69.925781 6.296875 C 71.367188 6.285156 72.1875 5.75 72.242188 4.933594 C 72.296875 3.9375 72.28125 2.933594 72.261719 1.929688 C 72.242188 1.4375 71.96875 0.988281 71.277344 0.683594 C 70.875 0.300781 70.308594 0.136719 69.578125 0.136719 C 66.984375 0.136719 64.375 0.136719 61.78125 0.136719 C 61.488281 0.136719 61.289062 0.167969 61.253906 0.367188 C 60.871094 0.441406 60.648438 0.605469 60.578125 0.847656 C 60.429688 1.316406 60.25 1.785156 60.066406 2.246094 C 59.917969 2.605469 60.046875 2.78125 60.613281 2.890625 Z M 67.296875 2.945312 C 67.585938 2.933594 67.714844 2.976562 67.660156 3.164062 C 67.640625 3.21875 67.660156 3.28125 67.640625 3.335938 C 67.714844 3.347656 67.769531 3.359375 67.84375 3.359375 C 67.769531 3.359375 67.714844 3.359375 67.640625 3.335938 C 66.839844 3.371094 66.035156 3.371094 65.234375 3.328125 C 65.214844 2.945312 65.214844 2.945312 65.871094 2.945312 C 66.347656 2.945312 66.820312 2.953125 67.296875 2.945312 Z M 67.296875 2.945312 "/>
<path style=" stroke:none;fill-rule:nonzero;fill:rgb(98.823529%,26.666667%,41.568627%);fill-opacity:1;" d="M 47.925781 3.273438 C 47.925781 3.433594 48.199219 3.511719 48.382812 3.609375 C 49.695312 4.332031 50.992188 5.0625 52.304688 5.785156 C 52.5625 5.925781 52.816406 6.066406 53.054688 6.210938 C 53.128906 6.242188 53.257812 6.320312 53.054688 6.328125 C 52.726562 6.351562 52.378906 6.328125 52.050781 6.328125 C 52.015625 6.328125 51.941406 6.285156 51.921875 6.265625 C 51.832031 6.113281 51.632812 6.023438 51.375 5.96875 C 51.320312 5.957031 51.246094 5.925781 51.246094 5.894531 C 51.210938 5.632812 50.972656 5.730469 50.738281 5.773438 C 50.625 5.792969 50.5 5.816406 50.390625 5.839844 C 49.824219 5.957031 49.222656 6.035156 48.65625 6.199219 C 48.472656 6.222656 48.273438 6.230469 48.328125 6.394531 C 48.308594 6.449219 48.234375 6.472656 48.164062 6.484375 C 47.722656 6.582031 47.558594 6.746094 47.597656 7.027344 C 47.613281 7.148438 47.6875 7.269531 47.761719 7.378906 C 48.035156 7.859375 48.363281 8.328125 48.984375 8.699219 C 49.566406 9.039062 50.226562 9.234375 51.082031 9.222656 C 51.976562 9.203125 52.890625 9.234375 53.785156 9.222656 C 54.824219 9.214844 55.867188 9.289062 56.890625 9.117188 C 57.746094 8.972656 58.496094 8.742188 58.914062 8.261719 C 59.410156 7.683594 59.535156 7.050781 59.300781 6.417969 C 59.171875 6.078125 58.914062 5.785156 58.40625 5.585938 C 58.367188 5.554688 58.332031 5.511719 58.296875 5.476562 C 58.238281 5.402344 58.148438 5.347656 58.019531 5.3125 C 58.019531 5.324219 58.039062 5.335938 58.039062 5.347656 C 58.039062 5.335938 58.019531 5.324219 58.019531 5.3125 C 57.820312 5.195312 57.601562 5.085938 57.398438 4.964844 C 57.34375 4.886719 57.234375 4.832031 57.109375 4.800781 C 56.890625 4.667969 56.652344 4.550781 56.433594 4.417969 C 56.433594 4.386719 56.394531 4.363281 56.324219 4.363281 C 56.121094 4.253906 55.902344 4.132812 55.703125 4.023438 C 55.628906 3.949219 55.539062 3.894531 55.410156 3.863281 C 55.191406 3.730469 54.953125 3.609375 54.734375 3.480469 C 54.679688 3.425781 54.605469 3.371094 54.496094 3.347656 C 54.277344 3.238281 54.078125 3.117188 53.859375 3.007812 C 54.023438 2.933594 54.734375 2.898438 54.898438 2.976562 C 54.9375 2.988281 54.953125 3.007812 54.972656 3.03125 C 55.246094 3.378906 55.5 3.445312 56.121094 3.371094 C 56.871094 3.28125 57.621094 3.195312 58.367188 3.109375 C 58.988281 3.042969 59.191406 2.890625 59.171875 2.519531 C 59.132812 2.039062 58.898438 1.589844 58.550781 1.164062 C 58.40625 0.988281 58.203125 0.835938 57.929688 0.726562 C 57.910156 0.714844 57.910156 0.703125 57.894531 0.695312 C 57.910156 0.660156 57.894531 0.640625 57.839844 0.648438 C 57.710938 0.550781 57.582031 0.453125 57.398438 0.386719 C 57.417969 0.355469 57.398438 0.355469 57.34375 0.367188 C 57.308594 0.34375 57.253906 0.332031 57.199219 0.3125 C 57.015625 0.214844 56.796875 0.160156 56.558594 0.136719 C 56.488281 0.136719 56.394531 0.125 56.324219 0.125 C 53.894531 0.125 51.449219 0.125 49.019531 0.125 C 48.949219 0.125 48.875 0.136719 48.820312 0.136719 C 48.710938 0.3125 48.492188 0.421875 48.21875 0.519531 C 48.070312 0.5625 48.035156 0.671875 47.996094 0.769531 C 47.871094 1.21875 47.722656 1.675781 47.523438 2.113281 C 47.449219 2.289062 47.324219 2.507812 47.542969 2.636719 C 47.886719 2.824219 47.925781 3.03125 47.925781 3.273438 Z M 58.148438 5.402344 C 58.128906 5.390625 58.113281 5.367188 58.074219 5.359375 C 58.113281 5.367188 58.128906 5.390625 58.148438 5.402344 Z M 58.148438 5.402344 "/>
<path style=" stroke:none;fill-rule:nonzero;fill:rgb(98.823529%,26.666667%,41.568627%);fill-opacity:1;" d="M 73.429688 9.222656 C 75.183594 9.234375 76.933594 9.234375 78.667969 9.222656 C 79.273438 9.222656 79.621094 9.050781 79.636719 8.734375 C 79.65625 8.242188 79.765625 7.738281 79.785156 7.246094 C 79.800781 6.910156 79.621094 6.765625 79.054688 6.691406 C 79.054688 6.558594 78.980469 6.484375 78.742188 6.503906 C 78.726562 6.492188 78.707031 6.484375 78.6875 6.472656 C 78.6875 5.335938 78.6875 4.210938 78.6875 3.074219 C 78.6875 2.933594 79.109375 2.789062 79.328125 2.867188 C 79.65625 2.976562 80.003906 3.007812 80.386719 3 C 80.660156 2.988281 80.714844 3.054688 80.695312 3.207031 C 80.679688 3.773438 80.695312 4.332031 80.695312 4.898438 C 80.695312 6.101562 80.695312 7.3125 80.679688 8.515625 C 80.679688 8.953125 80.988281 9.167969 81.738281 9.167969 C 82.796875 9.167969 83.835938 9.167969 84.894531 9.167969 C 85.609375 9.167969 85.9375 8.972656 85.9375 8.546875 C 85.9375 7.433594 85.9375 6.320312 85.9375 5.203125 C 85.9375 5.148438 85.882812 5.085938 85.992188 5.0625 C 86.117188 5.042969 86.136719 5.128906 86.191406 5.171875 C 87.414062 6.40625 88.636719 7.640625 89.863281 8.875 C 90.097656 9.105469 90.410156 9.222656 90.882812 9.214844 C 92.160156 9.203125 93.441406 9.203125 94.71875 9.203125 C 95.394531 9.203125 95.742188 8.996094 95.742188 8.578125 C 95.742188 6.121094 95.742188 3.675781 95.742188 1.21875 C 95.742188 1.121094 95.757812 1.011719 95.742188 0.914062 C 95.703125 0.640625 95.464844 0.476562 95.011719 0.410156 C 94.972656 0.332031 95.066406 0.234375 94.882812 0.191406 C 94.882812 0.179688 94.882812 0.167969 94.882812 0.167969 C 94.863281 0.160156 94.828125 0.160156 94.789062 0.160156 C 93.730469 0.160156 92.671875 0.160156 91.632812 0.160156 C 91.597656 0.160156 91.523438 0.136719 91.542969 0.191406 C 91.320312 0.214844 91.375 0.3125 91.359375 0.398438 C 90.828125 0.496094 90.664062 0.648438 90.648438 1.011719 C 90.628906 1.984375 90.609375 2.945312 90.589844 3.914062 C 90.589844 3.96875 90.648438 4.058594 90.519531 4.070312 C 90.410156 4.078125 90.390625 4.003906 90.355469 3.960938 C 89.386719 2.964844 88.4375 1.972656 87.46875 0.976562 C 87.289062 0.792969 87.160156 0.574219 86.777344 0.476562 C 86.757812 0.453125 86.722656 0.429688 86.703125 0.410156 C 86.722656 0.355469 86.722656 0.34375 86.667969 0.355469 C 86.613281 0.289062 86.558594 0.214844 86.410156 0.203125 C 86.335938 0.167969 86.246094 0.179688 86.15625 0.179688 C 84.75 0.179688 83.34375 0.179688 81.957031 0.179688 C 81.808594 0.179688 81.664062 0.160156 81.519531 0.191406 C 81.464844 0.203125 81.425781 0.222656 81.371094 0.234375 C 81.316406 0.234375 81.300781 0.246094 81.335938 0.269531 C 81.316406 0.289062 81.28125 0.324219 81.261719 0.34375 C 81.207031 0.34375 81.207031 0.355469 81.226562 0.378906 C 81.207031 0.398438 81.171875 0.421875 81.152344 0.441406 C 80.933594 0.496094 80.769531 0.585938 80.660156 0.714844 C 80.460938 0.933594 80.257812 1.152344 80.058594 1.359375 C 80.019531 1.402344 79.984375 1.46875 79.894531 1.449219 C 79.785156 1.425781 79.855469 1.371094 79.855469 1.328125 C 79.894531 1.195312 79.910156 1.074219 79.949219 0.957031 C 80.019531 0.683594 79.839844 0.484375 79.398438 0.386719 C 79.289062 0.367188 79.21875 0.34375 79.234375 0.269531 C 79.289062 0.113281 79.144531 0.113281 78.960938 0.113281 C 77.265625 0.113281 75.566406 0.113281 73.867188 0.113281 C 73.667969 0.113281 73.558594 0.148438 73.539062 0.269531 C 73.539062 0.324219 73.519531 0.378906 73.410156 0.398438 C 72.9375 0.484375 72.847656 0.726562 72.808594 0.96875 C 72.734375 1.402344 72.679688 1.839844 72.570312 2.277344 C 72.5 2.550781 72.644531 2.746094 73.011719 2.84375 C 73.230469 2.898438 73.449219 2.945312 73.6875 2.921875 C 73.976562 2.898438 74.050781 2.964844 74.03125 3.140625 C 74.015625 3.378906 74.03125 3.609375 74.03125 3.851562 C 74.03125 4.722656 74.015625 5.597656 74.015625 6.460938 C 73.941406 6.472656 73.867188 6.472656 73.796875 6.484375 C 73.757812 6.449219 73.722656 6.449219 73.6875 6.484375 C 73.484375 6.515625 73.574219 6.636719 73.503906 6.703125 C 73.15625 6.765625 72.882812 6.898438 72.828125 7.117188 C 72.71875 7.628906 72.625 8.132812 72.570312 8.644531 C 72.480469 9.015625 72.808594 9.222656 73.429688 9.222656 Z M 73.429688 9.222656 "/>
<path style=" stroke:none;fill-rule:nonzero;fill:rgb(100%,100%,100%);fill-opacity:1;" d="M 78.742188 12.785156 C 78.578125 12.785156 78.46875 12.785156 78.339844 12.785156 C 77.484375 12.785156 76.625 12.785156 75.765625 12.785156 C 75.511719 12.785156 75.402344 12.753906 75.4375 12.566406 C 75.511719 12.25 75.546875 11.933594 75.585938 11.605469 C 75.585938 11.550781 75.585938 11.496094 75.601562 11.441406 C 75.675781 11.046875 75.710938 11.027344 76.371094 11.027344 C 77.335938 11.027344 78.285156 11.027344 79.253906 11.027344 C 79.492188 11.027344 79.730469 11.015625 79.949219 10.992188 C 80.058594 10.984375 80.167969 10.917969 80.222656 10.851562 C 80.476562 10.589844 80.714844 10.328125 80.953125 10.054688 C 81.042969 9.945312 81.152344 9.921875 81.355469 9.96875 C 82.121094 10.121094 82.886719 10.261719 83.671875 10.402344 C 83.945312 10.449219 84.019531 10.535156 83.929688 10.6875 C 83.875 10.777344 83.820312 10.863281 83.761719 10.972656 C 83.835938 10.984375 83.890625 10.992188 83.945312 10.992188 C 85.277344 11.003906 86.613281 11.015625 87.945312 11.039062 C 88.308594 11.039062 88.382812 11.070312 88.328125 11.277344 C 88.21875 11.738281 88.089844 12.195312 87.960938 12.652344 C 87.925781 12.785156 87.78125 12.808594 87.578125 12.808594 C 86.867188 12.808594 86.171875 12.808594 85.425781 12.808594 C 85.441406 12.851562 85.441406 12.894531 85.460938 12.917969 C 86.738281 14.609375 88.015625 16.292969 89.296875 17.972656 C 89.386719 18.09375 89.351562 18.160156 89.132812 18.203125 C 88.199219 18.355469 87.289062 18.519531 86.355469 18.671875 C 86.28125 18.683594 86.101562 18.628906 86.0625 18.574219 C 85.40625 17.710938 84.75 16.835938 84.09375 15.976562 C 83.417969 15.089844 82.742188 14.195312 82.066406 13.308594 C 82.066406 13.296875 82.027344 13.296875 81.992188 13.289062 C 81.664062 13.671875 81.335938 14.0625 81.007812 14.445312 C 79.855469 15.800781 78.707031 17.144531 77.574219 18.496094 C 77.464844 18.628906 77.335938 18.652344 77.117188 18.617188 C 76.207031 18.476562 75.292969 18.335938 74.324219 18.191406 C 74.304688 18.324219 74.304688 18.441406 74.289062 18.5625 C 74.269531 18.75 74.195312 18.792969 73.886719 18.761719 C 73.394531 18.714844 72.902344 18.660156 72.425781 18.617188 C 71.367188 18.519531 70.5625 18.171875 69.832031 17.734375 C 69.046875 17.273438 68.371094 16.761719 67.824219 16.191406 C 67.660156 16.03125 67.515625 15.976562 67.203125 16.074219 C 66.859375 16.183594 66.472656 16.246094 66.109375 16.335938 C 65.925781 16.378906 65.851562 16.433594 65.851562 16.566406 C 65.871094 17.144531 65.851562 17.710938 65.851562 18.289062 C 65.851562 18.453125 65.742188 18.496094 65.488281 18.496094 C 64.558594 18.496094 63.625 18.496094 62.695312 18.507812 C 62.457031 18.507812 62.382812 18.453125 62.382812 18.3125 C 62.402344 17.90625 62.402344 17.503906 62.382812 17.101562 C 62.382812 16.992188 62.328125 16.871094 62.238281 16.773438 C 61.890625 16.402344 61.542969 16.039062 61.179688 15.667969 C 61.089844 15.582031 61.089844 15.539062 61.289062 15.484375 C 61.636719 15.394531 61.964844 15.265625 62.273438 15.144531 C 62.328125 15.121094 62.347656 15.046875 62.347656 15.003906 C 62.367188 14.292969 62.367188 13.582031 62.367188 12.871094 C 62.367188 12.71875 62.457031 12.644531 62.675781 12.589844 C 63.003906 12.511719 63.332031 12.414062 63.644531 12.28125 C 63.515625 12.28125 63.371094 12.292969 63.242188 12.292969 C 62.730469 12.292969 62.238281 12.292969 61.726562 12.292969 C 61.507812 12.292969 61.417969 12.25 61.488281 12.109375 C 61.671875 11.714844 61.835938 11.3125 62.019531 10.917969 C 62.074219 10.808594 62.109375 10.699219 62.21875 10.621094 C 62.292969 10.566406 62.476562 10.523438 62.605469 10.523438 C 64.027344 10.511719 65.453125 10.523438 66.894531 10.523438 C 68.683594 10.523438 70.472656 10.523438 72.28125 10.523438 C 72.792969 10.523438 73.210938 10.632812 73.558594 10.839844 C 73.867188 11.027344 74.015625 11.234375 73.996094 11.507812 C 73.960938 12.117188 73.976562 12.742188 73.941406 13.363281 C 73.90625 14.03125 73.429688 14.566406 72.390625 14.871094 C 71.914062 15.011719 71.421875 15.121094 70.945312 15.253906 C 70.875 15.277344 70.800781 15.285156 70.691406 15.320312 C 71.53125 16.03125 72.296875 16.738281 73.867188 16.902344 C 74.488281 16.96875 74.542969 17.035156 74.453125 17.417969 C 74.414062 17.558594 74.398438 17.699219 74.414062 17.863281 C 75.875 16.160156 77.300781 14.488281 78.742188 12.785156 Z M 65.871094 14.414062 C 65.890625 14.414062 65.925781 14.421875 65.945312 14.421875 C 67.167969 14.195312 68.410156 13.996094 69.613281 13.734375 C 69.886719 13.679688 70.144531 13.570312 70.328125 13.429688 C 70.417969 13.363281 70.472656 13.277344 70.527344 13.199219 C 70.582031 13.070312 70.582031 12.925781 70.582031 12.796875 C 70.582031 12.664062 70.582031 12.535156 70.5625 12.402344 C 70.546875 12.292969 70.398438 12.28125 70.253906 12.292969 C 68.976562 12.292969 67.699219 12.292969 66.4375 12.292969 C 65.90625 12.292969 65.90625 12.292969 65.90625 12.609375 C 65.871094 13.210938 65.871094 13.8125 65.871094 14.414062 Z M 65.871094 14.414062 "/>
<path style=" stroke:none;fill-rule:nonzero;fill:rgb(100%,100%,100%);fill-opacity:1;" d="M 41.992188 14.578125 C 41.445312 15.175781 40.949219 15.746094 40.441406 16.3125 C 39.820312 17.011719 39.199219 17.710938 38.558594 18.410156 C 38.484375 18.476562 38.320312 18.550781 38.195312 18.550781 C 37.71875 18.574219 37.226562 18.574219 36.734375 18.585938 C 36.496094 18.585938 36.367188 18.53125 36.242188 18.410156 C 34.980469 17.089844 33.722656 15.765625 32.460938 14.445312 C 32.425781 14.414062 32.386719 14.378906 32.296875 14.304688 C 32.296875 14.445312 32.296875 14.53125 32.296875 14.632812 C 32.296875 15.875 32.296875 17.121094 32.316406 18.378906 C 32.316406 18.496094 32.242188 18.550781 32.023438 18.550781 C 30.945312 18.550781 29.851562 18.550781 28.773438 18.550781 C 28.554688 18.550781 28.480469 18.476562 28.480469 18.355469 C 28.480469 17.371094 28.480469 16.378906 28.480469 15.386719 C 28.480469 14.882812 28.5 14.378906 28.5 13.867188 C 28.5 13.617188 28.519531 13.363281 28.535156 13.113281 C 28.535156 12.949219 28.519531 12.773438 28.171875 12.761719 C 28.152344 12.761719 28.152344 12.761719 28.132812 12.761719 C 28.023438 12.761719 26.839844 12.773438 26.839844 12.808594 C 26.839844 12.773438 26.820312 12.71875 26.855469 12.699219 C 27.238281 12.292969 27.660156 11.890625 28.023438 11.472656 C 28.480469 10.960938 28.460938 10.949219 29.449219 10.949219 C 30.636719 10.949219 31.839844 10.949219 33.027344 10.949219 C 33.246094 10.949219 33.410156 10.972656 33.519531 11.101562 C 34.160156 11.800781 34.816406 12.5 35.472656 13.199219 C 35.984375 13.757812 36.496094 14.324219 37.007812 14.894531 C 37.027344 14.90625 37.042969 14.914062 37.097656 14.949219 C 37.171875 14.894531 37.226562 14.839844 37.28125 14.785156 C 38.339844 13.636719 39.398438 12.492188 40.421875 11.34375 C 40.675781 11.046875 40.988281 10.894531 41.589844 10.90625 C 42.921875 10.9375 44.238281 10.917969 45.570312 10.917969 C 45.789062 10.917969 45.898438 10.960938 45.917969 11.082031 C 45.933594 11.167969 45.953125 11.257812 45.953125 11.355469 C 45.953125 13.691406 45.953125 16.019531 45.953125 18.355469 C 45.953125 18.53125 45.863281 18.597656 45.570312 18.597656 C 44.492188 18.585938 43.414062 18.597656 42.355469 18.597656 C 42.082031 18.597656 41.972656 18.542969 41.972656 18.378906 C 41.972656 17.273438 41.972656 16.160156 41.972656 15.058594 C 41.992188 14.894531 41.992188 14.761719 41.992188 14.578125 Z M 41.992188 14.578125 "/>
<path style=" stroke:none;fill-rule:nonzero;fill:rgb(100%,100%,100%);fill-opacity:1;" d="M 85.277344 2.738281 C 85.277344 2.867188 85.277344 2.964844 85.277344 3.054688 C 85.277344 4.660156 85.277344 6.265625 85.296875 7.871094 C 85.296875 8 85.222656 8.054688 85.003906 8.054688 C 83.910156 8.054688 82.8125 8.054688 81.71875 8.054688 C 81.445312 8.054688 81.371094 7.980469 81.390625 7.835938 C 81.390625 5.949219 81.390625 4.058594 81.390625 2.167969 C 81.390625 1.894531 81.390625 1.894531 80.953125 1.894531 C 80.625 1.894531 80.292969 1.894531 79.984375 1.894531 C 79.785156 1.894531 79.730469 1.839844 79.839844 1.730469 C 80.183594 1.394531 80.515625 1.042969 80.859375 0.703125 C 81.023438 0.550781 81.1875 0.398438 81.371094 0.257812 C 81.425781 0.214844 81.574219 0.167969 81.683594 0.167969 C 83.234375 0.160156 84.804688 0.160156 86.355469 0.167969 C 86.464844 0.167969 86.628906 0.246094 86.703125 0.300781 C 87.433594 1.019531 88.164062 1.753906 88.875 2.484375 C 89.660156 3.292969 90.425781 4.113281 91.210938 4.933594 C 91.230469 4.941406 91.25 4.953125 91.339844 4.996094 C 91.339844 4.757812 91.339844 4.539062 91.339844 4.320312 C 91.359375 3.097656 91.359375 1.875 91.375 0.648438 C 91.375 0.136719 91.375 0.136719 92.234375 0.136719 C 93.054688 0.136719 93.894531 0.136719 94.71875 0.136719 C 94.9375 0.136719 95.066406 0.160156 95.046875 0.3125 C 95.046875 0.453125 95.082031 0.585938 95.082031 0.726562 C 95.082031 3.042969 95.082031 5.359375 95.082031 7.671875 C 95.082031 8.078125 95.082031 8.078125 94.40625 8.078125 C 93.257812 8.089844 92.105469 8.089844 90.9375 8.097656 C 90.71875 8.097656 90.589844 8.054688 90.464844 7.945312 C 88.785156 6.242188 87.105469 4.550781 85.40625 2.855469 C 85.386719 2.824219 85.351562 2.789062 85.277344 2.738281 Z M 85.277344 2.738281 "/>
<path style=" stroke:none;fill-rule:nonzero;fill:rgb(100%,100%,100%);fill-opacity:1;" d="M 60.429688 14.804688 C 60.429688 15.984375 60.429688 17.164062 60.429688 18.34375 C 60.429688 18.496094 60.359375 18.550781 60.085938 18.550781 C 56.394531 18.550781 52.691406 18.542969 49.003906 18.542969 C 48.617188 18.542969 48.601562 18.53125 48.601562 18.3125 C 48.601562 16.628906 48.601562 14.957031 48.601562 13.277344 C 48.601562 13.144531 48.527344 13.113281 48.328125 13.113281 C 47.871094 13.125 47.394531 13.113281 46.921875 13.113281 C 46.703125 13.113281 46.628906 13.070312 46.703125 12.925781 C 46.957031 12.390625 47.195312 11.855469 47.433594 11.3125 C 47.449219 11.277344 47.449219 11.257812 47.46875 11.222656 C 47.632812 10.917969 47.667969 10.894531 48.21875 10.894531 C 49.550781 10.894531 50.882812 10.894531 52.234375 10.894531 C 52.507812 10.894531 52.617188 10.960938 52.636719 11.113281 C 52.636719 11.179688 52.652344 11.246094 52.652344 11.3125 C 52.652344 12.90625 52.652344 14.511719 52.652344 16.105469 C 52.652344 16.214844 52.691406 16.269531 52.890625 16.269531 C 53.621094 16.28125 54.351562 16.300781 55.0625 16.300781 C 55.445312 16.300781 55.832031 16.28125 56.214844 16.269531 C 56.414062 16.269531 56.394531 16.191406 56.394531 16.105469 C 56.394531 14.839844 56.394531 13.570312 56.394531 12.304688 C 56.394531 11.957031 56.394531 11.617188 56.394531 11.265625 C 56.394531 10.917969 56.449219 10.882812 57.035156 10.882812 C 58.019531 10.882812 59.023438 10.894531 60.011719 10.882812 C 60.285156 10.882812 60.394531 10.9375 60.414062 11.09375 C 60.414062 11.15625 60.429688 11.222656 60.429688 11.289062 C 60.429688 12.492188 60.429688 13.648438 60.429688 14.804688 Z M 60.429688 14.804688 "/>
<path style=" stroke:none;fill-rule:nonzero;fill:rgb(100%,100%,100%);fill-opacity:1;" d="M 16.46875 12.785156 C 16.304688 12.785156 16.15625 12.785156 16.03125 12.785156 C 15.207031 12.785156 14.367188 12.785156 13.546875 12.785156 C 13.199219 12.785156 13.164062 12.753906 13.199219 12.554688 C 13.273438 12.21875 13.308594 11.867188 13.363281 11.527344 C 13.382812 11.464844 13.382812 11.398438 13.402344 11.332031 C 13.472656 11.070312 13.511719 11.046875 13.964844 11.046875 C 15.042969 11.046875 16.121094 11.046875 17.179688 11.046875 C 17.65625 11.046875 17.984375 10.984375 18.164062 10.6875 C 18.292969 10.46875 18.550781 10.273438 18.730469 10.066406 C 18.824219 9.957031 18.949219 9.945312 19.132812 9.988281 C 19.917969 10.140625 20.703125 10.285156 21.488281 10.425781 C 21.707031 10.46875 21.800781 10.535156 21.707031 10.667969 C 21.652344 10.765625 21.597656 10.875 21.523438 10.984375 C 21.578125 10.992188 21.632812 11.003906 21.671875 11.003906 C 23.003906 11.015625 24.335938 11.027344 25.667969 11.039062 C 26.054688 11.039062 26.125 11.070312 26.070312 11.300781 C 25.960938 11.757812 25.816406 12.207031 25.707031 12.664062 C 25.667969 12.808594 25.523438 12.816406 25.324219 12.816406 C 24.648438 12.816406 23.988281 12.816406 23.3125 12.816406 C 23.277344 12.816406 23.242188 12.828125 23.148438 12.828125 C 23.203125 12.90625 23.257812 12.980469 23.3125 13.046875 C 24.519531 14.652344 25.722656 16.246094 26.929688 17.851562 C 27.167969 18.179688 27.183594 18.179688 26.601562 18.269531 C 25.816406 18.398438 25.011719 18.53125 24.226562 18.671875 C 23.972656 18.714844 23.863281 18.683594 23.769531 18.542969 C 22.820312 17.285156 21.871094 16.019531 20.921875 14.761719 C 20.574219 14.316406 20.246094 13.867188 19.898438 13.417969 C 19.863281 13.386719 19.828125 13.351562 19.773438 13.289062 C 19.535156 13.5625 19.316406 13.8125 19.097656 14.0625 C 17.835938 15.546875 16.578125 17.035156 15.316406 18.519531 C 15.226562 18.628906 15.117188 18.671875 14.917969 18.640625 C 14.003906 18.496094 13.089844 18.355469 12.175781 18.226562 C 11.941406 18.191406 11.902344 18.136719 12.011719 18.007812 C 13.125 16.71875 14.222656 15.429688 15.316406 14.140625 C 15.664062 13.726562 16.03125 13.308594 16.375 12.894531 C 16.429688 12.863281 16.449219 12.828125 16.46875 12.785156 Z M 16.46875 12.785156 "/>
<path style=" stroke:none;fill-rule:nonzero;fill:rgb(100%,100%,100%);fill-opacity:1;" d="M 64.667969 4.320312 C 64.667969 5.148438 64.703125 5.9375 64.648438 6.722656 C 64.613281 7.324219 64.15625 7.914062 63.296875 8.023438 C 62.566406 8.121094 61.820312 8.144531 61.070312 8.1875 C 60.90625 8.199219 60.8125 8.132812 60.8125 8.035156 C 60.832031 7.609375 60.851562 7.171875 60.851562 6.746094 C 60.851562 6.648438 60.90625 6.59375 61.070312 6.558594 C 61.363281 6.492188 61.417969 6.328125 61.433594 6.167969 C 61.472656 5.925781 61.472656 5.683594 61.472656 5.445312 C 61.472656 4.453125 61.472656 3.457031 61.472656 2.464844 C 61.472656 2.332031 61.542969 2.265625 61.746094 2.210938 C 62.128906 2.101562 62.492188 1.984375 62.839844 1.828125 C 62.238281 1.828125 61.636719 1.828125 61.035156 1.828125 C 60.667969 1.828125 60.648438 1.808594 60.742188 1.601562 C 60.851562 1.328125 60.941406 1.054688 61.050781 0.78125 C 61.125 0.59375 61.214844 0.410156 61.324219 0.222656 C 61.363281 0.179688 61.472656 0.136719 61.5625 0.125 C 61.671875 0.105469 61.800781 0.125 61.929688 0.125 C 64.464844 0.125 67.003906 0.125 69.558594 0.125 C 70.710938 0.125 71.53125 0.5625 71.585938 1.238281 C 71.621094 1.785156 71.585938 2.332031 71.585938 2.878906 C 71.585938 3.316406 71.585938 3.753906 71.585938 4.1875 C 71.585938 4.84375 70.945312 5.238281 69.851562 5.238281 C 68.519531 5.238281 67.203125 5.238281 65.871094 5.238281 C 65.632812 5.238281 65.46875 5.195312 65.359375 5.0625 C 65.160156 4.8125 64.921875 4.582031 64.667969 4.320312 Z M 64.574219 1.828125 C 64.574219 2.289062 64.574219 2.738281 64.574219 3.171875 C 64.574219 3.207031 64.683594 3.261719 64.738281 3.261719 C 65.125 3.28125 65.523438 3.316406 65.90625 3.304688 C 66.636719 3.304688 67.386719 3.273438 68.117188 3.273438 C 68.316406 3.273438 68.355469 3.21875 68.355469 3.117188 C 68.355469 2.746094 68.335938 2.363281 68.355469 1.992188 C 68.355469 1.863281 68.28125 1.828125 68.082031 1.828125 C 67.113281 1.828125 66.164062 1.828125 65.195312 1.828125 C 64.996094 1.828125 64.792969 1.828125 64.574219 1.828125 Z M 64.574219 1.828125 "/>
<path style=" stroke:none;fill-rule:nonzero;fill:rgb(100%,100%,100%);fill-opacity:1;" d="M 2.703125 12.292969 C 2.171875 12.292969 1.714844 12.292969 1.277344 12.292969 C 0.949219 12.292969 0.914062 12.261719 0.96875 12.074219 C 1.09375 11.726562 1.203125 11.375 1.332031 11.027344 C 1.351562 10.984375 1.371094 10.929688 1.386719 10.882812 C 1.535156 10.558594 1.535156 10.558594 2.117188 10.558594 C 4.382812 10.558594 6.644531 10.558594 8.925781 10.558594 C 9.804688 10.558594 10.664062 10.894531 10.9375 11.386719 C 11.101562 11.671875 11.171875 11.976562 11.28125 12.273438 C 11.335938 12.402344 11.226562 12.457031 11.027344 12.480469 C 10.261719 12.566406 9.492188 12.652344 8.726562 12.742188 C 8.5625 12.761719 8.433594 12.742188 8.417969 12.632812 C 8.378906 12.445312 8.160156 12.371094 7.90625 12.335938 C 7.632812 12.304688 7.339844 12.292969 7.066406 12.292969 C 6.335938 12.28125 5.585938 12.292969 4.855469 12.292969 C 4.839844 12.292969 4.800781 12.304688 4.746094 12.316406 C 5.058594 12.480469 5.347656 12.644531 5.625 12.796875 C 7.375 13.777344 9.128906 14.761719 10.898438 15.722656 C 11.429688 16.019531 11.613281 16.367188 11.558594 16.773438 C 11.519531 17.023438 11.464844 17.285156 11.375 17.527344 C 11.210938 17.929688 10.71875 18.179688 10.097656 18.355469 C 9.53125 18.507812 8.925781 18.585938 8.289062 18.574219 C 6.882812 18.574219 5.496094 18.542969 4.089844 18.574219 C 2.976562 18.597656 2.265625 18.28125 1.753906 17.753906 C 1.496094 17.492188 1.332031 17.210938 1.167969 16.925781 C 1.058594 16.738281 1.132812 16.671875 1.441406 16.621094 C 2.191406 16.476562 2.921875 16.335938 3.667969 16.191406 C 3.761719 16.183594 3.945312 16.203125 3.960938 16.238281 C 4.199219 16.792969 4.910156 16.804688 5.660156 16.78125 C 6.226562 16.761719 6.808594 16.75 7.375 16.738281 C 7.449219 16.738281 7.539062 16.738281 7.613281 16.738281 C 7.832031 16.71875 7.90625 16.652344 7.757812 16.542969 C 7.648438 16.457031 7.523438 16.378906 7.394531 16.300781 C 5.511719 15.265625 3.632812 14.214844 1.753906 13.179688 C 1.316406 12.917969 1.316406 12.917969 1.808594 12.699219 C 2.082031 12.578125 2.355469 12.445312 2.703125 12.292969 Z M 2.703125 12.292969 "/>
<path style=" stroke:none;fill-rule:nonzero;fill:rgb(100%,100%,100%);fill-opacity:1;" d="M 49.878906 1.828125 C 49.421875 1.828125 48.949219 1.828125 48.492188 1.828125 C 48.234375 1.828125 48.144531 1.785156 48.21875 1.621094 C 48.363281 1.273438 48.472656 0.914062 48.617188 0.5625 C 48.671875 0.429688 48.726562 0.300781 48.820312 0.179688 C 48.875 0.125 49.039062 0.0820312 49.148438 0.0820312 C 50.609375 0.0703125 52.085938 0.0820312 53.546875 0.0820312 C 54.351562 0.0820312 55.15625 0.0820312 55.941406 0.0820312 C 57.125 0.0820312 57.894531 0.398438 58.257812 1.066406 C 58.386719 1.292969 58.441406 1.546875 58.515625 1.785156 C 58.550781 1.917969 58.460938 1.992188 58.238281 2.015625 C 57.472656 2.101562 56.707031 2.191406 55.941406 2.265625 C 55.867188 2.277344 55.703125 2.234375 55.683594 2.199219 C 55.574219 1.90625 55.191406 1.863281 54.789062 1.828125 C 54.660156 1.820312 54.535156 1.828125 54.386719 1.828125 C 53.601562 1.828125 52.816406 1.828125 51.941406 1.828125 C 52.105469 1.929688 52.214844 1.984375 52.34375 2.046875 C 54.296875 3.152344 56.269531 4.253906 58.222656 5.359375 C 58.515625 5.523438 58.714844 5.730469 58.75 5.96875 C 58.824219 6.527344 58.804688 7.082031 58.167969 7.53125 C 57.582031 7.945312 56.742188 8.097656 55.886719 8.109375 C 54.1875 8.132812 52.488281 8.121094 50.792969 8.109375 C 50.570312 8.109375 50.316406 8.042969 50.117188 7.96875 C 49.113281 7.597656 48.65625 7.027344 48.4375 6.363281 C 48.398438 6.242188 48.492188 6.199219 48.65625 6.167969 C 49.421875 6.023438 50.171875 5.871094 50.9375 5.730469 C 51.136719 5.683594 51.210938 5.707031 51.285156 5.839844 C 51.449219 6.1875 51.796875 6.328125 52.398438 6.320312 C 53.183594 6.308594 53.96875 6.296875 54.753906 6.273438 C 54.863281 6.273438 54.972656 6.230469 55.082031 6.210938 C 55.046875 6.144531 55.027344 6.058594 54.953125 6.003906 C 54.351562 5.652344 53.75 5.304688 53.128906 4.964844 C 51.667969 4.15625 50.207031 3.359375 48.746094 2.550781 C 48.601562 2.472656 48.617188 2.417969 48.765625 2.355469 C 49.148438 2.191406 49.511719 2.027344 49.878906 1.863281 C 49.898438 1.851562 49.878906 1.839844 49.878906 1.828125 Z M 49.878906 1.828125 "/>
<path style=" stroke:none;fill-rule:nonzero;fill:rgb(100%,100%,100%);fill-opacity:1;" d="M 91.195312 16.773438 C 91.195312 16.160156 91.195312 15.546875 91.195312 14.949219 C 91.195312 14.214844 91.210938 13.496094 91.195312 12.761719 C 91.195312 12.632812 91.265625 12.566406 91.46875 12.511719 C 91.796875 12.4375 92.105469 12.335938 92.417969 12.21875 C 92.234375 12.226562 92.070312 12.238281 91.886719 12.238281 C 91.195312 12.238281 90.519531 12.238281 89.824219 12.238281 C 89.570312 12.238281 89.496094 12.171875 89.53125 12.019531 C 89.625 11.683594 89.679688 11.332031 89.75 10.992188 C 89.769531 10.9375 89.769531 10.882812 89.789062 10.832031 C 89.878906 10.511719 89.933594 10.503906 90.464844 10.503906 C 92.289062 10.503906 94.132812 10.503906 95.960938 10.503906 C 96.34375 10.503906 96.414062 10.546875 96.359375 10.785156 C 96.25 11.203125 96.140625 11.628906 96.03125 12.042969 C 95.996094 12.183594 95.867188 12.25 95.628906 12.238281 C 94.957031 12.238281 94.957031 12.238281 94.957031 12.644531 C 94.957031 13.964844 94.957031 15.285156 94.957031 16.609375 C 94.957031 16.75 95.027344 16.792969 95.246094 16.78125 C 95.449219 16.78125 95.648438 16.816406 95.851562 16.816406 C 96.179688 16.804688 96.234375 16.925781 96.234375 17.066406 C 96.195312 17.503906 96.140625 17.941406 96.085938 18.367188 C 96.085938 18.410156 95.941406 18.464844 95.851562 18.488281 C 95.757812 18.507812 95.628906 18.488281 95.519531 18.488281 C 93.660156 18.488281 91.796875 18.488281 89.933594 18.488281 C 89.550781 18.488281 89.496094 18.464844 89.550781 18.234375 C 89.625 17.863281 89.695312 17.503906 89.789062 17.132812 C 89.84375 16.847656 89.898438 16.828125 90.355469 16.792969 C 90.589844 16.804688 90.867188 16.792969 91.195312 16.773438 Z M 91.195312 16.773438 "/>
<path style=" stroke:none;fill-rule:nonzero;fill:rgb(100%,100%,100%);fill-opacity:1;" d="M 75.75 1.828125 C 75.035156 1.828125 74.34375 1.828125 73.632812 1.828125 C 73.246094 1.828125 73.230469 1.820312 73.285156 1.601562 C 73.375 1.152344 73.484375 0.703125 73.59375 0.257812 C 73.613281 0.136719 73.722656 0.09375 73.921875 0.09375 C 75.601562 0.09375 77.28125 0.09375 78.960938 0.09375 C 79.144531 0.09375 79.253906 0.125 79.234375 0.246094 C 79.144531 0.726562 79.054688 1.21875 78.945312 1.699219 C 78.925781 1.753906 78.742188 1.820312 78.632812 1.820312 C 78.011719 1.839844 77.996094 1.839844 77.996094 2.222656 C 77.996094 3.566406 77.996094 4.910156 77.996094 6.253906 C 77.996094 6.375 78.050781 6.40625 78.25 6.417969 C 79.199219 6.4375 79.089844 6.40625 79.089844 6.964844 C 79.089844 7.28125 79.035156 7.609375 79.015625 7.925781 C 79.015625 8.066406 78.925781 8.132812 78.667969 8.132812 C 76.953125 8.132812 75.253906 8.121094 73.539062 8.132812 C 73.265625 8.132812 73.210938 8.066406 73.230469 7.925781 C 73.300781 7.585938 73.339844 7.238281 73.410156 6.898438 C 73.429688 6.777344 73.484375 6.648438 73.558594 6.527344 C 73.574219 6.492188 73.667969 6.460938 73.742188 6.449219 C 73.976562 6.429688 74.214844 6.40625 74.472656 6.40625 C 74.652344 6.40625 74.707031 6.363281 74.707031 6.253906 C 74.707031 4.964844 74.726562 3.675781 74.726562 2.386719 C 74.726562 2.246094 74.800781 2.15625 75.019531 2.101562 C 75.273438 2.027344 75.53125 1.9375 75.785156 1.863281 C 75.75 1.839844 75.75 1.839844 75.75 1.828125 Z M 75.75 1.828125 "/>
<path style=" stroke:none;fill-rule:nonzero;fill:rgb(100%,100%,100%);fill-opacity:1;" d="M 22.21875 16.871094 C 22.164062 16.914062 22.109375 16.945312 22.054688 16.980469 C 21.050781 17.480469 20.027344 17.984375 19.023438 18.488281 C 18.859375 18.5625 18.75 18.550781 18.605469 18.476562 C 18.128906 18.214844 17.636719 17.941406 17.144531 17.691406 C 16.960938 17.589844 16.941406 17.535156 17.144531 17.4375 C 18.148438 16.96875 19.132812 16.488281 20.121094 16.007812 C 20.320312 15.910156 20.464844 15.910156 20.648438 16.019531 C 21.105469 16.28125 21.597656 16.53125 22.074219 16.78125 C 22.128906 16.792969 22.164062 16.828125 22.21875 16.871094 Z M 22.21875 16.871094 "/>
<path style=" stroke:none;fill-rule:nonzero;fill:rgb(100%,100%,100%);fill-opacity:1;" d="M 81.078125 18.5625 C 81.007812 18.53125 80.933594 18.507812 80.898438 18.488281 C 80.386719 18.214844 79.875 17.941406 79.363281 17.667969 C 79.234375 17.601562 79.199219 17.546875 79.34375 17.460938 C 80.367188 16.980469 81.371094 16.488281 82.394531 15.996094 C 82.578125 15.910156 82.703125 15.886719 82.90625 16.007812 C 83.363281 16.269531 83.835938 16.519531 84.328125 16.773438 C 84.492188 16.859375 84.476562 16.914062 84.3125 16.992188 C 83.308594 17.480469 82.304688 17.984375 81.300781 18.476562 C 81.226562 18.496094 81.152344 18.53125 81.078125 18.5625 Z M 81.078125 18.5625 "/>
</g>
</svg>
