<svg width="97" height="20" viewBox="0 0 97 20" fill="none" xmlns="http://www.w3.org/2000/svg">
<path fill-rule="evenodd" clip-rule="evenodd" d="M35.3694 4.05856C35.3694 4.09112 35.3344 4.11712 35.2903 4.11712C35.2377 4.11712 35.2114 4.14312 35.2114 4.19535C35.2114 4.23939 35.1851 4.27335 35.151 4.27335C35.1176 4.27335 35.0801 4.29959 35.0678 4.33191C35.0552 4.364 35.0202 4.39047 34.9901 4.39047C34.9534 4.39047 34.9349 4.43638 34.9349 4.52703C34.9349 4.61791 34.9164 4.66382 34.8799 4.66382C34.7823 4.66382 34.7771 4.76103 34.7771 6.5213V8.25533H34.1833C33.699 8.25533 33.5857 8.26587 33.5677 8.31249C33.5554 8.34387 33.5116 8.38018 33.4701 8.39306C33.4286 8.40618 33.3947 8.44202 33.3947 8.4727C33.3947 8.50339 33.3682 8.52868 33.3355 8.52868C33.3026 8.52868 33.2763 8.56335 33.2763 8.60668C33.2763 8.65868 33.25 8.68468 33.1974 8.68468C33.1289 8.68468 33.1185 8.71068 33.1185 8.88121C33.1185 9.01987 33.1009 9.08429 33.0592 9.09998C33.0178 9.11568 33 9.17939 33 9.31079C33 9.42603 33.023 9.5216 33.0592 9.55768C33.0917 9.58977 33.1187 9.66566 33.1189 9.72632C33.1197 9.89614 33.1616 10.0121 33.2218 10.0121C33.2519 10.0121 33.2763 10.0472 33.2763 10.0901C33.2763 10.1332 33.3009 10.1683 33.331 10.1683C33.3611 10.1683 33.395 10.2035 33.4064 10.2463C33.4213 10.3032 33.4601 10.3243 33.549 10.3243C33.6315 10.3243 33.6713 10.3435 33.6713 10.3829C33.6713 10.4323 33.7589 10.4414 34.2229 10.4414H34.7747L34.7856 12.8262C34.796 15.0446 34.8015 15.2142 34.8659 15.2606C34.9114 15.2934 34.9349 15.3629 34.9349 15.4634C34.9349 15.5681 34.96 15.6375 35.014 15.6831C35.0574 15.7199 35.0929 15.7942 35.0929 15.848C35.0929 15.9092 35.1152 15.9459 35.1522 15.9459C35.1851 15.9459 35.2114 15.9806 35.2114 16.0242C35.2114 16.0762 35.2377 16.1022 35.2903 16.1022C35.3457 16.1022 35.3697 16.1284 35.3701 16.19C35.3709 16.2767 35.6336 16.5315 35.722 16.5315C35.7452 16.5315 35.7642 16.558 35.7642 16.5901C35.7642 16.6226 35.7992 16.6486 35.8433 16.6486C35.8867 16.6486 35.9222 16.6742 35.9222 16.7056C35.9222 16.7393 35.9772 16.7726 36.0578 16.7873C36.1322 16.8011 36.2028 16.8372 36.2144 16.8672C36.2291 16.9051 36.3032 16.922 36.4542 16.922C36.5743 16.922 36.6726 16.9396 36.6726 16.9611C36.6726 16.9852 36.8963 17 37.265 17C37.6334 17 37.8573 16.9852 37.8573 16.9611C37.8573 16.9396 37.9194 16.922 37.9955 16.922C38.0919 16.922 38.1336 16.9044 38.1336 16.8634C38.1336 16.8311 38.1538 16.8049 38.1786 16.8049C38.2289 16.8049 38.4101 16.6236 38.4101 16.5732C38.4101 16.5554 38.4457 16.5315 38.489 16.5203C38.5637 16.5011 38.5682 16.4671 38.5682 15.9071C38.5682 15.347 38.5637 15.313 38.489 15.2936C38.4454 15.2824 38.4101 15.2404 38.4101 15.1997C38.4101 15.1594 38.3833 15.1261 38.3509 15.1261C38.3182 15.1261 38.2917 15.0999 38.2917 15.0676C38.2917 15.035 38.2566 15.009 38.2128 15.009C38.1599 15.009 38.1336 14.983 38.1336 14.931C38.1336 14.8678 38.1073 14.853 37.9955 14.853C37.899 14.853 37.8573 14.8352 37.8573 14.7944C37.8573 14.7467 37.7915 14.7359 37.5019 14.7359H37.1465V12.5887V10.4414H37.6401C38.0526 10.4414 38.1336 10.4318 38.1336 10.3829C38.1336 10.3508 38.162 10.3243 38.1966 10.3243C38.2312 10.3243 38.2689 10.2892 38.2803 10.2463C38.2917 10.2035 38.3255 10.1683 38.3554 10.1683C38.3855 10.1683 38.4101 10.1419 38.4101 10.1098C38.4101 10.0774 38.4374 10.0512 38.4705 10.0512C38.504 10.0512 38.5426 10.0203 38.5566 9.98281C38.5705 9.94533 38.6054 9.90036 38.6343 9.88326C38.7153 9.83477 38.7089 8.84701 38.6274 8.81609C38.5947 8.80368 38.5682 8.76901 38.5682 8.73926C38.5682 8.70928 38.5357 8.6526 38.4959 8.61348C38.4563 8.57436 38.413 8.5144 38.3999 8.48043C38.3867 8.4467 38.3215 8.40712 38.2549 8.39259C38.1881 8.37807 38.1336 8.3413 38.1336 8.31085C38.1336 8.26587 38.0403 8.25533 37.6401 8.25533H37.1465V6.54519C37.1465 5.10184 37.1373 4.8231 37.0885 4.75915C37.0565 4.71746 37.0299 4.62447 37.0292 4.55279C37.0283 4.45559 37.0077 4.41694 36.9489 4.40171C36.9055 4.39047 36.87 4.35697 36.87 4.32746C36.87 4.29771 36.8432 4.27335 36.8108 4.27335C36.7778 4.27335 36.7515 4.23868 36.7515 4.19535C36.7515 4.14476 36.7252 4.11712 36.6767 4.11712C36.6357 4.11712 36.5918 4.09088 36.5793 4.05856C36.5605 4.01007 36.4542 4 35.963 4C35.4616 4 35.3694 4.00914 35.3694 4.05856ZM83.6016 4.05856C83.589 4.09088 83.5374 4.11712 83.4867 4.11712C83.4357 4.11712 83.3711 4.14921 83.3426 4.18809C83.3144 4.22697 83.2599 4.27054 83.222 4.28436C83.1841 4.29841 83.1528 4.34339 83.1528 4.38438C83.1528 4.42537 83.1263 4.48088 83.0936 4.50759C83.0611 4.53429 83.0344 4.61557 83.0344 4.68795C83.0344 4.79382 83.019 4.81982 82.9555 4.81982C82.8775 4.81982 82.8766 4.84582 82.8766 6.81081C82.8766 8.48676 82.8678 8.8018 82.8213 8.8018C82.7913 8.8018 82.7562 8.77557 82.7436 8.74324C82.7294 8.70647 82.669 8.68468 82.5816 8.68468C82.4683 8.68468 82.442 8.66993 82.442 8.60668C82.442 8.53899 82.4157 8.52868 82.2446 8.52868C82.1034 8.52868 82.0472 8.51323 82.0472 8.47505C82.0472 8.41391 81.8793 8.37245 81.6319 8.37245C81.5184 8.37245 81.4558 8.35324 81.4404 8.31389C81.4085 8.23097 79.974 8.22582 79.942 8.3085C79.928 8.34458 79.8226 8.368 79.6155 8.38112C79.3942 8.39517 79.2966 8.41836 79.2622 8.4645C79.2312 8.50643 79.157 8.52868 79.0478 8.52868C78.9137 8.52868 78.8765 8.54414 78.8599 8.60668C78.8443 8.66524 78.8061 8.68468 78.7056 8.68468C78.6132 8.68468 78.572 8.70272 78.572 8.74324C78.572 8.7758 78.5369 8.8018 78.4931 8.8018C78.4495 8.8018 78.3784 8.83694 78.3351 8.88004C78.2917 8.9229 78.2294 8.95804 78.1969 8.95804C78.1642 8.95804 78.1377 8.9831 78.1377 9.01355C78.1377 9.044 78.0844 9.08054 78.0192 9.09459C77.9541 9.10888 77.9007 9.14542 77.9007 9.17587C77.9007 9.20633 77.8652 9.23139 77.8216 9.23139C77.7778 9.23139 77.7427 9.25739 77.7427 9.28995C77.7427 9.3225 77.7076 9.34851 77.6638 9.34851C77.611 9.34851 77.5847 9.37451 77.5847 9.42651C77.5847 9.47054 77.5584 9.5045 77.5242 9.5045C77.4911 9.5045 77.4536 9.53097 77.4411 9.56306C77.4285 9.59539 77.3937 9.62162 77.3634 9.62162C77.333 9.62162 77.3084 9.65676 77.3084 9.69986C77.3084 9.74272 77.2861 9.77856 77.2589 9.7795C77.2015 9.78137 77.0319 10.0301 77.0319 10.1123C77.0319 10.143 77.0049 10.1683 76.9717 10.1683C76.9385 10.1683 76.8952 10.2105 76.8753 10.262C76.8556 10.3135 76.8205 10.3674 76.7973 10.3815C76.7743 10.3955 76.7554 10.4499 76.7554 10.5023C76.7554 10.5579 76.7324 10.5977 76.7004 10.5977C76.6397 10.5977 76.5976 10.6799 76.5976 10.7972C76.5976 10.8392 76.5708 10.8834 76.5383 10.8959C76.4971 10.9116 76.4791 10.975 76.4791 11.1048C76.4791 11.2585 76.4651 11.2948 76.3999 11.3116C76.3298 11.3299 76.321 11.365 76.321 11.6297C76.321 11.8583 76.3073 11.9326 76.2618 11.9499C76.2121 11.9689 76.2026 12.0904 76.2026 12.7112C76.2026 13.3319 76.2121 13.4535 76.2618 13.4724C76.3066 13.4893 76.321 13.5607 76.321 13.7641C76.321 14.0072 76.3286 14.0332 76.3999 14.0332C76.4684 14.0332 76.4791 14.0592 76.4791 14.2295C76.4791 14.3681 76.4964 14.4326 76.5383 14.4485C76.5727 14.4614 76.5976 14.5199 76.5976 14.5874C76.5976 14.6712 76.6198 14.7099 76.6765 14.7244C76.7357 14.7399 76.7554 14.7778 76.7554 14.8769C76.7554 14.9652 76.7741 15.009 76.8115 15.009C76.8423 15.009 76.8795 15.0629 76.8942 15.1289C76.9089 15.1948 76.9459 15.258 76.9764 15.2697C77.007 15.2812 77.0319 15.3152 77.0319 15.3451C77.0319 15.3751 77.0565 15.3995 77.0866 15.3995C77.1165 15.3995 77.1503 15.4346 77.1617 15.4775C77.1731 15.5206 77.2108 15.5557 77.2454 15.5557C77.28 15.5557 77.3084 15.5819 77.3084 15.6143C77.3084 15.6464 77.3328 15.6728 77.3629 15.6728C77.393 15.6728 77.4269 15.708 77.4382 15.7508C77.4496 15.7937 77.4873 15.8288 77.5219 15.8288C77.5584 15.8288 77.5847 15.8616 77.5847 15.9071C77.5847 15.9511 77.611 15.9851 77.6453 15.9851C77.6785 15.9851 77.7159 16.0113 77.7285 16.0436C77.7408 16.0759 77.7737 16.1022 77.8015 16.1022C77.8292 16.1022 77.8612 16.1373 77.8725 16.1802C77.8839 16.2233 77.9216 16.2584 77.9562 16.2584C77.9908 16.2584 78.0192 16.2846 78.0192 16.317C78.0192 16.3577 78.0609 16.3755 78.1574 16.3755C78.2692 16.3755 78.2955 16.3903 78.2955 16.4535C78.2955 16.5041 78.3218 16.5315 78.3704 16.5315C78.4114 16.5315 78.4554 16.558 78.4677 16.5901C78.481 16.6243 78.5403 16.6486 78.6102 16.6486C78.6857 16.6486 78.73 16.6686 78.73 16.7028C78.73 16.762 78.8471 16.8035 79.0163 16.8044C79.0862 16.8046 79.1248 16.8257 79.1248 16.8634C79.1248 16.9084 79.1753 16.922 79.3421 16.922C79.4615 16.922 79.5593 16.9396 79.5593 16.9611C79.5593 16.9862 79.9541 17 80.6649 17C81.3758 17 81.7707 16.9862 81.7707 16.9611C81.7707 16.9396 81.8596 16.922 81.9681 16.922C82.1174 16.922 82.1657 16.9077 82.1657 16.8634C82.1657 16.8213 82.2091 16.8049 82.3204 16.8049C82.5133 16.8049 82.6 16.7733 82.6 16.7032C82.6 16.6686 82.6436 16.6486 82.7197 16.6486C82.786 16.6486 82.8488 16.6243 82.8607 16.5941C82.896 16.503 83.0344 16.4873 83.0344 16.5744C83.0344 16.6152 83.059 16.6486 83.0891 16.6486C83.1192 16.6486 83.1531 16.6838 83.1644 16.7269C83.1758 16.7697 83.2133 16.8049 83.2478 16.8049C83.2824 16.8049 83.3109 16.8311 83.3109 16.8634C83.3109 16.9044 83.3526 16.922 83.449 16.922C83.5251 16.922 83.5874 16.9396 83.5874 16.9611C83.5874 16.985 83.7715 17 84.0613 17C84.3508 17 84.5352 16.985 84.5352 16.9611C84.5352 16.9396 84.5972 16.922 84.6733 16.922C84.7697 16.922 84.8114 16.9044 84.8114 16.8634C84.8114 16.8309 84.8465 16.8049 84.8906 16.8049C84.9415 16.8049 84.9695 16.7789 84.9695 16.7313C84.9695 16.6906 85.0048 16.6486 85.0484 16.6374C85.1022 16.6236 85.1275 16.5842 85.1275 16.5144C85.1275 16.4582 85.154 16.402 85.1867 16.3896C85.2768 16.3554 85.2768 4.66382 85.1867 4.66382C85.154 4.66382 85.1275 4.63009 85.1275 4.58887C85.1275 4.47245 85.0849 4.39047 85.0244 4.39047C84.9941 4.39047 84.9695 4.364 84.9695 4.33191C84.9695 4.29935 84.9344 4.27335 84.8906 4.27335C84.8377 4.27335 84.8114 4.24735 84.8114 4.19535C84.8114 4.13211 84.7851 4.11712 84.6733 4.11712C84.5769 4.11712 84.5352 4.09955 84.5352 4.05856C84.5352 4.01007 84.4582 4 84.0798 4C83.7113 4 83.6201 4.01124 83.6016 4.05856ZM43.3212 8.31389C43.304 8.35863 43.2298 8.37245 43.0085 8.37245C42.7308 8.37245 42.5171 8.42609 42.5171 8.49589C42.5171 8.51393 42.446 8.52868 42.3593 8.52868C42.2538 8.52868 42.1749 8.55468 42.1223 8.60668C42.0733 8.65494 41.9906 8.68468 41.905 8.68468C41.8086 8.68468 41.7669 8.70249 41.7669 8.74324C41.7669 8.78283 41.7269 8.8018 41.6446 8.8018C41.5558 8.8018 41.5169 8.82312 41.5018 8.88004C41.4904 8.92314 41.448 8.95804 41.4067 8.95804C41.366 8.95804 41.3323 8.98427 41.3323 9.01659C41.3323 9.0529 41.2951 9.07515 41.234 9.07515C41.1783 9.07515 41.1141 9.10912 41.0864 9.15315C41.0592 9.19625 41.0146 9.23139 40.9874 9.23139C40.9599 9.23139 40.9376 9.25762 40.9376 9.28995C40.9376 9.3225 40.9025 9.34851 40.8585 9.34851C40.8059 9.34851 40.7796 9.37451 40.7796 9.42651C40.7796 9.46984 40.7533 9.5045 40.7203 9.5045C40.6876 9.5045 40.6611 9.53097 40.6611 9.56306C40.6611 9.59562 40.626 9.62162 40.5822 9.62162C40.5293 9.62162 40.503 9.64762 40.503 9.69986C40.503 9.74319 40.4767 9.77786 40.4438 9.77786C40.4113 9.77786 40.3846 9.80222 40.3846 9.83197C40.3846 9.86148 40.349 9.89497 40.3057 9.90622C40.2623 9.91746 40.2268 9.95587 40.2268 9.99171C40.2268 10.0275 40.2 10.0831 40.1675 10.1152C40.1348 10.1475 40.1083 10.2077 40.1083 10.2491C40.1083 10.2983 40.0808 10.3243 40.0292 10.3243C39.9652 10.3243 39.9503 10.3503 39.9503 10.4611C39.9503 10.5546 39.9322 10.5977 39.8929 10.5977C39.8583 10.5977 39.8249 10.6525 39.8095 10.7342C39.7946 10.8125 39.76 10.871 39.7287 10.871C39.6934 10.871 39.6737 10.9151 39.6737 10.9935C39.6737 11.0626 39.6453 11.1366 39.6083 11.1634C39.5652 11.1947 39.5368 11.2882 39.5242 11.4409C39.5131 11.5777 39.4835 11.6838 39.4515 11.7026C39.3679 11.7508 39.3726 13.6127 39.4567 13.6957C39.4899 13.7287 39.5159 13.824 39.5159 13.9133C39.5159 14.0201 39.5418 14.0976 39.5948 14.1503C39.646 14.2007 39.6737 14.2803 39.6737 14.3759C39.6737 14.475 39.6998 14.5452 39.7529 14.5902C39.7962 14.627 39.8318 14.701 39.8318 14.7549C39.8318 14.816 39.8541 14.853 39.891 14.853C39.9235 14.853 39.9503 14.8839 39.9503 14.9216C39.9503 14.9594 39.9858 15.0123 40.0292 15.039C40.0739 15.0666 40.1083 15.1301 40.1083 15.1852C40.1083 15.2456 40.1306 15.2824 40.1675 15.2824C40.2 15.2824 40.2268 15.3086 40.2268 15.3409C40.2268 15.3735 40.2618 15.3995 40.3057 15.3995C40.3625 15.3995 40.3846 15.4255 40.3846 15.4925C40.3846 15.6061 40.8142 16.0506 40.9585 16.0865C41.0122 16.0998 41.0561 16.1368 41.0561 16.1687C41.0561 16.2006 41.0916 16.2357 41.135 16.2469C41.1783 16.2582 41.2139 16.2917 41.2139 16.3214C41.2139 16.357 41.2608 16.3755 41.3523 16.3755C41.4641 16.3755 41.4904 16.3903 41.4904 16.4535C41.4904 16.5041 41.5167 16.5315 41.5653 16.5315C41.6063 16.5315 41.6501 16.558 41.6626 16.5901C41.6752 16.6224 41.7304 16.6486 41.7854 16.6486C41.8404 16.6486 41.9209 16.6838 41.9643 16.7269C42.0121 16.7742 42.096 16.8049 42.1773 16.8049C42.26 16.8049 42.3199 16.8274 42.3339 16.8634C42.351 16.9072 42.4218 16.922 42.6147 16.922C42.7602 16.922 42.8725 16.9391 42.8725 16.9611C42.8725 16.9859 43.2016 17 43.7809 17C44.36 17 44.6891 16.9859 44.6891 16.9611C44.6891 16.9386 44.8076 16.922 44.9656 16.922C45.185 16.922 45.2419 16.9098 45.2419 16.8634C45.2419 16.8224 45.2836 16.8049 45.3803 16.8049C45.4658 16.8049 45.5485 16.7751 45.5973 16.7269C45.6409 16.6838 45.7215 16.6486 45.7765 16.6486C45.8314 16.6486 45.8866 16.6224 45.899 16.5901C45.9115 16.558 45.9553 16.5315 45.9966 16.5315C46.0449 16.5315 46.0712 16.5041 46.0712 16.4535C46.0712 16.3903 46.0975 16.3755 46.2096 16.3755C46.3008 16.3755 46.3477 16.357 46.3477 16.3214C46.3477 16.2917 46.3833 16.2582 46.4266 16.2469C46.4702 16.2357 46.5058 16.2001 46.5058 16.1675C46.5058 16.134 46.5555 16.0975 46.6209 16.0834C46.6842 16.0696 46.7458 16.0331 46.7579 16.0022C46.7697 15.9712 46.8069 15.9459 46.8401 15.9459C46.8733 15.9459 46.9005 15.9197 46.9005 15.8874C46.9005 15.8553 46.9278 15.8288 46.9612 15.8288C46.9943 15.8288 47.033 15.7995 47.0469 15.7635C47.0609 15.7276 47.1048 15.666 47.1443 15.6269C47.1841 15.5878 47.2166 15.5206 47.2166 15.4775C47.2166 15.4341 47.2429 15.3995 47.2758 15.3995C47.3083 15.3995 47.3351 15.3732 47.3351 15.3409C47.3351 15.3086 47.3621 15.2824 47.3953 15.2824C47.4284 15.2824 47.4715 15.2402 47.4914 15.1887C47.5114 15.1369 47.5464 15.0833 47.5694 15.0692C47.5926 15.0552 47.6113 15.0027 47.6113 14.9528C47.6113 14.8949 47.64 14.8546 47.6905 14.8415C47.7478 14.8268 47.7694 14.7884 47.7694 14.7005C47.7694 14.619 47.7888 14.5797 47.8286 14.5797C47.8732 14.5797 47.8879 14.5323 47.8879 14.389C47.8879 14.2311 47.9014 14.1948 47.9668 14.1779C48.0329 14.1608 48.0459 14.1248 48.0459 13.9587C48.0459 13.8079 48.0601 13.7598 48.1051 13.7598C48.1563 13.7598 48.1644 13.6193 48.1644 12.7294C48.1644 11.8497 48.1556 11.6958 48.1051 11.6766C48.0634 11.6609 48.0459 11.5967 48.0459 11.4611C48.0459 11.2313 48.0175 11.1441 47.9428 11.1441C47.9063 11.1441 47.8879 11.0982 47.8879 11.0076C47.8879 10.9123 47.8701 10.871 47.8286 10.871C47.7872 10.871 47.7694 10.8298 47.7694 10.7342C47.7694 10.6237 47.7545 10.5977 47.6905 10.5977C47.6265 10.5977 47.6113 10.5717 47.6113 10.4611C47.6113 10.3761 47.5924 10.3243 47.5609 10.3243C47.5329 10.3243 47.4884 10.2761 47.4616 10.217C47.3571 9.98586 47.1901 9.77786 47.109 9.77786C47.0813 9.77786 47.0586 9.74272 47.0586 9.69986C47.0586 9.64762 47.0323 9.62162 46.9797 9.62162C46.9356 9.62162 46.9005 9.59562 46.9005 9.56306C46.9005 9.53097 46.874 9.5045 46.8413 9.5045C46.8083 9.5045 46.782 9.46984 46.782 9.42651C46.782 9.37451 46.7557 9.34851 46.7031 9.34851C46.6593 9.34851 46.6242 9.3225 46.6242 9.28995C46.6242 9.25762 46.6017 9.23139 46.5745 9.23139C46.547 9.23139 46.5024 9.19625 46.4754 9.15315C46.4475 9.10912 46.3833 9.07515 46.3276 9.07515C46.2665 9.07515 46.2293 9.0529 46.2293 9.01659C46.2293 8.98427 46.1958 8.95804 46.1549 8.95804C46.1136 8.95804 46.0712 8.92314 46.0598 8.88004C46.0449 8.82312 46.0061 8.8018 45.917 8.8018C45.8347 8.8018 45.7949 8.78283 45.7949 8.74324C45.7949 8.70155 45.752 8.68468 45.6464 8.68468C45.5407 8.68468 45.4838 8.6622 45.4485 8.60668C45.4139 8.55164 45.3566 8.52868 45.2547 8.52868C45.1722 8.52868 45.077 8.49917 45.0336 8.46029C44.9765 8.40923 44.8713 8.38838 44.6159 8.37807C44.3771 8.36847 44.265 8.34786 44.243 8.30991C44.1953 8.22769 43.3532 8.23144 43.3212 8.31389ZM58.2598 8.31389C58.2271 8.34622 58.1653 8.37245 58.1219 8.37245C58.0044 8.37245 57.9184 8.41368 57.9184 8.46989C57.9184 8.49753 57.8722 8.53173 57.8155 8.54555C57.7506 8.56171 57.6966 8.61371 57.6686 8.68656C57.6445 8.75004 57.6021 8.8018 57.5741 8.8018C57.5431 8.8018 57.5236 8.85263 57.5236 8.93391C57.5236 9.03323 57.504 9.07117 57.4445 9.0864C57.3663 9.10677 57.3656 9.1398 57.3656 12.6632C57.3656 16.1673 57.3668 16.2205 57.4445 16.2973C57.4888 16.3411 57.5236 16.4275 57.5236 16.4938C57.5236 16.5629 57.5483 16.6215 57.5829 16.6346C57.6153 16.647 57.6421 16.6831 57.6421 16.7152C57.6421 16.747 57.6776 16.7824 57.721 16.7936C57.7644 16.8049 57.7999 16.8384 57.7999 16.8679C57.7999 16.9037 57.8468 16.922 57.9383 16.922C58.0141 16.922 58.0764 16.9396 58.0764 16.9611C58.0764 16.985 58.2674 17 58.57 17C58.8728 17 59.0638 16.985 59.0638 16.9611C59.0638 16.9396 59.1152 16.922 59.178 16.922C59.2431 16.922 59.3019 16.8969 59.3149 16.8634C59.3275 16.8311 59.3649 16.8049 59.3981 16.8049C59.4322 16.8049 59.4585 16.7709 59.4585 16.7269C59.4585 16.6838 59.4834 16.6486 59.5137 16.6486C59.5732 16.6486 59.6165 16.5669 59.6165 16.4545C59.6165 16.4156 59.6431 16.3737 59.6758 16.3612C59.7274 16.3418 59.735 16.0902 59.735 14.4248C59.735 12.5627 59.7371 12.5086 59.8139 12.4324C59.872 12.3753 59.8931 12.3024 59.8931 12.1593C59.8931 12.0117 59.9075 11.964 59.9523 11.964C59.9935 11.964 60.0115 11.9227 60.0115 11.8274C60.0115 11.7168 60.0265 11.6908 60.0904 11.6908C60.1414 11.6908 60.1693 11.6648 60.1693 11.6175C60.1693 11.5772 60.1961 11.5222 60.2286 11.4955C60.2613 11.4688 60.2878 11.414 60.2878 11.3737C60.2878 11.3327 60.3155 11.3004 60.3508 11.3004C60.3854 11.3004 60.4231 11.2652 60.4345 11.2224C60.4458 11.1793 60.4797 11.1441 60.5096 11.1441C60.5397 11.1441 60.5643 11.109 60.5643 11.0661C60.5643 11.0029 60.5906 10.9881 60.7025 10.9881C60.7991 10.9881 60.8408 10.9703 60.8408 10.9296C60.8408 10.89 60.8806 10.871 60.9629 10.871C61.0519 10.871 61.0908 10.8497 61.1057 10.7928C61.1249 10.7202 61.1595 10.7148 61.6154 10.7148C62.0781 10.7148 62.1045 10.719 62.1045 10.7928C62.1045 10.856 62.1307 10.871 62.2426 10.871C62.3393 10.871 62.381 10.8886 62.381 10.9296C62.381 10.9617 62.4144 10.9881 62.4554 10.9881C62.4964 10.9881 62.5388 11.023 62.5504 11.0661C62.5629 11.1135 62.6042 11.1441 62.6553 11.1441C62.7079 11.1441 62.7655 11.1884 62.8072 11.261C62.8442 11.3254 62.8878 11.3781 62.9041 11.3781C62.9205 11.3784 62.9338 11.4041 62.9338 11.4355C62.9338 11.4672 62.9693 11.5117 63.0127 11.5346C63.0562 11.5576 63.0918 11.6009 63.0918 11.6309C63.0918 11.6606 63.1157 11.7089 63.1449 11.7377C63.1742 11.7667 63.2107 11.8567 63.2261 11.9377C63.2415 12.019 63.2797 12.0949 63.3112 12.1068C63.3598 12.1254 63.3681 12.4212 63.3681 14.132C63.3681 15.7595 63.378 16.1455 63.4214 16.1881C63.4505 16.2172 63.4865 16.3046 63.5015 16.3823C63.5162 16.4603 63.5545 16.5341 63.5865 16.5461C63.6185 16.5582 63.6446 16.6114 63.6446 16.6643C63.6446 16.7262 63.6728 16.7695 63.7235 16.7854C63.7671 16.799 63.8026 16.8353 63.8026 16.866C63.8026 16.904 63.8472 16.922 63.9408 16.922C64.0168 16.922 64.0789 16.9396 64.0789 16.9611C64.0789 16.985 64.2632 17 64.5528 17C64.8426 17 65.0267 16.985 65.0267 16.9611C65.0267 16.9396 65.089 16.922 65.165 16.922C65.2563 16.922 65.3032 16.9037 65.3032 16.8679C65.3032 16.8384 65.3387 16.8049 65.3821 16.7936C65.4257 16.7824 65.4612 16.7452 65.4612 16.711C65.4612 16.6768 65.4878 16.6486 65.5205 16.6486C65.5617 16.6486 65.5797 16.6074 65.5797 16.5121C65.5797 16.4015 65.5946 16.3755 65.6586 16.3755C65.7366 16.3755 65.7375 16.3495 65.7375 14.1697C65.7375 12.0162 65.7356 11.9621 65.6586 11.886C65.5958 11.8239 65.5797 11.7557 65.5797 11.5541C65.5797 11.3545 65.5669 11.3004 65.5205 11.3004C65.4754 11.3004 65.4612 11.2524 65.4612 11.1015C65.4612 10.9354 65.4482 10.8994 65.3821 10.8823C65.3229 10.8668 65.3032 10.8291 65.3032 10.7298C65.3032 10.6384 65.2849 10.5977 65.2439 10.5977C65.2112 10.5977 65.1847 10.5639 65.1847 10.5227C65.1847 10.4065 65.1421 10.3243 65.0819 10.3243C65.0516 10.3243 65.0267 10.2892 65.0267 10.2463C65.0267 10.203 65.0004 10.1683 64.9674 10.1683C64.9307 10.1683 64.9082 10.1313 64.9082 10.0709C64.9082 10.0161 64.8738 9.95259 64.8293 9.92495C64.7859 9.89802 64.7504 9.85398 64.7504 9.82705C64.7504 9.79987 64.7236 9.77786 64.6912 9.77786C64.6585 9.77786 64.6319 9.74975 64.6319 9.71555C64.6319 9.68135 64.5964 9.64434 64.5528 9.6331C64.5094 9.62186 64.4739 9.58836 64.4739 9.55861C64.4739 9.52887 64.4471 9.5045 64.4146 9.5045C64.3819 9.5045 64.3554 9.47663 64.3554 9.44243C64.3554 9.40823 64.3199 9.37099 64.2765 9.35975C64.2329 9.3485 64.1974 9.31501 64.1974 9.28526C64.1974 9.25551 64.164 9.23139 64.123 9.23139C64.082 9.23139 64.0396 9.19649 64.028 9.15315C64.0145 9.10162 63.9742 9.07515 63.9092 9.07515C63.8552 9.07515 63.8007 9.04892 63.7882 9.01659C63.7758 8.98427 63.7422 8.95804 63.7138 8.95804C63.6853 8.95804 63.6318 8.9229 63.5946 8.88004C63.5574 8.83694 63.4906 8.8018 63.4463 8.8018C63.402 8.8018 63.3555 8.77557 63.343 8.74324C63.3271 8.70225 63.2624 8.68468 63.1271 8.68468C62.9601 8.68468 62.9338 8.67414 62.9338 8.60668C62.9338 8.53595 62.9074 8.52868 62.6572 8.52868C62.4419 8.52868 62.381 8.51604 62.381 8.47177C62.381 8.33966 60.8415 8.32865 60.7444 8.46029C60.7077 8.50995 60.6387 8.52868 60.4911 8.52868C60.3314 8.52868 60.2781 8.54508 60.2392 8.60668C60.2042 8.6622 60.1471 8.68468 60.0414 8.68468C59.9407 8.68468 59.8931 8.70225 59.8931 8.73926C59.8931 8.77369 59.8381 8.79876 59.7433 8.80789C59.518 8.82897 59.4699 8.80883 59.4443 8.68187C59.426 8.59193 59.3941 8.56077 59.3014 8.5425C59.2358 8.52939 59.1822 8.4966 59.1822 8.46942C59.1822 8.41485 59.0965 8.37245 58.9863 8.37245C58.9472 8.37245 58.8932 8.34622 58.8661 8.31389C58.832 8.27314 58.7413 8.25533 58.5681 8.25533C58.3994 8.25533 58.2999 8.27431 58.2598 8.31389ZM90.0277 8.30991C89.9976 8.34551 89.873 8.36917 89.6645 8.37854C89.4138 8.38978 89.3387 8.40712 89.3084 8.46076C89.2799 8.51088 89.2193 8.52868 89.0745 8.52868C88.9053 8.52868 88.879 8.53923 88.879 8.60668C88.879 8.67133 88.8527 8.68468 88.726 8.68468C88.6381 8.68468 88.5518 8.70975 88.5236 8.74324C88.4966 8.77557 88.4454 8.8018 88.4099 8.8018C88.3743 8.8018 88.3229 8.83694 88.2959 8.88004C88.268 8.92407 88.2037 8.95804 88.1481 8.95804C88.0869 8.95804 88.0497 8.98029 88.0497 9.01659C88.0497 9.04892 88.0185 9.07515 87.9803 9.07515C87.9419 9.07515 87.8886 9.11029 87.8614 9.15315C87.8336 9.19742 87.7694 9.23139 87.7137 9.23139C87.6526 9.23139 87.6154 9.25341 87.6154 9.28995C87.6154 9.32204 87.5886 9.34851 87.5562 9.34851C87.5232 9.34851 87.4969 9.38317 87.4969 9.42651C87.4969 9.47851 87.4706 9.5045 87.4178 9.5045C87.374 9.5045 87.3389 9.5305 87.3389 9.56306C87.3389 9.59539 87.3121 9.62162 87.2797 9.62162C87.2467 9.62162 87.2204 9.65629 87.2204 9.69986C87.2204 9.75186 87.1941 9.77786 87.1415 9.77786C87.0975 9.77786 87.0624 9.80386 87.0624 9.83641C87.0624 9.86874 87.0269 9.93011 86.9835 9.97297C86.9401 10.0161 86.9046 10.0774 86.9046 10.1098C86.9046 10.1419 86.8778 10.1683 86.8453 10.1683C86.8126 10.1683 86.7861 10.2016 86.7861 10.2421C86.7861 10.2829 86.761 10.3255 86.7304 10.3372C86.7001 10.3487 86.6631 10.4122 86.6485 10.478C86.6338 10.5438 86.5966 10.5977 86.5658 10.5977C86.5279 10.5977 86.5096 10.6422 86.5096 10.7342C86.5096 10.8246 86.4911 10.871 86.4549 10.871C86.3928 10.871 86.353 10.9881 86.3523 11.1734C86.3518 11.2601 86.3329 11.3004 86.2923 11.3004C86.2454 11.3004 86.2331 11.3568 86.2331 11.5737C86.2331 11.7803 86.2198 11.8468 86.1786 11.8468C86.0405 11.8468 86.0165 13.4396 86.1542 13.4752C86.2231 13.493 86.2331 13.5284 86.2331 13.757C86.2331 13.9261 86.2535 14.0449 86.2911 14.0939C86.3231 14.1356 86.3497 14.2285 86.3504 14.3002C86.3513 14.3974 86.3719 14.4361 86.4307 14.4513C86.4899 14.4665 86.5096 14.5045 86.5096 14.6038C86.5096 14.6951 86.5278 14.7359 86.5688 14.7359C86.6086 14.7359 86.6281 14.7752 86.6281 14.8565C86.6281 14.9446 86.6496 14.983 86.707 14.9978C86.7577 15.0109 86.7861 15.0509 86.7861 15.1095C86.7861 15.1992 86.951 15.3995 87.0247 15.3995C87.0456 15.3995 87.0624 15.4346 87.0624 15.4775C87.0624 15.5217 87.0887 15.5557 87.123 15.5557C87.1562 15.5557 87.1937 15.5819 87.2062 15.6143C87.2185 15.6464 87.2536 15.6728 87.2839 15.6728C87.3143 15.6728 87.3389 15.708 87.3389 15.7508C87.3389 15.8028 87.3652 15.8288 87.4178 15.8288C87.4706 15.8288 87.4969 15.8548 87.4969 15.9071C87.4969 15.9504 87.5232 15.9851 87.5562 15.9851C87.5886 15.9851 87.6154 16.0113 87.6154 16.0436C87.6154 16.0762 87.6505 16.1022 87.6943 16.1022C87.7377 16.1022 87.7732 16.1221 87.7732 16.1465C87.7732 16.2221 87.9699 16.3755 88.0668 16.3755C88.1258 16.3755 88.1666 16.4036 88.1796 16.4535C88.1948 16.5105 88.2336 16.5315 88.3225 16.5315C88.4047 16.5315 88.4447 16.5507 88.4447 16.5901C88.4447 16.6306 88.4857 16.6486 88.5783 16.6486C88.6786 16.6486 88.717 16.6681 88.7326 16.7269C88.7482 16.7861 88.7864 16.8049 88.8909 16.8049C88.9769 16.8049 89.0371 16.8269 89.0513 16.8634C89.0684 16.9072 89.1392 16.922 89.3318 16.922C89.4776 16.922 89.5899 16.9391 89.5899 16.9611C89.5899 16.9859 89.9124 17 90.4784 17C91.0445 17 91.3669 16.9859 91.3669 16.9611C91.3669 16.9386 91.4854 16.922 91.6435 16.922C91.8629 16.922 91.9197 16.9098 91.9197 16.8634C91.9197 16.8213 91.9633 16.8049 92.0745 16.8049C92.2676 16.8049 92.3543 16.7733 92.3543 16.7032C92.3543 16.6669 92.4007 16.6486 92.4924 16.6486C92.5855 16.6486 92.6306 16.6306 92.6306 16.5934C92.6306 16.5627 92.6851 16.5259 92.7519 16.5116C92.8185 16.4971 92.8824 16.4606 92.8943 16.4303C92.9059 16.4001 92.9492 16.3755 92.9902 16.3755C93.0315 16.3755 93.0651 16.3491 93.0651 16.317C93.0651 16.2846 93.0917 16.2584 93.1244 16.2584C93.1568 16.2584 93.2191 16.2233 93.2625 16.1802C93.3058 16.1373 93.3682 16.1022 93.4006 16.1022C93.4333 16.1022 93.4599 16.0771 93.4599 16.0462C93.4599 16.0155 93.4954 15.9792 93.539 15.9656C93.5824 15.9518 93.6179 15.9155 93.6179 15.8848C93.6179 15.8541 93.6447 15.8288 93.6771 15.8288C93.7101 15.8288 93.7364 15.7942 93.7364 15.7508C93.7364 15.6988 93.7627 15.6728 93.8153 15.6728C93.8589 15.6728 93.8944 15.6482 93.8944 15.6183C93.8944 15.5885 93.921 15.5538 93.9537 15.5414C93.9882 15.5283 94.0129 15.47 94.0129 15.4006C94.0129 15.3084 94.0302 15.2824 94.0918 15.2824C94.1444 15.2824 94.1707 15.2564 94.1707 15.2044C94.1707 15.1608 94.197 15.1261 94.2299 15.1261C94.2714 15.1261 94.2892 15.0849 94.2892 14.9896C94.2892 14.879 94.3043 14.853 94.3683 14.853C94.4323 14.853 94.4472 14.827 94.4472 14.7162C94.4472 14.6057 94.4621 14.5797 94.5261 14.5797C94.5901 14.5797 94.6052 14.5537 94.6052 14.4431C94.6052 14.3475 94.623 14.3063 94.6645 14.3063C94.71 14.3063 94.7237 14.2564 94.7237 14.0917C94.7237 13.9348 94.7384 13.877 94.7782 13.877C94.8562 13.877 94.8803 13.7514 94.8811 13.345C94.8815 13.0763 94.8962 12.9766 94.9408 12.94C94.9813 12.9068 95 12.8182 95 12.6608C95 12.4917 94.9844 12.424 94.9408 12.4076C94.8936 12.3898 94.8815 12.3057 94.8815 11.9954C94.8815 11.6381 94.8749 11.6037 94.8026 11.585C94.7363 11.5679 94.7237 11.5318 94.7237 11.3592C94.7237 11.2324 94.7029 11.1366 94.6692 11.1092C94.6394 11.0846 94.6038 10.9947 94.5898 10.9092C94.5737 10.8087 94.5439 10.7539 94.506 10.7539C94.4652 10.7539 94.4472 10.7122 94.4472 10.6171C94.4472 10.5208 94.4294 10.4806 94.387 10.4806C94.3539 10.4806 94.3105 10.4384 94.2906 10.3869C94.2709 10.3351 94.2358 10.2815 94.2126 10.2674C94.1896 10.2533 94.1707 10.1988 94.1707 10.1463C94.1707 10.0772 94.1491 10.0512 94.0918 10.0512C94.0392 10.0512 94.0129 10.0252 94.0129 9.97297C94.0129 9.92964 93.9866 9.89497 93.9537 9.89497C93.921 9.89497 93.8944 9.86874 93.8944 9.83641C93.8944 9.80386 93.8593 9.77786 93.8153 9.77786C93.7714 9.77786 93.7364 9.75186 93.7364 9.7193C93.7364 9.64364 93.5956 9.5045 93.5191 9.5045C93.4862 9.5045 93.4599 9.46984 93.4599 9.42651C93.4599 9.38317 93.4336 9.34851 93.4006 9.34851C93.3682 9.34851 93.3414 9.32204 93.3414 9.28995C93.3414 9.25739 93.3063 9.23139 93.2625 9.23139C93.2099 9.23139 93.1836 9.20539 93.1836 9.15315C93.1836 9.10256 93.1573 9.07515 93.1087 9.07515C93.0677 9.07515 93.0236 9.04892 93.0113 9.01659C92.9988 8.98427 92.9447 8.95804 92.8912 8.95804C92.8286 8.95804 92.7851 8.93016 92.7689 8.88004C92.7516 8.82616 92.709 8.8018 92.6322 8.8018C92.5694 8.8018 92.5107 8.77627 92.4979 8.74324C92.4839 8.70717 92.4237 8.68468 92.3403 8.68468C92.2387 8.68468 92.2003 8.66548 92.1849 8.60668C92.1683 8.54414 92.1308 8.52868 91.997 8.52868C91.8854 8.52868 91.8136 8.50667 91.7806 8.4624C91.742 8.41016 91.6501 8.39236 91.3487 8.37948C91.0719 8.36753 90.9601 8.34786 90.9449 8.30921C90.9149 8.23121 90.0931 8.23191 90.0277 8.30991ZM49.7734 8.39751C49.7355 8.40829 49.7045 8.44225 49.7045 8.47294C49.7045 8.5055 49.6654 8.52868 49.6104 8.52868C49.5116 8.52868 49.3446 8.70811 49.2927 8.8702C49.2773 8.91845 49.2391 8.95804 49.2081 8.95804C49.1219 8.95804 49.123 16.4451 49.2093 16.4779C49.241 16.4898 49.2778 16.5334 49.291 16.5742C49.3041 16.6152 49.3403 16.6486 49.3714 16.6486C49.4026 16.6486 49.428 16.6838 49.428 16.7269C49.428 16.7789 49.4543 16.8049 49.5069 16.8049C49.551 16.8049 49.586 16.8309 49.586 16.8634C49.586 16.8958 49.6126 16.922 49.6453 16.922C49.6777 16.922 49.7045 16.9396 49.7045 16.9611C49.7045 16.9852 49.9151 17 50.2573 17C50.5994 17 50.8101 16.9852 50.8101 16.9611C50.8101 16.9396 50.8724 16.922 50.9485 16.922C51.0397 16.922 51.0866 16.9037 51.0866 16.8679C51.0866 16.8384 51.1221 16.8049 51.1655 16.7936C51.2091 16.7824 51.2446 16.747 51.2446 16.7152C51.2446 16.6831 51.2712 16.647 51.3039 16.6346C51.3444 16.6191 51.3631 16.5564 51.3631 16.4353C51.3631 16.3104 51.3863 16.2355 51.442 16.1802C51.519 16.1043 51.5209 16.0502 51.5209 14.1112C51.5209 12.3676 51.5282 12.1202 51.5801 12.1202C51.6211 12.1202 51.6394 12.0794 51.6394 11.9881C51.6394 11.8888 51.659 11.8511 51.7185 11.8356C51.7759 11.8208 51.7974 11.7824 51.7974 11.6944C51.7974 11.61 51.8164 11.5737 51.8604 11.5737C51.895 11.5737 51.9325 11.5386 51.9439 11.4955C51.9552 11.4526 51.9891 11.4175 52.0192 11.4175C52.0493 11.4175 52.0739 11.3913 52.0739 11.3589C52.0739 11.3266 52.1021 11.3004 52.1367 11.3004C52.1713 11.3004 52.209 11.2652 52.2204 11.2224C52.2317 11.1793 52.2656 11.1441 52.2957 11.1441C52.3258 11.1441 52.3502 11.109 52.3502 11.0661C52.3502 11.0029 52.3765 10.9881 52.4886 10.9881C52.585 10.9881 52.6267 10.9703 52.6267 10.9296C52.6267 10.8886 52.6684 10.871 52.7649 10.871C52.8769 10.871 52.9032 10.856 52.9032 10.7928C52.9032 10.719 52.9295 10.7148 53.3923 10.7148C53.8479 10.7148 53.8825 10.7202 53.9019 10.7928C53.919 10.8581 53.9557 10.871 54.1237 10.871C54.2761 10.871 54.3249 10.8851 54.3249 10.9296C54.3249 10.9617 54.3493 10.9881 54.3794 10.9881C54.4095 10.9881 54.4434 11.0233 54.4547 11.0661C54.4685 11.1186 54.5085 11.1441 54.5765 11.1441C54.6369 11.1441 54.6943 11.1755 54.7196 11.2224C54.7429 11.2652 54.7881 11.3004 54.8199 11.3004C54.8516 11.3004 54.8777 11.3266 54.8777 11.3589C54.8777 11.3995 54.9189 11.4175 55.0113 11.4175C55.1118 11.4175 55.1499 11.4369 55.1656 11.4955C55.1999 11.6255 55.9835 11.6025 55.9835 11.4716C55.9835 11.4358 56.0302 11.4175 56.1216 11.4175C56.2181 11.4175 56.2598 11.3999 56.2598 11.3589C56.2598 11.3266 56.2865 11.3004 56.319 11.3004C56.3519 11.3004 56.3782 11.2657 56.3782 11.2224C56.3782 11.1701 56.4045 11.1441 56.4574 11.1441C56.5012 11.1441 56.5363 11.1181 56.5363 11.0856C56.5363 11.0535 56.5732 10.9905 56.6183 10.946C56.732 10.8335 56.7211 9.876 56.6055 9.81206C56.5673 9.79121 56.5363 9.73967 56.5363 9.69775C56.5363 9.64762 56.5093 9.62162 56.4574 9.62162C56.4133 9.62162 56.3782 9.59562 56.3782 9.56306C56.3782 9.53097 56.3517 9.5045 56.319 9.5045C56.2861 9.5045 56.2598 9.46984 56.2598 9.42651C56.2598 9.37451 56.2335 9.34851 56.1809 9.34851C56.137 9.34851 56.102 9.3225 56.102 9.28995C56.102 9.25341 56.0645 9.23139 56.0034 9.23139C55.948 9.23139 55.8837 9.19742 55.8558 9.15315C55.8285 9.11029 55.784 9.07515 55.7567 9.07515C55.7293 9.07515 55.707 9.04892 55.707 9.01659C55.707 8.9756 55.6653 8.95804 55.5688 8.95804C55.4568 8.95804 55.4305 8.94328 55.4305 8.88004C55.4305 8.81679 55.4042 8.8018 55.2923 8.8018C55.1959 8.8018 55.1542 8.78423 55.1542 8.74324C55.1542 8.69991 55.108 8.68468 54.9767 8.68468C54.8421 8.68468 54.7874 8.66595 54.75 8.60668C54.7087 8.5411 54.658 8.52868 54.4339 8.52868C54.2289 8.52868 54.1669 8.51557 54.1669 8.47294C54.1669 8.34177 52.7345 8.33123 52.6606 8.46193C52.631 8.51416 52.5673 8.52868 52.3644 8.52868C52.1391 8.52868 52.1033 8.53876 52.0853 8.60668C52.0692 8.66735 52.0315 8.68468 51.9161 8.68468C51.8323 8.68468 51.7462 8.71022 51.7185 8.74324C51.6915 8.77557 51.6176 8.8018 51.5543 8.8018C51.4721 8.8018 51.4292 8.82687 51.4039 8.88964C51.3757 8.95897 51.3676 8.96272 51.3655 8.90791C51.3641 8.86973 51.3363 8.82827 51.3039 8.81609C51.2712 8.80368 51.2446 8.76901 51.2446 8.73926C51.2446 8.70928 51.2091 8.68468 51.1655 8.68468C51.1129 8.68468 51.0866 8.65868 51.0866 8.60668C51.0866 8.56382 51.0608 8.52868 51.0292 8.52868C50.9977 8.52868 50.9546 8.49777 50.9333 8.46029C50.8949 8.39236 49.9682 8.342 49.7734 8.39751ZM70.4449 8.40103C70.3093 8.4104 70.2276 8.43569 70.2134 8.47224C70.1968 8.51533 70.1124 8.52868 69.8565 8.52868C69.5544 8.52868 69.5191 8.53641 69.5006 8.60668C69.4836 8.67133 69.4468 8.68468 69.2871 8.68468C69.1421 8.68468 69.0943 8.69921 69.0943 8.74324C69.0943 8.78423 69.0526 8.8018 68.9561 8.8018C68.8441 8.8018 68.8178 8.81679 68.8178 8.88004C68.8178 8.94328 68.7915 8.95804 68.6796 8.95804C68.5879 8.95804 68.5415 8.97631 68.5415 9.01214C68.5415 9.0433 68.4823 9.07749 68.4031 9.09202C68.3204 9.10748 68.265 9.14051 68.265 9.17447C68.265 9.20586 68.2294 9.23139 68.1861 9.23139C68.1425 9.23139 68.1069 9.25551 68.1069 9.28526C68.1069 9.31501 68.0714 9.3485 68.028 9.35975C67.9847 9.37099 67.9491 9.40823 67.9491 9.44243C67.9491 9.47663 67.9224 9.5045 67.8899 9.5045C67.8572 9.5045 67.8307 9.52887 67.8307 9.55861C67.8307 9.58836 67.7951 9.62186 67.7515 9.6331C67.7082 9.64434 67.6726 9.68135 67.6726 9.71555C67.6726 9.74975 67.6458 9.77786 67.6134 9.77786C67.5807 9.77786 67.5541 9.80222 67.5541 9.83197C67.5541 9.86148 67.5186 9.89497 67.4752 9.90622C67.4316 9.91746 67.3961 9.9547 67.3961 9.9889C67.3961 10.0231 67.3696 10.0512 67.3369 10.0512C67.3039 10.0512 67.2776 10.0859 67.2776 10.1292C67.2776 10.1721 67.2591 10.2072 67.2362 10.2072C67.2134 10.2072 67.1686 10.2688 67.1369 10.344C67.1051 10.419 67.0618 10.4806 67.0402 10.4806C67.0189 10.4806 67.0014 10.5349 67.0014 10.6014C67.0014 10.6893 66.9798 10.7277 66.9222 10.7424C66.863 10.7579 66.8433 10.7958 66.8433 10.8949C66.8433 10.9865 66.8251 11.027 66.7841 11.027C66.7395 11.027 66.7248 11.0743 66.7248 11.2177C66.7248 11.3756 66.7113 11.4119 66.6459 11.4287C66.5734 11.4475 66.5668 11.4821 66.5668 11.8391C66.5668 12.1497 66.5547 12.2336 66.5076 12.2514C66.4599 12.2696 66.4483 12.3579 66.4483 12.7058C66.4483 13.0536 66.4599 13.1419 66.5076 13.1602C66.554 13.1778 66.5668 13.2567 66.5668 13.5251C66.5668 13.835 66.5744 13.8697 66.6459 13.8882C66.7118 13.9053 66.7248 13.9416 66.7248 14.1074C66.7248 14.2583 66.7391 14.3063 66.7841 14.3063C66.8255 14.3063 66.8433 14.3475 66.8433 14.4431C66.8433 14.5537 66.8582 14.5797 66.9222 14.5797C66.9862 14.5797 67.0014 14.6057 67.0014 14.7162C67.0014 14.8069 67.0198 14.853 67.0561 14.853C67.0876 14.853 67.122 14.9113 67.1369 14.9896C67.1525 15.0713 67.1859 15.1261 67.2203 15.1261C67.2518 15.1261 67.2776 15.1613 67.2776 15.2044C67.2776 15.2477 67.3039 15.2824 67.3369 15.2824C67.3696 15.2824 67.3961 15.3086 67.3961 15.3409C67.3961 15.3735 67.4312 15.3995 67.4752 15.3995C67.5278 15.3995 67.5541 15.4255 67.5541 15.4775C67.5541 15.521 67.5804 15.5557 67.6134 15.5557C67.6458 15.5557 67.6726 15.5819 67.6726 15.6143C67.6726 15.6468 67.7077 15.6728 67.7515 15.6728C67.8044 15.6728 67.8307 15.6988 67.8307 15.7508C67.8307 15.7942 67.857 15.8288 67.8899 15.8288C67.9224 15.8288 67.9491 15.8569 67.9491 15.8911C67.9491 15.9253 67.9847 15.9626 68.028 15.9738C68.0714 15.9851 68.1069 16.0186 68.1069 16.0481C68.1069 16.0778 68.1425 16.1022 68.1861 16.1022C68.2294 16.1022 68.265 16.1277 68.265 16.1589C68.265 16.1931 68.3204 16.2261 68.4031 16.2413C68.4823 16.2561 68.5415 16.2903 68.5415 16.3212C68.5415 16.3573 68.5879 16.3755 68.6796 16.3755C68.7915 16.3755 68.8178 16.3903 68.8178 16.4535C68.8178 16.5168 68.8441 16.5315 68.9561 16.5315C69.0526 16.5315 69.0943 16.5493 69.0943 16.5901C69.0943 16.6341 69.1421 16.6486 69.2871 16.6486C69.4468 16.6486 69.4836 16.6622 69.5006 16.7269C69.5191 16.7972 69.5544 16.8049 69.8565 16.8049C70.1179 16.8049 70.1965 16.8178 70.2143 16.8634C70.2328 16.9115 70.3309 16.922 70.7529 16.922C71.1749 16.922 71.273 16.9115 71.2915 16.8634C71.309 16.8182 71.3853 16.8049 71.6255 16.8049C71.8942 16.8049 71.9438 16.7941 71.9862 16.7269C72.021 16.6721 72.0783 16.6486 72.1793 16.6486C72.2582 16.6486 72.3435 16.6243 72.3686 16.5943C72.3937 16.5643 72.4759 16.5283 72.551 16.5144C72.6328 16.4992 72.688 16.4662 72.688 16.4322C72.688 16.4011 72.7216 16.3755 72.7626 16.3755C72.8039 16.3755 72.8467 16.3516 72.8581 16.3224C72.8693 16.2933 72.9335 16.2586 73.0005 16.2453C73.0728 16.231 73.1223 16.197 73.1223 16.1617C73.1223 16.1282 73.1569 16.1022 73.2012 16.1022C73.2706 16.1022 73.2804 16.1282 73.2804 16.317C73.2804 16.4816 73.2941 16.5315 73.3396 16.5315C73.3794 16.5315 73.3988 16.5711 73.3988 16.6524C73.3988 16.7402 73.4201 16.7786 73.4777 16.7936C73.5211 16.8049 73.5566 16.8384 73.5566 16.8679C73.5566 16.9037 73.6035 16.922 73.695 16.922C73.7708 16.922 73.8331 16.9396 73.8331 16.9611C73.8331 16.9845 73.9976 17 74.2478 17C74.498 17 74.6624 16.9845 74.6624 16.9611C74.6624 16.9396 74.7245 16.922 74.8006 16.922C74.8973 16.922 74.939 16.9044 74.939 16.8634C74.939 16.8311 74.9558 16.8049 74.9766 16.8049C75.0233 16.8049 75.2152 16.6184 75.2152 16.573C75.2152 16.555 75.242 16.5299 75.2745 16.5175C75.3266 16.4978 75.3337 16.0403 75.3337 12.7266C75.3337 9.40285 75.3268 8.95804 75.2745 8.95804C75.2347 8.95804 75.2152 8.91869 75.2152 8.83717C75.2152 8.75121 75.1937 8.71092 75.1399 8.6971C75.0987 8.68633 75.0558 8.64393 75.0449 8.60317C75.0309 8.55 74.9901 8.52868 74.9032 8.52868C74.8255 8.52868 74.7809 8.50901 74.7809 8.47458C74.7809 8.39939 74.6549 8.37362 74.2824 8.37292C73.8907 8.37222 73.7147 8.40407 73.7147 8.47505C73.7147 8.50456 73.6791 8.52868 73.6358 8.52868C73.5829 8.52868 73.5566 8.55468 73.5566 8.60668C73.5566 8.65868 73.5303 8.68468 73.4777 8.68468C73.4265 8.68468 73.3988 8.71068 73.3988 8.7587C73.3988 8.79923 73.372 8.84279 73.3396 8.85497C73.2988 8.87043 73.2804 8.93321 73.2804 9.05431C73.2804 9.24568 73.1548 9.31876 73.1109 9.15315C73.0958 9.09647 73.0569 9.07515 72.9681 9.07515C72.8858 9.07515 72.8458 9.05595 72.8458 9.01659C72.8458 8.98404 72.8107 8.95804 72.7669 8.95804C72.7235 8.95804 72.688 8.93367 72.688 8.90369C72.688 8.83787 72.6027 8.8018 72.4465 8.8018C72.3795 8.8018 72.3205 8.77697 72.3072 8.74324C72.2932 8.70741 72.2333 8.68468 72.152 8.68468C72.0599 8.68468 72.0065 8.66103 71.9772 8.60668C71.9404 8.53923 71.8945 8.52868 71.6345 8.52868C71.426 8.52868 71.3208 8.51205 71.2903 8.47458C71.2422 8.41508 70.796 8.3762 70.4449 8.40103ZM81.0741 10.6562C81.0902 10.6975 81.1554 10.7148 81.2957 10.7148C81.4679 10.7148 81.4942 10.7251 81.4942 10.7928C81.4942 10.856 81.5205 10.871 81.6326 10.871C81.729 10.871 81.7707 10.8886 81.7707 10.9296C81.7707 10.9617 81.7961 10.9881 81.8274 10.9881C81.8584 10.9881 81.8951 11.0233 81.9089 11.0661C81.9229 11.109 81.9596 11.1441 81.9906 11.1441C82.0217 11.1441 82.0472 11.1706 82.0472 11.2027C82.0472 11.235 82.0755 11.2613 82.11 11.2613C82.1446 11.2613 82.1823 11.2964 82.1937 11.3395C82.2051 11.3824 82.2389 11.4175 82.269 11.4175C82.2991 11.4175 82.3235 11.44 82.3235 11.4674C82.3235 11.4948 82.3591 11.5473 82.4027 11.584C82.446 11.6208 82.4816 11.6869 82.4816 11.7307C82.4816 11.7745 82.5081 11.8204 82.5408 11.8328C82.5771 11.8466 82.6 11.9056 82.6 11.985C82.6 12.0806 82.6209 12.1214 82.6789 12.1396C82.7529 12.1628 82.7581 12.1989 82.7581 12.6842C82.7581 13.1714 82.7531 13.2054 82.6789 13.2246C82.6192 13.2401 82.6 13.2778 82.6 13.3806C82.6 13.4551 82.5733 13.538 82.5408 13.5647C82.5081 13.5914 82.4816 13.6369 82.4816 13.6657C82.4816 13.6945 82.446 13.7369 82.4027 13.7598C82.3508 13.7872 82.3235 13.8416 82.3235 13.9175C82.3235 13.9974 82.3041 14.0332 82.2607 14.0332C82.2261 14.0332 82.1885 14.0683 82.1771 14.1112C82.1657 14.1541 82.1318 14.1892 82.1018 14.1892C82.0717 14.1892 82.0472 14.2157 82.0472 14.2477C82.0472 14.2801 82.0131 14.3063 81.9714 14.3063C81.8537 14.3063 81.7707 14.3485 81.7707 14.4082C81.7707 14.4382 81.7352 14.4625 81.6918 14.4625C81.6478 14.4625 81.6127 14.4885 81.6127 14.5211C81.6127 14.5621 81.571 14.5797 81.4741 14.5797C81.3845 14.5797 81.3118 14.6073 81.2679 14.6577C81.181 14.7581 80.0726 14.7804 80.0726 14.6818C80.0726 14.6225 79.9555 14.5811 79.7863 14.5801C79.7164 14.5799 79.6778 14.5588 79.6778 14.5211C79.6778 14.4888 79.6442 14.4625 79.6034 14.4625C79.5622 14.4625 79.5198 14.4276 79.5084 14.3845C79.4963 14.3389 79.4544 14.3063 79.4079 14.3063C79.3639 14.3063 79.3013 14.2801 79.2686 14.2477C79.2362 14.2157 79.1904 14.1892 79.1672 14.1892C79.144 14.1892 79.1248 14.1541 79.1248 14.1107C79.1248 14.0676 79.0893 14.0023 79.0459 13.9655C79.0025 13.9287 78.967 13.8673 78.967 13.8292C78.967 13.791 78.9402 13.7598 78.9078 13.7598C78.8748 13.7598 78.8485 13.7252 78.8485 13.6818C78.8485 13.6387 78.813 13.5685 78.7694 13.5256C78.7255 13.4823 78.6905 13.3954 78.6905 13.3305C78.6905 13.2523 78.6708 13.2134 78.6312 13.2134C78.5817 13.2134 78.572 13.1335 78.572 12.7294C78.572 12.3355 78.5829 12.2415 78.6312 12.2233C78.6715 12.208 78.6905 12.1455 78.6905 12.0284C78.6905 11.8888 78.7054 11.8522 78.7694 11.8356C78.827 11.8208 78.8485 11.7824 78.8485 11.6944C78.8485 11.6131 78.8677 11.5737 78.9078 11.5737C78.9407 11.5737 78.967 11.5391 78.967 11.4955C78.967 11.4526 78.9871 11.4175 79.0118 11.4175C79.0644 11.4175 79.2433 11.235 79.2433 11.1812C79.2433 11.1608 79.2717 11.1441 79.3063 11.1441C79.3409 11.1441 79.3786 11.109 79.3899 11.0661C79.4013 11.0233 79.4352 10.9881 79.4651 10.9881C79.4951 10.9881 79.5198 10.9617 79.5198 10.9296C79.5198 10.8886 79.5615 10.871 79.6579 10.871C79.77 10.871 79.7963 10.856 79.7963 10.7928C79.7963 10.7242 79.8226 10.7148 80.0133 10.7148C80.1801 10.7148 80.2306 10.7012 80.2306 10.6562C80.2306 10.608 80.3026 10.5977 80.641 10.5977C80.9694 10.5977 81.0561 10.6094 81.0741 10.6562ZM44.4242 10.7928C44.4389 10.849 44.478 10.871 44.5628 10.871C44.6311 10.871 44.6903 10.8956 44.7033 10.9296C44.7166 10.9638 44.7758 10.9881 44.8457 10.9881C44.9393 10.9881 44.9656 11.0052 44.9656 11.0661C44.9656 11.1181 44.9919 11.1441 45.0445 11.1441C45.0891 11.1441 45.1234 11.1701 45.1234 11.2041C45.1234 11.2369 45.1502 11.2739 45.1827 11.2863C45.2154 11.2985 45.2419 11.3332 45.2419 11.3632C45.2419 11.3931 45.2775 11.4175 45.3211 11.4175C45.3737 11.4175 45.4 11.4435 45.4 11.4955C45.4 11.5391 45.4263 11.5737 45.4592 11.5737C45.499 11.5737 45.5184 11.6131 45.5184 11.6944C45.5184 11.7824 45.54 11.8208 45.5973 11.8356C45.6587 11.8515 45.6765 11.8888 45.6765 12.0028C45.6765 12.0858 45.7023 12.1708 45.7357 12.1982C45.7824 12.2366 45.7949 12.3481 45.7949 12.7301C45.7949 13.1335 45.785 13.2134 45.7357 13.2134C45.6961 13.2134 45.6765 13.2523 45.6765 13.3305C45.6765 13.3954 45.6414 13.4823 45.5973 13.5256C45.554 13.5685 45.5184 13.6387 45.5184 13.6818C45.5184 13.7252 45.4921 13.7598 45.4592 13.7598C45.4263 13.7598 45.4 13.7945 45.4 13.8378C45.4 13.8814 45.3736 13.9161 45.3407 13.9161C45.308 13.9161 45.2815 13.9311 45.2815 13.9493C45.2815 13.9992 45.0943 14.1892 45.0452 14.1892C45.0218 14.1892 44.9924 14.2157 44.9799 14.2477C44.9673 14.2801 44.9325 14.3063 44.9021 14.3063C44.8718 14.3063 44.8472 14.3414 44.8472 14.3845C44.8472 14.4478 44.8209 14.4625 44.7088 14.4625C44.6123 14.4625 44.5707 14.4801 44.5707 14.5211C44.5707 14.5633 44.5271 14.5797 44.4159 14.5797C44.2231 14.5797 44.1363 14.6113 44.1363 14.6813C44.1363 14.7239 44.0584 14.7359 43.7809 14.7359C43.5035 14.7359 43.4255 14.7239 43.4255 14.6813C43.4255 14.6139 43.3397 14.5797 43.1698 14.5797C43.09 14.5797 43.03 14.5569 43.0163 14.5211C43.003 14.4874 42.944 14.4625 42.8765 14.4625C42.7941 14.4625 42.7519 14.4393 42.7343 14.3845C42.7206 14.3414 42.6839 14.3063 42.6526 14.3063C42.6216 14.3063 42.5962 14.2883 42.5962 14.266C42.5962 14.244 42.5663 14.2145 42.5301 14.2009C42.4453 14.1686 42.3405 14.065 42.3081 13.9814C42.2941 13.9454 42.2555 13.9161 42.2223 13.9161C42.1879 13.9161 42.1616 13.8821 42.1616 13.8378C42.1616 13.7945 42.1353 13.7598 42.1024 13.7598C42.0699 13.7598 42.0432 13.7261 42.0432 13.6849C42.0432 13.5687 42.0008 13.4865 41.9403 13.4865C41.9039 13.4865 41.8854 13.4406 41.8854 13.3499C41.8854 13.2546 41.8674 13.2134 41.8261 13.2134C41.7766 13.2134 41.7669 13.1328 41.7669 12.7241C41.7669 12.3252 41.7778 12.2308 41.8261 12.2125C41.8659 12.1973 41.8854 12.1354 41.8854 12.023C41.8854 11.8888 41.9008 11.852 41.9643 11.8356C42.0219 11.8208 42.0432 11.7824 42.0432 11.6944C42.0432 11.6131 42.0626 11.5737 42.1024 11.5737C42.1353 11.5737 42.1616 11.5391 42.1616 11.4955C42.1616 11.4435 42.188 11.4175 42.2408 11.4175C42.2841 11.4175 42.3197 11.4006 42.3197 11.3803C42.3197 11.3596 42.3649 11.2983 42.4202 11.2437C42.4756 11.1889 42.5377 11.1441 42.5585 11.1441C42.5791 11.1441 42.5962 11.109 42.5962 11.0661C42.5962 11.0029 42.6225 10.9881 42.7343 10.9881C42.8308 10.9881 42.8725 10.9703 42.8725 10.9296C42.8725 10.89 42.9125 10.871 42.9947 10.871C43.0836 10.871 43.1225 10.8497 43.1376 10.7928C43.157 10.719 43.1914 10.7148 43.7809 10.7148C44.3702 10.7148 44.4046 10.719 44.4242 10.7928ZM71.3057 10.7928C71.3057 10.856 71.332 10.871 71.444 10.871C71.5405 10.871 71.5822 10.8886 71.5822 10.9296C71.5822 10.9703 71.6239 10.9881 71.7203 10.9881C71.8324 10.9881 71.8587 11.0029 71.8587 11.0661C71.8587 11.1181 71.885 11.1441 71.9376 11.1441C71.981 11.1441 72.0165 11.1638 72.0165 11.1875C72.0165 11.2474 72.1835 11.4161 72.2437 11.4168C72.2707 11.4173 72.293 11.4444 72.293 11.4772C72.293 11.5103 72.3195 11.5473 72.3522 11.5594C72.3847 11.5719 72.4115 11.6239 72.4115 11.6752C72.4115 11.7262 72.447 11.7902 72.4904 11.8169C72.5387 11.8468 72.5695 11.908 72.5695 11.9747C72.5695 12.0354 72.5956 12.0935 72.6288 12.1061C72.6773 12.1246 72.688 12.2249 72.688 12.6709C72.688 13.1269 72.6785 13.2134 72.6288 13.2134C72.5873 13.2134 72.5695 13.2546 72.5695 13.3499C72.5695 13.4434 72.5513 13.4865 72.512 13.4865C72.4776 13.4865 72.4442 13.5413 72.4285 13.6233C72.4138 13.7015 72.3793 13.7598 72.3477 13.7598C72.3177 13.7598 72.293 13.795 72.293 13.8378C72.293 13.8821 72.2667 13.9161 72.2326 13.9161C72.1992 13.9161 72.1617 13.9423 72.1494 13.9746C72.1369 14.0067 72.1018 14.0332 72.0717 14.0332C72.0414 14.0332 72.0165 14.0683 72.0165 14.1112C72.0165 14.1632 71.9902 14.1892 71.9376 14.1892C71.8938 14.1892 71.8587 14.2152 71.8587 14.2477C71.8587 14.2843 71.8213 14.3063 71.7601 14.3063C71.7047 14.3063 71.6405 14.3403 71.6125 14.3845C71.5796 14.4365 71.5203 14.4625 71.4346 14.4625C71.3464 14.4625 71.3057 14.481 71.3057 14.5211C71.3057 14.5703 71.218 14.5797 70.7529 14.5797C70.2878 14.5797 70.2001 14.5703 70.2001 14.5211C70.2001 14.481 70.1593 14.4625 70.0705 14.4625C69.9899 14.4625 69.9155 14.433 69.8736 14.3845C69.8364 14.3414 69.7703 14.3063 69.7264 14.3063C69.6824 14.3063 69.6471 14.2805 69.6471 14.2477C69.6471 14.2152 69.612 14.1892 69.5682 14.1892C69.5248 14.1892 69.4893 14.1693 69.4893 14.1449C69.4893 14.0929 69.3047 13.9161 69.2502 13.9161C69.2296 13.9161 69.2128 13.8809 69.2128 13.8378C69.2128 13.7945 69.1864 13.7598 69.1535 13.7598C69.1208 13.7598 69.0943 13.7378 69.0943 13.7106C69.0943 13.6837 69.0587 13.6397 69.0154 13.6127C68.9616 13.5797 68.9362 13.5216 68.9362 13.4324C68.9362 13.36 68.9097 13.279 68.877 13.2523C68.8294 13.2134 68.8178 13.0937 68.8178 12.6425C68.8178 12.1696 68.8272 12.0811 68.877 12.0811C68.9185 12.0811 68.9362 12.0399 68.9362 11.9445C68.9362 11.8693 68.9545 11.808 68.9768 11.808C68.9988 11.808 69.0384 11.7595 69.0647 11.7005C69.091 11.6414 69.135 11.5791 69.1625 11.562C69.1902 11.5447 69.2128 11.5053 69.2128 11.4742C69.2128 11.443 69.2329 11.4175 69.2575 11.4175C69.3104 11.4175 69.4893 11.235 69.4893 11.1812C69.4893 11.1608 69.5248 11.1441 69.5682 11.1441C69.6208 11.1441 69.6471 11.1181 69.6471 11.0661C69.6471 11.0052 69.6734 10.9881 69.767 10.9881C69.8369 10.9881 69.8961 10.9638 69.9094 10.9296C69.9224 10.8956 69.9816 10.871 70.0499 10.871C70.1347 10.871 70.1738 10.849 70.1885 10.7928C70.2079 10.7195 70.2425 10.7148 70.7574 10.7148C71.2794 10.7148 71.3057 10.7185 71.3057 10.7928ZM91.13 10.7691C91.13 10.8314 91.2139 10.871 91.3456 10.871C91.3954 10.871 91.4584 10.8973 91.4854 10.9296C91.5124 10.9617 91.5579 10.9881 91.5864 10.9881C91.6148 10.9881 91.6494 11.0233 91.6631 11.0661C91.6769 11.109 91.7136 11.1441 91.7449 11.1441C91.7759 11.1441 91.8013 11.1706 91.8013 11.2027C91.8013 11.2353 91.8363 11.2613 91.8804 11.2613C91.933 11.2613 91.9593 11.2873 91.9593 11.3395C91.9593 11.3824 91.9839 11.4175 92.014 11.4175C92.0439 11.4175 92.0778 11.4526 92.0891 11.4955C92.1005 11.5386 92.1382 11.5737 92.1728 11.5737C92.2138 11.5737 92.2358 11.6082 92.2358 11.6726C92.2358 11.7269 92.2624 11.7815 92.295 11.7937C92.3313 11.8075 92.3543 11.8668 92.3543 11.9462C92.3543 12.0415 92.3751 12.0825 92.4332 12.1008C92.5076 12.1239 92.5121 12.1598 92.5121 12.707C92.5121 13.2487 92.5066 13.2916 92.4332 13.3305C92.3775 13.3598 92.3543 13.4122 92.3543 13.5076C92.3543 13.6017 92.3363 13.6427 92.295 13.6427C92.2624 13.6427 92.2358 13.6647 92.2358 13.6919C92.2358 13.7188 92.2003 13.7629 92.1567 13.7898C92.1121 13.8175 92.0778 13.8809 92.0778 13.9357C92.0778 13.9943 92.0553 14.0332 92.0211 14.0332C91.9901 14.0332 91.9534 14.0683 91.9396 14.1112C91.9256 14.1541 91.8889 14.1892 91.8579 14.1892C91.8268 14.1892 91.8013 14.2157 91.8013 14.2477C91.8013 14.2873 91.7615 14.3063 91.6792 14.3063C91.5901 14.3063 91.5513 14.3276 91.5364 14.3845C91.5217 14.4401 91.4826 14.4625 91.4006 14.4625C91.3347 14.4625 91.2757 14.4876 91.2627 14.5211C91.2504 14.5534 91.193 14.5799 91.1357 14.5801C90.9705 14.5811 90.8535 14.6232 90.8535 14.6818C90.8535 14.7806 90.141 14.7572 90.1147 14.6577C90.0976 14.593 90.0609 14.5797 89.9012 14.5797C89.7562 14.5797 89.7083 14.5651 89.7083 14.5211C89.7083 14.4801 89.6666 14.4625 89.5702 14.4625C89.4581 14.4625 89.4318 14.4478 89.4318 14.3845C89.4318 14.3323 89.4055 14.3063 89.3529 14.3063C89.3091 14.3063 89.274 14.2803 89.274 14.2477C89.274 14.2157 89.2494 14.1892 89.2193 14.1892C89.1892 14.1892 89.1553 14.1541 89.1439 14.1112C89.1326 14.0683 89.0951 14.0332 89.0605 14.0332C89.0259 14.0332 88.9975 14.0067 88.9975 13.9746C88.9975 13.9423 88.9707 13.9161 88.9383 13.9161C88.9053 13.9161 88.879 13.8814 88.879 13.8378C88.879 13.7858 88.8527 13.7598 88.8001 13.7598C88.7362 13.7598 88.721 13.7338 88.721 13.6233C88.721 13.5277 88.7032 13.4865 88.6618 13.4865C88.6172 13.4865 88.6025 13.4394 88.6025 13.2958C88.6025 13.1382 88.589 13.1019 88.5236 13.0848C88.4523 13.0665 88.4447 13.0316 88.4447 12.729C88.4447 12.4455 88.4568 12.3814 88.5236 12.3153C88.5715 12.2682 88.6025 12.1853 88.6025 12.1054C88.6025 12.0328 88.6293 11.9518 88.6618 11.9251C88.6945 11.8984 88.721 11.8347 88.721 11.7836C88.721 11.7302 88.7445 11.6908 88.7762 11.6908C88.8364 11.6908 88.879 11.6086 88.879 11.4924C88.879 11.4512 88.9058 11.4175 88.9383 11.4175C88.9707 11.4175 88.9975 11.3931 88.9975 11.3634C88.9975 11.3339 89.0331 11.3004 89.0764 11.2891C89.12 11.2779 89.1556 11.2406 89.1556 11.2065C89.1556 11.1723 89.1778 11.1441 89.2053 11.1441C89.2326 11.1441 89.2771 11.109 89.3044 11.0661C89.3321 11.0221 89.3963 10.9881 89.452 10.9881C89.5131 10.9881 89.5503 10.9659 89.5503 10.9296C89.5503 10.8888 89.5918 10.871 89.6858 10.871C89.7868 10.871 89.828 10.8509 89.8465 10.7928C89.8789 10.6918 91.13 10.6686 91.13 10.7691Z" fill="#FCFCFC"/>
<path fill-rule="evenodd" clip-rule="evenodd" d="M18.0362 4.02781C18.0362 4.04297 18.006 4.05546 17.9693 4.05546C17.8997 4.05546 17.7631 4.16338 17.7631 4.21834C17.7631 4.23566 17.7443 4.24982 17.7213 4.24982C17.6982 4.24982 17.6715 4.27163 17.6619 4.29845C17.6522 4.32509 17.6281 4.3569 17.6081 4.36923C17.5883 4.38139 17.5719 4.42635 17.5719 4.46899C17.5719 4.51162 17.5474 4.56925 17.5172 4.59706C17.4368 4.67101 17.4437 14.9494 17.5243 14.9952C17.5621 15.0167 17.5719 15.0599 17.5719 15.2024C17.5719 15.3367 17.5824 15.3863 17.6129 15.3983C17.6366 15.4074 17.6538 15.4491 17.6538 15.497C17.6538 15.5567 17.6692 15.5841 17.7086 15.5945C17.7495 15.6055 17.7631 15.6324 17.7631 15.7029C17.7631 15.768 17.7757 15.7968 17.8041 15.7968C17.8265 15.7968 17.845 15.8151 17.845 15.8374C17.845 15.8599 17.8696 15.8916 17.8996 15.9079C17.9308 15.9249 17.9543 15.966 17.9543 16.0042C17.9543 16.0463 17.9743 16.0771 18.0088 16.0883C18.0388 16.0981 18.0634 16.1239 18.0634 16.1457C18.0634 16.1675 18.0819 16.1855 18.1043 16.1855C18.1269 16.1855 18.1453 16.2053 18.1453 16.2297C18.1453 16.254 18.1698 16.2805 18.2 16.2884C18.23 16.2964 18.2545 16.3203 18.2545 16.3414C18.2545 16.3667 18.287 16.3797 18.35 16.3797C18.4275 16.3797 18.4457 16.3904 18.4457 16.4353C18.4457 16.4662 18.4639 16.4908 18.4867 16.4908C18.5091 16.4908 18.5276 16.5095 18.5276 16.5324C18.5276 16.5616 18.5564 16.5741 18.6231 16.5741C18.7004 16.5741 18.7186 16.5846 18.7186 16.6295C18.7186 16.6733 18.7368 16.6852 18.8044 16.6852C18.8515 16.6852 18.9042 16.7046 18.9214 16.7286C18.9386 16.7524 19.0076 16.7793 19.0746 16.7881C19.1416 16.7971 19.2207 16.8212 19.2503 16.8419C19.3334 16.8998 20.2476 16.896 20.2476 16.8377C20.2476 16.8119 20.2733 16.7961 20.3158 16.7961C20.3534 16.7961 20.4086 16.7711 20.4386 16.7406C20.4688 16.7101 20.5056 16.6852 20.5205 16.6852C20.5356 16.6852 20.5479 16.6602 20.5479 16.6295C20.5479 16.5926 20.5661 16.5741 20.6024 16.5741C20.6329 16.5741 20.6571 16.5556 20.6571 16.5324C20.6571 16.5095 20.6755 16.4908 20.6981 16.4908C20.7209 16.4908 20.739 16.4662 20.739 16.4353C20.739 16.4047 20.7561 16.3797 20.777 16.3797C20.8247 16.3797 20.8481 16.3194 20.8481 16.197C20.8481 16.1312 20.8607 16.1023 20.8891 16.1023C20.9233 16.1023 20.93 16.0466 20.93 15.7682C20.93 15.497 20.9223 15.4312 20.8891 15.4183C20.8639 15.4084 20.8481 15.3663 20.8481 15.3082C20.8481 15.2324 20.8375 15.2139 20.7936 15.2139C20.7494 15.2139 20.739 15.1954 20.739 15.1168C20.739 15.049 20.7266 15.0197 20.6981 15.0197C20.6755 15.0197 20.6571 15.0009 20.6571 14.9781C20.6571 14.9549 20.6329 14.9364 20.6024 14.9364C20.5661 14.9364 20.5479 14.918 20.5479 14.8808C20.5479 14.8364 20.5297 14.8254 20.4555 14.8254C20.386 14.8254 20.3597 14.8115 20.3488 14.7699C20.3375 14.7261 20.3117 14.7143 20.2262 14.7143C20.1631 14.7143 20.1035 14.697 20.0838 14.6726C20.0609 14.6447 19.9993 14.631 19.8948 14.631C19.8094 14.631 19.7251 14.616 19.707 14.5977C19.6818 14.572 19.6743 13.4397 19.6743 9.66999C19.6743 5.34484 19.6695 4.7736 19.6333 4.75944C19.6045 4.74828 19.5924 4.70248 19.5924 4.60505C19.5924 4.48997 19.583 4.46416 19.5377 4.45217C19.5075 4.44417 19.4831 4.41436 19.4831 4.38538C19.4831 4.35657 19.4646 4.33309 19.4422 4.33309C19.4196 4.33309 19.4012 4.3166 19.4012 4.29628C19.4012 4.25165 19.2875 4.13873 19.2425 4.13873C19.2246 4.13873 19.21 4.12008 19.21 4.0971C19.21 4.07395 19.1858 4.05546 19.1555 4.05546C19.1255 4.05546 19.1009 4.04297 19.1009 4.02781C19.1009 4.01016 18.9052 4 18.5686 4C18.2318 4 18.0362 4.01016 18.0362 4.02781ZM28.3834 4.02781C28.3834 4.04297 28.3588 4.05546 28.3288 4.05546C28.2985 4.05546 28.2743 4.07395 28.2743 4.0971C28.2743 4.12024 28.25 4.13873 28.2196 4.13873C28.1832 4.13873 28.165 4.15722 28.165 4.19436C28.165 4.22483 28.148 4.24982 28.127 4.24982C28.106 4.24982 28.0818 4.26864 28.0733 4.29145C28.0646 4.31427 28.0387 4.33309 28.0158 4.33309C27.9927 4.33309 27.9738 4.35357 27.9738 4.37855C27.9738 4.4037 27.9542 4.43868 27.9301 4.45666C27.9052 4.47532 27.88 4.54743 27.8713 4.62554C27.8629 4.70065 27.8397 4.77893 27.8195 4.79941C27.7894 4.82989 27.7828 5.19146 27.7828 6.79161C27.7828 8.72802 27.7824 8.7465 27.7281 8.7465C27.6978 8.7465 27.6736 8.72802 27.6736 8.70487C27.6736 8.67572 27.6447 8.66323 27.5781 8.66323C27.5006 8.66323 27.4824 8.65274 27.4824 8.60777C27.4824 8.56281 27.4642 8.55215 27.3869 8.55215C27.3202 8.55215 27.2914 8.53966 27.2914 8.51051C27.2914 8.48003 27.2603 8.46888 27.1751 8.46888C27.0883 8.46888 27.0501 8.45489 27.0247 8.41342C26.998 8.36995 26.961 8.35796 26.8544 8.35796C26.7513 8.35796 26.7181 8.34763 26.7181 8.31632C26.7181 8.28235 26.6725 8.27468 26.4724 8.27468C26.2448 8.27468 26.2266 8.27052 26.2266 8.21906C26.2266 8.1651 26.2085 8.1636 25.5688 8.1636C24.934 8.1636 24.9104 8.1656 24.8967 8.21906C24.8839 8.26902 24.8595 8.27468 24.6536 8.27468C24.4683 8.27468 24.4247 8.28251 24.4247 8.31632C24.4247 8.3483 24.3899 8.35796 24.2745 8.35796C24.1425 8.35796 24.1243 8.36462 24.1243 8.41342C24.1243 8.46071 24.1061 8.46888 24.0006 8.46888C23.916 8.46888 23.8721 8.48203 23.8612 8.51051C23.8514 8.53649 23.8098 8.55215 23.7503 8.55215C23.6781 8.55215 23.6517 8.56564 23.6409 8.60777C23.6309 8.64641 23.6036 8.66323 23.5508 8.66323C23.5086 8.66323 23.4679 8.68172 23.4593 8.70487C23.4506 8.72768 23.4247 8.7465 23.4018 8.7465C23.3782 8.7465 23.36 8.77065 23.36 8.80196C23.36 8.84693 23.3418 8.85759 23.2643 8.85759C23.1977 8.85759 23.1688 8.87008 23.1688 8.89922C23.1688 8.92237 23.1446 8.94086 23.1143 8.94086C23.0777 8.94086 23.0596 8.95935 23.0596 8.99632C23.0596 9.03846 23.0414 9.05178 22.9844 9.05178C22.9333 9.05178 22.881 9.08309 22.8214 9.14904C22.7732 9.2025 22.721 9.24614 22.7056 9.24614C22.69 9.24614 22.6774 9.26346 22.6774 9.28461C22.6774 9.30559 22.6528 9.32941 22.6228 9.3374C22.5927 9.3454 22.5681 9.37188 22.5681 9.39619C22.5681 9.42051 22.5498 9.44049 22.5272 9.44049C22.5047 9.44049 22.4862 9.45765 22.4862 9.4788C22.4862 9.49995 22.4617 9.52376 22.4317 9.53176C22.4017 9.53975 22.3771 9.56623 22.3771 9.59055C22.3771 9.61486 22.3586 9.63468 22.3362 9.63468C22.3134 9.63468 22.2952 9.65933 22.2952 9.69031C22.2952 9.72079 22.278 9.74577 22.2571 9.74577C22.2154 9.74577 22.186 9.80406 22.186 9.88683C22.186 9.91614 22.1675 9.94012 22.145 9.94012C22.1224 9.94012 22.1041 9.95728 22.1041 9.97843C22.1041 9.99958 22.0795 10.0234 22.0495 10.0314C22.0123 10.0412 21.9948 10.0692 21.9948 10.1188C21.9948 10.1588 21.9765 10.1988 21.9538 10.2076C21.9314 10.2164 21.9129 10.2457 21.9129 10.2729C21.9129 10.3 21.8883 10.3287 21.8583 10.3367C21.8185 10.3473 21.8038 10.3746 21.8038 10.4371C21.8038 10.4949 21.7904 10.523 21.7628 10.523C21.7345 10.523 21.7219 10.5518 21.7219 10.617C21.7219 10.6874 21.7083 10.7144 21.6672 10.7254C21.6226 10.7372 21.6126 10.7632 21.6126 10.8673C21.6126 10.9594 21.6018 10.9948 21.5736 10.9948C21.5468 10.9948 21.5288 11.0426 21.5158 11.1476C21.5034 11.2498 21.4847 11.3001 21.4593 11.3001C21.431 11.3001 21.4215 11.3459 21.4215 11.4845C21.4215 11.628 21.411 11.6767 21.3738 11.7043C21.2814 11.7729 21.2894 13.3543 21.3823 13.3543C21.4126 13.3543 21.4215 13.3979 21.4215 13.5485C21.4215 13.7027 21.43 13.7428 21.4624 13.7428C21.489 13.7428 21.5035 13.7698 21.5035 13.8191C21.5039 13.9265 21.5555 14.1037 21.5866 14.1037C21.601 14.1037 21.6126 14.1537 21.6126 14.2146C21.6126 14.3072 21.6218 14.3257 21.6672 14.3257C21.7114 14.3257 21.7219 14.3442 21.7219 14.4228C21.7219 14.4908 21.7342 14.5201 21.7628 14.5201C21.7913 14.5201 21.8038 14.5494 21.8038 14.6172C21.8038 14.6958 21.8141 14.7143 21.8583 14.7143C21.9009 14.7143 21.9129 14.7328 21.9129 14.7985C21.9129 14.8477 21.9299 14.8893 21.9538 14.8986C21.9765 14.9073 21.9948 14.9383 21.9948 14.9671C21.9948 15.0012 22.0141 15.0197 22.0495 15.0197C22.0914 15.0197 22.1041 15.0382 22.1041 15.1C22.1041 15.1458 22.1216 15.1871 22.145 15.1963C22.1675 15.2051 22.186 15.2299 22.186 15.2515C22.186 15.273 22.2105 15.2973 22.2405 15.3053C22.2707 15.3133 22.2952 15.3396 22.2952 15.364C22.2952 15.3883 22.3136 15.4083 22.3362 15.4083C22.3586 15.4083 22.3771 15.4282 22.3771 15.4526C22.3771 15.4769 22.4017 15.5032 22.4317 15.5112C22.4617 15.5192 22.4862 15.543 22.4862 15.5641C22.4862 15.5853 22.5047 15.6026 22.5272 15.6026C22.5498 15.6026 22.5681 15.6224 22.5681 15.6468C22.5681 15.6711 22.5927 15.6976 22.6228 15.7055C22.6528 15.7135 22.6774 15.7374 22.6774 15.7585C22.6774 15.7797 22.6957 15.7968 22.7183 15.7968C22.7408 15.7968 22.7593 15.8168 22.7593 15.8411C22.7593 15.8654 22.7839 15.8919 22.8138 15.8999C22.844 15.9079 22.8686 15.9317 22.8686 15.9527C22.8686 15.9738 22.8931 15.9912 22.9231 15.9912C22.9531 15.9912 22.9777 16.0093 22.9777 16.0315C22.9777 16.0558 23.016 16.0793 23.0733 16.0901C23.128 16.1006 23.1688 16.1249 23.1688 16.1469C23.1688 16.1682 23.1842 16.1855 23.2032 16.1855C23.2221 16.1855 23.2529 16.2105 23.2717 16.241C23.291 16.2723 23.3354 16.2964 23.3737 16.2964C23.416 16.2964 23.4419 16.3123 23.4419 16.3381C23.4419 16.3669 23.4702 16.3797 23.5343 16.3797C23.6036 16.3797 23.6301 16.3935 23.6409 16.4353C23.6512 16.4756 23.6781 16.4908 23.7395 16.4908C23.7965 16.4908 23.8241 16.5045 23.8241 16.5324C23.8241 16.5616 23.8529 16.5741 23.9196 16.5741C23.9787 16.5741 24.036 16.5952 24.0698 16.6295C24.1097 16.6703 24.1608 16.6852 24.2609 16.6852C24.3594 16.6852 24.3974 16.6958 24.3974 16.7238C24.3974 16.7779 24.459 16.7961 24.6425 16.7961C24.7583 16.7961 24.8053 16.8074 24.8167 16.8377C24.8302 16.8734 24.9412 16.8793 25.5842 16.8793C26.234 16.8793 26.3357 16.8739 26.3357 16.8377C26.3357 16.8052 26.3731 16.7961 26.5064 16.7957C26.7143 16.7952 26.8 16.7743 26.8 16.7235C26.8 16.6955 26.8404 16.6852 26.95 16.6852C27.0821 16.6852 27.1002 16.6783 27.1002 16.6295C27.1002 16.5852 27.1184 16.5741 27.1905 16.5741C27.2403 16.5741 27.3048 16.5558 27.3338 16.5333C27.363 16.511 27.4211 16.4921 27.4629 16.4916C27.5047 16.4911 27.5456 16.4726 27.554 16.4505C27.5694 16.4099 27.7609 16.3049 27.8374 16.2951C27.9488 16.281 27.9738 16.2969 27.9738 16.3824C27.9738 16.4448 27.9887 16.4721 28.0286 16.4828C28.0585 16.4908 28.0831 16.5146 28.0831 16.5356C28.0831 16.5568 28.1001 16.5741 28.1209 16.5741C28.1416 16.5741 28.165 16.5991 28.1729 16.6295C28.1832 16.6693 28.2102 16.6852 28.2685 16.6852C28.3268 16.6852 28.3537 16.7008 28.364 16.7406C28.3747 16.7819 28.4017 16.7964 28.4695 16.7971C28.5198 16.7976 28.5847 16.8162 28.6138 16.8387C28.6867 16.8947 29.19 16.8972 29.2108 16.8417C29.2186 16.8211 29.2779 16.7969 29.3425 16.7881C29.407 16.7793 29.474 16.7524 29.4912 16.7286C29.5084 16.7046 29.5426 16.6852 29.5672 16.6852C29.5938 16.6852 29.6119 16.6625 29.6119 16.6295C29.6119 16.5987 29.6301 16.5741 29.6529 16.5741C29.6755 16.5741 29.6938 16.5553 29.6938 16.5324C29.6938 16.5093 29.7181 16.4908 29.7486 16.4908C29.7849 16.4908 29.8031 16.4723 29.8031 16.4353C29.8031 16.4047 29.8201 16.3797 29.8411 16.3797C29.8824 16.3797 29.9124 16.3216 29.9124 16.2416C29.9124 16.214 29.9307 16.1842 29.9533 16.1754C30.0156 16.1511 30.0156 4.63836 29.9533 4.63836C29.9264 4.63836 29.9124 4.61122 29.9124 4.55942C29.9124 4.51579 29.888 4.458 29.8577 4.43018C29.8277 4.40254 29.8031 4.35074 29.8031 4.31493C29.8031 4.2683 29.7875 4.24982 29.7486 4.24982C29.7184 4.24982 29.6938 4.23599 29.6938 4.21901C29.6938 4.15822 29.5705 4.05646 29.496 4.05596C29.4547 4.05579 29.4209 4.04297 29.4209 4.02781C29.4209 4.01016 29.2298 4 28.9021 4C28.5745 4 28.3834 4.01016 28.3834 4.02781ZM14.4506 4.67933C14.4284 4.70182 14.3601 4.7283 14.2985 4.73829C14.2306 4.74945 14.1867 4.77143 14.1867 4.79458C14.1867 4.81557 14.1681 4.83272 14.1457 4.83272C14.1229 4.83272 14.1048 4.85737 14.1048 4.88818C14.1048 4.91916 14.0866 4.9438 14.0638 4.9438C14.0109 4.9438 13.9136 5.04257 13.9136 5.09636C13.9136 5.11951 13.8893 5.138 13.859 5.138C13.8148 5.138 13.8043 5.15648 13.8043 5.23526C13.8043 5.30304 13.792 5.33235 13.7634 5.33235C13.7285 5.33235 13.7224 5.40596 13.7224 5.82865C13.7224 6.23585 13.7298 6.33095 13.7634 6.35943C13.786 6.37841 13.8043 6.41739 13.8043 6.44603C13.8043 6.47967 13.8238 6.49816 13.859 6.49816C13.9015 6.49816 13.9136 6.51665 13.9136 6.58143C13.9136 6.62723 13.9241 6.6647 13.9368 6.6647C13.9498 6.6647 13.9934 6.69601 14.0338 6.73415C14.0744 6.77229 14.1252 6.80344 14.147 6.80344C14.1688 6.80344 14.1867 6.82225 14.1867 6.84507C14.1867 6.87288 14.2139 6.88671 14.2686 6.88671C14.3151 6.88671 14.3749 6.91169 14.4071 6.94433C14.4856 7.02411 15.1779 7.01661 15.2362 6.93534C15.2565 6.90686 15.3066 6.88671 15.3567 6.88671C15.4147 6.88671 15.4424 6.87322 15.4424 6.84507C15.4424 6.82225 15.4621 6.80344 15.486 6.80344C15.5099 6.80344 15.536 6.77845 15.5438 6.74798C15.5517 6.7175 15.5751 6.69252 15.5957 6.69252C15.6165 6.69252 15.6336 6.6737 15.6336 6.65088C15.6336 6.6279 15.6524 6.60924 15.6754 6.60924C15.6985 6.60924 15.7252 6.58726 15.7348 6.56061C15.7445 6.53397 15.7686 6.50199 15.7886 6.48983C15.8107 6.47618 15.8248 6.41472 15.8248 6.33028C15.8248 6.21137 15.8321 6.19288 15.8793 6.19288C15.9312 6.19288 15.9338 6.1744 15.9338 5.8155C15.9338 5.46159 15.9306 5.43727 15.8793 5.42362C15.8367 5.41229 15.8248 5.38581 15.8248 5.30304C15.8248 5.24458 15.8116 5.18862 15.7958 5.17863C15.7797 5.16864 15.7555 5.13033 15.7419 5.09369C15.7281 5.05705 15.6981 5.02708 15.6752 5.02708C15.6523 5.02708 15.6336 5.00826 15.6336 4.98544C15.6336 4.96246 15.6151 4.9438 15.5926 4.9438C15.57 4.9438 15.5517 4.92465 15.5517 4.9015C15.5517 4.87819 15.521 4.84721 15.4834 4.83272C15.4459 4.81823 15.4152 4.79491 15.4152 4.78109C15.4152 4.7671 15.3592 4.74728 15.2907 4.73679C15.2223 4.7263 15.1595 4.69998 15.1513 4.67817C15.1292 4.61971 14.5082 4.62071 14.4506 4.67933ZM14.2958 8.21906C14.2958 8.26403 14.2776 8.27468 14.2003 8.27468C14.1336 8.27468 14.1048 8.28718 14.1048 8.31632C14.1048 8.33947 14.0805 8.35796 14.05 8.35796C14.0137 8.35796 13.9955 8.37644 13.9955 8.41342C13.9955 8.44423 13.9773 8.46888 13.9545 8.46888C13.9319 8.46888 13.9136 8.4862 13.9136 8.50735C13.9136 8.5285 13.889 8.55231 13.859 8.56031C13.8192 8.5708 13.8043 8.59811 13.8043 8.66057C13.8043 8.71852 13.7911 8.7465 13.7634 8.7465C13.7019 8.7465 13.7011 16.1462 13.7626 16.2287C13.7847 16.2583 13.803 16.3044 13.8035 16.3313C13.804 16.3609 13.8255 16.3797 13.859 16.3797C13.9016 16.3797 13.9136 16.3982 13.9136 16.464C13.9136 16.5169 13.9305 16.5546 13.9593 16.5659C13.9844 16.5757 14.0274 16.6065 14.0548 16.6344C14.0823 16.6623 14.1231 16.6852 14.1457 16.6852C14.1681 16.6852 14.1867 16.7025 14.1867 16.7238C14.1867 16.7656 14.2438 16.7961 14.3225 16.7961C14.3496 16.7961 14.379 16.8149 14.3877 16.8377C14.4101 16.8973 15.218 16.8998 15.2404 16.8405C15.2485 16.8191 15.2973 16.7936 15.3489 16.7838C15.4046 16.7731 15.4424 16.7494 15.4424 16.7255C15.4424 16.7033 15.4621 16.6852 15.486 16.6852C15.5099 16.6852 15.536 16.6602 15.5438 16.6295C15.5517 16.5991 15.5751 16.5741 15.5957 16.5741C15.6165 16.5741 15.6336 16.5553 15.6336 16.5324C15.6336 16.5095 15.6524 16.4908 15.6754 16.4908C15.6985 16.4908 15.7252 16.469 15.7348 16.4422C15.7445 16.4155 15.7686 16.3837 15.7886 16.3714C15.8097 16.3586 15.8248 16.2991 15.8248 16.229C15.8248 16.1321 15.8352 16.1059 15.8793 16.0941C15.9335 16.0798 15.9338 16.0565 15.9335 12.531C15.9332 8.95801 15.9312 8.85759 15.8624 8.85759C15.8375 8.85759 15.8248 8.82461 15.8248 8.76033C15.8248 8.69254 15.8123 8.66323 15.7838 8.66323C15.761 8.66323 15.7428 8.63858 15.7428 8.60777C15.7428 8.57713 15.7204 8.52933 15.6929 8.50152C15.6655 8.4737 15.6352 8.4299 15.6256 8.40442C15.6159 8.37877 15.5846 8.35796 15.5559 8.35796C15.5273 8.35796 15.4885 8.33914 15.4698 8.31632C15.4511 8.29334 15.4141 8.27468 15.3877 8.27468C15.3613 8.27468 15.3332 8.2497 15.3253 8.21906C15.3117 8.1661 15.2881 8.1636 14.8034 8.1636C14.3139 8.1636 14.2958 8.1656 14.2958 8.21906ZM1.69046 8.41342C1.67981 8.45472 1.65311 8.46888 1.5866 8.46888C1.53238 8.46888 1.4911 8.48536 1.48143 8.51051C1.47292 8.53349 1.44704 8.55215 1.42394 8.55215C1.40035 8.55215 1.38217 8.5763 1.38217 8.60777C1.38217 8.64475 1.36398 8.66323 1.32762 8.66323C1.29715 8.66323 1.2729 8.68172 1.2729 8.70487C1.2729 8.72768 1.25456 8.7465 1.23195 8.7465C1.20918 8.7465 1.191 8.77115 1.191 8.80196C1.191 8.83261 1.17413 8.85759 1.15332 8.85759C1.11221 8.85759 1.08289 8.9397 1.08223 9.05578C1.08207 9.09608 1.06339 9.13638 1.04095 9.14521C1.00491 9.1592 1 9.46148 1 11.6344C1 13.7958 1.00508 14.1129 1.04095 14.1492C1.07011 14.1788 1.0819 14.2511 1.0819 14.3997C1.0819 14.5852 1.08796 14.6102 1.13645 14.623C1.18166 14.635 1.191 14.6608 1.191 14.7731C1.191 14.875 1.20115 14.9086 1.23195 14.9086C1.26078 14.9086 1.2729 14.9383 1.2729 15.0084C1.2729 15.0848 1.28568 15.1115 1.32762 15.1226C1.36644 15.133 1.38217 15.1604 1.38217 15.2181C1.38217 15.2629 1.39969 15.3058 1.42148 15.3143C1.4431 15.3227 1.46866 15.3661 1.47816 15.4106C1.48782 15.4551 1.51321 15.4915 1.53451 15.4915C1.5558 15.4915 1.57333 15.5165 1.57333 15.547C1.57333 15.578 1.59152 15.6026 1.61429 15.6026C1.63673 15.6026 1.65524 15.6209 1.65524 15.6433C1.65524 15.6656 1.67981 15.6972 1.70978 15.7135C1.73976 15.7299 1.76433 15.7673 1.76433 15.7968C1.76433 15.8263 1.78891 15.8638 1.81905 15.8801C1.84902 15.8964 1.87359 15.9282 1.87359 15.9505C1.87359 15.9728 1.89194 15.9912 1.91455 15.9912C1.93699 15.9912 1.9555 16.009 1.9555 16.031C1.9555 16.0528 1.97892 16.0783 2.00759 16.0874C2.03626 16.0968 2.06656 16.1226 2.07492 16.1449C2.08376 16.1682 2.1257 16.1855 2.17304 16.1855C2.23758 16.1855 2.25576 16.1977 2.25576 16.241C2.25576 16.2718 2.27394 16.2964 2.29671 16.2964C2.31932 16.2964 2.33767 16.3153 2.33767 16.3381C2.33767 16.3611 2.35618 16.3797 2.37862 16.3797C2.40122 16.3797 2.44414 16.4047 2.47428 16.4353C2.50426 16.4658 2.5534 16.4908 2.58338 16.4908C2.61385 16.4908 2.63809 16.5093 2.63809 16.5324C2.63809 16.5616 2.66692 16.5741 2.73359 16.5741C2.81091 16.5741 2.82909 16.5846 2.82909 16.6295C2.82909 16.6733 2.84728 16.6852 2.91493 16.6852C2.96194 16.6852 3.01502 16.7051 3.03255 16.7296C3.0504 16.7544 3.12084 16.7804 3.19259 16.7887C3.2758 16.7982 3.32052 16.8167 3.32052 16.8414C3.32052 16.8705 3.37442 16.8793 3.55264 16.8793C3.73283 16.8793 3.78476 16.888 3.78476 16.9182C3.78476 17.0162 4.84559 17.0314 4.96615 16.935C5.0207 16.8912 5.07689 16.8793 5.22923 16.8793C5.37486 16.8793 5.42285 16.87 5.42285 16.8414C5.42285 16.8167 5.46741 16.7982 5.5498 16.7887C5.62614 16.7801 5.68659 16.7564 5.70133 16.7296C5.71542 16.704 5.76096 16.6852 5.80895 16.6852C5.86907 16.6852 5.89593 16.6698 5.90625 16.6295C5.91706 16.5879 5.9436 16.5741 6.01289 16.5741C6.07694 16.5741 6.10528 16.5612 6.10528 16.5324C6.10528 16.505 6.13248 16.4908 6.18539 16.4908C6.24141 16.4908 6.27073 16.4741 6.28285 16.4353C6.29235 16.4047 6.31774 16.3797 6.3392 16.3797C6.36083 16.3797 6.37835 16.3611 6.37835 16.3381C6.37835 16.3149 6.4026 16.2964 6.4329 16.2964C6.46304 16.2964 6.51137 16.2723 6.54069 16.2425C6.59606 16.1862 6.62505 16.1767 6.72645 16.1822C6.76855 16.1844 6.78788 16.2028 6.78788 16.241C6.78788 16.2723 6.80606 16.2964 6.82965 16.2964C6.85275 16.2964 6.87863 16.3153 6.88715 16.3381C6.89616 16.3619 6.93695 16.3797 6.98183 16.3797C7.04277 16.3797 7.06095 16.3925 7.06095 16.4353C7.06095 16.4803 7.07913 16.4908 7.15645 16.4908C7.22312 16.4908 7.25195 16.5033 7.25195 16.5324C7.25195 16.5571 7.27701 16.5741 7.31371 16.5741C7.34762 16.5741 7.3907 16.5991 7.40953 16.6295C7.43296 16.6678 7.47309 16.6852 7.53894 16.6852C7.60218 16.6852 7.63428 16.6981 7.63428 16.7238C7.63428 16.7738 7.69423 16.7961 7.82757 16.7961C7.9044 16.7961 7.93454 16.8079 7.93454 16.8377C7.93454 16.8705 7.97287 16.8793 8.11588 16.8793C8.25692 16.8793 8.30475 16.8902 8.33211 16.928C8.3634 16.9716 8.42597 16.9766 8.94443 16.9766C9.466 16.9766 9.52448 16.9718 9.54856 16.928C9.57002 16.889 9.61277 16.8793 9.76511 16.8793C9.91565 16.8793 9.9548 16.8709 9.9548 16.8377C9.9548 16.8069 9.98675 16.7961 10.0775 16.7961C10.1705 16.7961 10.2084 16.7828 10.2343 16.7406C10.2567 16.704 10.2978 16.6852 10.3555 16.6852C10.4186 16.6852 10.4474 16.6698 10.46 16.6295C10.4721 16.5907 10.5013 16.5741 10.5573 16.5741C10.6104 16.5741 10.6374 16.5599 10.6374 16.5324C10.6374 16.5045 10.6649 16.4908 10.7219 16.4908C10.7834 16.4908 10.8102 16.4756 10.8205 16.4353C10.8284 16.4047 10.8571 16.3797 10.8844 16.3797C10.9116 16.3797 10.9522 16.3611 10.9748 16.3381C10.9973 16.3153 11.035 16.2964 11.0586 16.2964C11.0833 16.2964 11.1015 16.273 11.1015 16.241C11.1015 16.204 11.1197 16.1855 11.1562 16.1855C11.1865 16.1855 11.2107 16.167 11.2107 16.1439C11.2107 16.1209 11.2291 16.1023 11.2517 16.1023C11.2745 16.1023 11.2926 16.0776 11.2926 16.0466C11.2926 16.0097 11.3108 15.9912 11.3472 15.9912C11.3777 15.9912 11.4019 15.9727 11.4019 15.9495C11.4019 15.9265 11.4202 15.9079 11.4429 15.9079C11.4656 15.9079 11.4838 15.8832 11.4838 15.8524C11.4838 15.8153 11.502 15.7968 11.5384 15.7968C11.5683 15.7968 11.5929 15.7795 11.5929 15.7582C11.5929 15.7369 11.6114 15.7124 11.6338 15.7035C11.6565 15.6947 11.6748 15.6652 11.6748 15.6379C11.6748 15.6104 11.6994 15.5726 11.7295 15.5535C11.7595 15.5345 11.7841 15.4954 11.7841 15.4667C11.7841 15.4381 11.8086 15.4083 11.8386 15.4003C11.8784 15.3896 11.8933 15.3623 11.8933 15.2998C11.8933 15.2421 11.9066 15.2139 11.9343 15.2139C11.9626 15.2139 11.9752 15.1851 11.9752 15.12C11.9752 15.0495 11.9888 15.0225 12.0298 15.0116C12.0689 15.0012 12.0843 14.9738 12.0843 14.9141C12.0843 14.8662 12.1015 14.8245 12.1253 14.8154C12.1541 14.804 12.1662 14.7584 12.1662 14.6611C12.1662 14.5582 12.1785 14.5158 12.2141 14.4956C12.2947 14.4498 12.3017 8.97034 12.2213 8.94902C12.1839 8.93903 12.1661 8.91088 12.1657 8.86125C12.1654 8.78864 12.0637 8.66323 12.0055 8.66323C11.9888 8.66323 11.9752 8.63825 11.9752 8.60777C11.9752 8.5763 11.957 8.55215 11.9333 8.55215C11.9104 8.55215 11.8845 8.53349 11.8758 8.51051C11.8661 8.48486 11.8247 8.46888 11.7675 8.46888C11.693 8.46888 11.6748 8.45805 11.6748 8.41342C11.6748 8.36012 11.6566 8.35796 11.2081 8.35796C10.7645 8.35796 10.7408 8.36062 10.7272 8.41342C10.717 8.45289 10.69 8.46888 10.6333 8.46888C10.5878 8.46888 10.5471 8.48669 10.5381 8.51051C10.5294 8.53349 10.5052 8.55215 10.4844 8.55215C10.4634 8.55215 10.4462 8.57713 10.4462 8.60777C10.4462 8.64475 10.428 8.66323 10.3917 8.66323C10.3609 8.66323 10.3371 8.68172 10.3371 8.7057C10.3371 8.72918 10.3186 8.7555 10.2962 8.76416C10.2729 8.77332 10.2552 8.81462 10.2552 8.85959C10.2552 8.91038 10.2356 8.94952 10.2005 8.96851C10.1466 8.99799 10.146 9.02663 10.146 11.426C10.146 13.4935 10.1402 13.8539 10.1076 13.8539C10.0822 13.8539 10.0628 13.9009 10.0505 13.9926C10.038 14.0844 10.0187 14.1314 9.9933 14.1314C9.97217 14.1314 9.9548 14.1564 9.9548 14.187C9.9548 14.2178 9.93662 14.2425 9.91385 14.2425C9.89141 14.2425 9.8729 14.2603 9.8729 14.2823C9.8729 14.3041 9.84833 14.3299 9.81835 14.3396C9.78837 14.3494 9.7638 14.3752 9.7638 14.397C9.7638 14.4188 9.74496 14.4368 9.72187 14.4368C9.69893 14.4368 9.67305 14.4555 9.66437 14.4784C9.65585 14.5013 9.63161 14.5201 9.61064 14.5201C9.58967 14.5201 9.57264 14.5451 9.57264 14.5755C9.57264 14.6228 9.55445 14.631 9.44896 14.631C9.36411 14.631 9.32021 14.6442 9.30956 14.6726C9.28646 14.7338 8.60502 14.7338 8.5449 14.6726C8.52246 14.6498 8.46332 14.631 8.41352 14.631C8.34603 14.631 8.3195 14.617 8.30885 14.5755C8.30099 14.5451 8.27494 14.5201 8.25102 14.5201C8.22711 14.5201 8.20761 14.5013 8.20761 14.4784C8.20761 14.4555 8.18877 14.4368 8.16568 14.4368C8.14274 14.4368 8.11686 14.418 8.10818 14.3952C8.09966 14.3722 8.07542 14.3535 8.05445 14.3535C8.03348 14.3535 8.01645 14.3354 8.01645 14.3132C8.01645 14.2911 8.00023 14.2629 7.98025 14.2508C7.96043 14.2386 7.93618 14.2066 7.92652 14.18C7.91685 14.1534 7.89015 14.1314 7.86722 14.1314C7.83773 14.1314 7.82528 14.1032 7.82528 14.0363C7.82528 13.984 7.80693 13.9224 7.78433 13.8994C7.74862 13.8631 7.74338 13.5551 7.74338 11.4662C7.74338 9.09775 7.74289 9.07426 7.68883 9.05994C7.64788 9.04895 7.63428 9.02197 7.63428 8.95152C7.63428 8.8864 7.62167 8.85759 7.59333 8.85759C7.57056 8.85759 7.55238 8.83294 7.55238 8.80196C7.55238 8.77149 7.54058 8.7465 7.52633 8.7465C7.49242 8.7465 7.36121 8.6131 7.36121 8.57863C7.36121 8.56414 7.33664 8.55215 7.30666 8.55215C7.27619 8.55215 7.25195 8.53366 7.25195 8.51051C7.25195 8.48153 7.22312 8.46888 7.15645 8.46888C7.07913 8.46888 7.06095 8.45838 7.06095 8.41342C7.06095 8.36062 7.04276 8.35796 6.68517 8.35796C6.3392 8.35796 6.30693 8.36229 6.27548 8.41342C6.25189 8.45189 6.21176 8.46888 6.14525 8.46888C6.08497 8.46888 6.0432 8.48453 6.03337 8.51051C6.02469 8.53349 5.99438 8.55215 5.96588 8.55215C5.93246 8.55215 5.91428 8.5718 5.91428 8.60777C5.91428 8.64475 5.8961 8.66323 5.85957 8.66323C5.82959 8.66323 5.80502 8.68055 5.80502 8.70187C5.80502 8.72319 5.78651 8.74784 5.76407 8.7565C5.74064 8.76566 5.72312 8.80713 5.72312 8.85342C5.72312 8.91105 5.70739 8.93853 5.66857 8.94885C5.61451 8.96318 5.61385 8.98666 5.61385 11.2803C5.61385 13.306 5.60878 13.6016 5.5729 13.6317C5.54374 13.6564 5.53195 13.7215 5.53195 13.8572C5.53195 14.0296 5.52671 14.0481 5.4774 14.0481C5.43317 14.0481 5.42285 14.0666 5.42285 14.1454C5.42285 14.2131 5.41041 14.2425 5.3819 14.2425C5.3593 14.2425 5.34095 14.2598 5.34095 14.2809C5.34095 14.3019 5.31638 14.3257 5.28623 14.3337C5.25626 14.3417 5.23169 14.3682 5.23169 14.3925C5.23169 14.4168 5.21318 14.4368 5.19074 14.4368C5.16813 14.4368 5.14978 14.4541 5.14978 14.4753C5.14978 14.4974 5.109 14.5216 5.05428 14.5321C4.99695 14.5431 4.95862 14.5666 4.95862 14.5907C4.95862 14.618 4.92897 14.631 4.86606 14.631C4.8089 14.631 4.76745 14.647 4.75762 14.6726C4.74468 14.7069 4.67424 14.7143 4.35891 14.7143C4.03653 14.7143 3.97576 14.7078 3.97576 14.6726C3.97576 14.6438 3.94742 14.631 3.88337 14.631C3.81408 14.631 3.78754 14.6172 3.77673 14.5755C3.76707 14.5377 3.73955 14.5201 3.6909 14.5201C3.65142 14.5201 3.6121 14.5013 3.60342 14.4784C3.5949 14.4555 3.56444 14.4368 3.5361 14.4368C3.50252 14.4368 3.48433 14.4172 3.48433 14.3812C3.48433 14.3504 3.46615 14.3257 3.44338 14.3257C3.41815 14.3257 3.40243 14.2996 3.40243 14.2573C3.40243 14.2173 3.37982 14.1765 3.34788 14.1592C3.31561 14.1417 3.29333 14.1011 3.29333 14.0603C3.29333 14.0221 3.27482 13.9836 3.25238 13.975C3.21634 13.9608 3.21143 13.667 3.21143 11.5628C3.21143 9.19101 3.21077 9.16636 3.15671 9.14904C3.11314 9.13488 3.10216 9.10691 3.10216 9.00964C3.10216 8.93836 3.08726 8.87891 3.06596 8.86592C3.04614 8.85359 3.0219 8.82178 3.01223 8.79513C3.00257 8.76832 2.97587 8.7465 2.95293 8.7465C2.92984 8.7465 2.911 8.72768 2.911 8.70487C2.911 8.68205 2.89265 8.66323 2.87005 8.66323C2.84728 8.66323 2.82909 8.63858 2.82909 8.60777C2.82909 8.57063 2.81091 8.55215 2.77455 8.55215C2.74424 8.55215 2.72 8.53366 2.72 8.51051C2.72 8.4817 2.69149 8.46888 2.62761 8.46888C2.55815 8.46888 2.53162 8.45505 2.52097 8.41342C2.50754 8.36112 2.48362 8.35796 2.10571 8.35796C1.72764 8.35796 1.70389 8.36112 1.69046 8.41342ZM26.0355 10.4674C26.0587 10.5115 26.0927 10.523 26.2003 10.523C26.3025 10.523 26.3357 10.5332 26.3357 10.5647C26.3357 10.5935 26.3643 10.6063 26.4281 10.6063C26.4976 10.6063 26.5241 10.6201 26.5348 10.6618C26.5446 10.6996 26.5721 10.7172 26.6208 10.7172C26.6603 10.7172 26.6996 10.736 26.7081 10.7589C26.7168 10.7818 26.7471 10.8005 26.7756 10.8005C26.809 10.8005 26.8272 10.8201 26.8272 10.8561C26.8272 10.8869 26.8454 10.9116 26.8681 10.9116C26.8907 10.9116 26.9091 10.9302 26.9091 10.9532C26.9091 10.9764 26.9333 10.9948 26.9638 10.9948C26.9946 10.9948 27.0183 11.0133 27.0183 11.0373C27.0183 11.0608 27.0367 11.0871 27.0593 11.0958C27.0817 11.1046 27.1002 11.1292 27.1002 11.1504C27.1002 11.1717 27.1248 11.1892 27.1548 11.1892C27.1913 11.1892 27.2095 11.2077 27.2095 11.2447C27.2095 11.2755 27.2277 11.3001 27.2505 11.3001C27.2732 11.3001 27.2914 11.3248 27.2914 11.3557C27.2914 11.3862 27.3129 11.4342 27.3391 11.4623C27.4066 11.5346 27.4824 11.6838 27.4824 11.7443C27.4824 11.8249 27.5122 11.883 27.5537 11.883C27.5823 11.883 27.5917 11.928 27.5917 12.0644C27.5917 12.2 27.602 12.2498 27.6326 12.2616C27.6647 12.2742 27.6736 12.3302 27.6736 12.5211C27.6736 12.7036 27.6633 12.7732 27.6326 12.799C27.6054 12.822 27.5917 12.8841 27.5917 12.9829C27.5917 13.0951 27.5781 13.1459 27.5371 13.1877C27.5006 13.2247 27.4824 13.2802 27.4824 13.3543C27.4824 13.4344 27.4711 13.4652 27.4415 13.4652C27.419 13.4652 27.4005 13.484 27.4005 13.5068C27.4005 13.5298 27.3759 13.5734 27.346 13.6041C27.316 13.6346 27.2914 13.6782 27.2914 13.7012C27.2914 13.724 27.2729 13.7428 27.2505 13.7428C27.2279 13.7428 27.2095 13.7663 27.2095 13.7951C27.2095 13.8241 27.1851 13.8539 27.1548 13.8619C27.1248 13.8699 27.1002 13.8964 27.1002 13.9207C27.1002 13.945 27.0817 13.9648 27.0593 13.9648C27.0367 13.9648 27.0183 13.9836 27.0183 14.0065C27.0183 14.0294 27.0047 14.0481 26.988 14.0481C26.9461 14.0481 26.8283 14.1655 26.8277 14.2078C26.8275 14.2268 26.8026 14.2425 26.7726 14.2425C26.7423 14.2425 26.7181 14.2609 26.7181 14.2841C26.7181 14.3069 26.6945 14.3257 26.6657 14.3257C26.5842 14.3257 26.5269 14.3557 26.5269 14.398C26.5269 14.4238 26.4948 14.4368 26.4314 14.4368C26.3646 14.4368 26.3357 14.4493 26.3357 14.4784C26.3357 14.5053 26.309 14.5201 26.2607 14.5204C26.1438 14.5209 26.0628 14.5506 26.0628 14.5927C26.0628 14.6641 25.0905 14.6473 25.072 14.5755C25.0602 14.5292 25.0348 14.5201 24.9186 14.5201C24.8133 14.5201 24.7796 14.5099 24.7796 14.4784C24.7796 14.4493 24.7507 14.4368 24.6841 14.4368C24.6067 14.4368 24.5886 14.4262 24.5886 14.3812C24.5886 14.3452 24.5704 14.3257 24.5368 14.3257C24.5085 14.3257 24.478 14.3069 24.4695 14.2841C24.4608 14.2611 24.4226 14.2425 24.3846 14.2425C24.3337 14.2425 24.3155 14.2278 24.3155 14.187C24.3155 14.1499 24.2973 14.1314 24.2609 14.1314C24.2305 14.1314 24.2062 14.1129 24.2062 14.0897C24.2062 14.0669 24.1894 14.0481 24.1685 14.0481C24.1477 14.0481 24.1243 14.0231 24.1165 13.9926C24.1086 13.9622 24.0826 13.9372 24.0586 13.9372C24.0347 13.9372 24.0152 13.9184 24.0152 13.8955C24.0152 13.8726 23.9967 13.8539 23.9743 13.8539C23.9515 13.8539 23.9333 13.8293 23.9333 13.7983C23.9333 13.7678 23.9087 13.7178 23.8786 13.6874C23.8486 13.6567 23.8241 13.6131 23.8241 13.5901C23.8241 13.5673 23.8055 13.5485 23.7831 13.5485C23.7556 13.5485 23.7422 13.5205 23.7422 13.4627C23.7422 13.4001 23.7272 13.3728 23.6876 13.3623C23.6424 13.3503 23.6329 13.3245 23.6329 13.2122C23.6329 13.1103 23.6227 13.0766 23.5919 13.0766C23.5571 13.0766 23.551 12.9979 23.551 12.5345C23.551 12.0782 23.5575 11.9898 23.5919 11.9765C23.6204 11.9653 23.6329 11.92 23.6329 11.8279C23.6329 11.7186 23.6426 11.6927 23.6876 11.6807C23.7272 11.6702 23.7422 11.6429 23.7422 11.5804C23.7422 11.5225 23.7556 11.4945 23.7831 11.4945C23.8059 11.4945 23.8241 11.4698 23.8241 11.439C23.8241 11.4084 23.8411 11.3834 23.8621 11.3834C23.9038 11.3834 23.9333 11.3251 23.9333 11.2423C23.9333 11.2132 23.9517 11.1892 23.9743 11.1892C23.9967 11.1892 24.0152 11.1704 24.0152 11.1476C24.0152 11.1244 24.0395 11.1059 24.0698 11.1059C24.1061 11.1059 24.1243 11.0874 24.1243 11.0503C24.1243 11.0195 24.1425 10.9948 24.1653 10.9948C24.1879 10.9948 24.2062 10.976 24.2062 10.9532C24.2062 10.9302 24.23 10.9116 24.259 10.9116C24.2881 10.9116 24.3196 10.8866 24.3291 10.8561C24.3402 10.8203 24.3705 10.8005 24.4138 10.8005C24.4508 10.8005 24.4881 10.7818 24.4967 10.7589C24.5053 10.736 24.5273 10.7172 24.5453 10.7172C24.5633 10.7172 24.6046 10.6922 24.6369 10.6618C24.669 10.6313 24.7316 10.6063 24.7756 10.6063C24.8217 10.6063 24.8623 10.5885 24.8715 10.5647C24.8801 10.5415 24.9209 10.5229 24.963 10.5225C25.0808 10.522 25.1619 10.4926 25.1619 10.4504C25.1619 10.3795 25.9978 10.396 26.0355 10.4674Z" fill="#04A5DC"/>
</svg>
